<?xml version="1.0" encoding="UTF-8"?>
<svg width="47px" height="87px" viewBox="0 0 47 87" version="1.1" xmlns="http://www.w3.org/2000/svg" xmlns:xlink="http://www.w3.org/1999/xlink">
    <!-- Generator: Sketch 47 (45396) - http://www.bohemiancoding.com/sketch -->
    <title>account-maintenance</title>
    <desc>Created with Sketch.</desc>
    <defs></defs>
    <g id="Page-1" fill-rule="evenodd">
        <g id="account-maintenance">
            <g id="Account-Maintenance">
                <g id="Group" fill-rule="nonzero">
                    <path d="M40.5,0.2 L6.5,0.2 C2.9,0.2 0,3.2 0,6.9 L0,79.4 C0,83.1 2.9,86.1 6.5,86.1 L40.4,86.1 C44,86.1 46.9,83.1 46.9,79.4 L46.9,7 C47,3.3 44.1,0.2 40.5,0.2 Z M6.5,2.2 L40.4,2.2 C42.9,2.2 44.9,4.3 44.9,6.9 L44.9,11.2 L2,11.2 L2,7 C2,4.4 4,2.2 6.5,2.2 Z M45,13.3 L45,69.7 L2,69.7 L2,13.3 L45,13.3 Z M40.5,84.2 L6.5,84.2 C4,84.2 2,82.1 2,79.5 L2,71.7 L45,71.7 L45,79.5 C45,82.1 43,84.2 40.5,84.2 Z" id="Shape"></path>
                    <path d="M24.5,82.2 C22,82.2 19.9,80.1 19.9,77.6 C19.9,75.1 22,73 24.5,73 C27,73 29.1,75.1 29.1,77.6 C29.1,80.1 27,82.2 24.5,82.2 Z M24.5,75 C23.1,75 21.9,76.2 21.9,77.6 C21.9,79 23.1,80.2 24.5,80.2 C25.9,80.2 27,79 27,77.6 C27,76.2 25.9,75 24.5,75 Z" id="Shape"></path>
                    <path d="M25.7,8.9 L21.4,8.9 C20.1,8.9 19,7.9 19,6.7 C19,5.5 20.1,4.5 21.4,4.5 L25.7,4.5 C27,4.5 28.1,5.5 28.1,6.7 C28.1,7.9 27,8.9 25.7,8.9 Z M21.3,6.5 C21,6.5 20.9,6.7 20.9,6.7 C20.9,6.7 21,6.9 21.3,6.9 L25.6,6.9 C25.9,6.9 26,6.7 26,6.7 C26,6.7 25.9,6.5 25.6,6.5 L21.3,6.5 Z" id="Shape"></path>
                    <path d="M12.7,8.9 C11.5,8.9 10.5,7.9 10.5,6.7 C10.5,5.5 11.5,4.5 12.7,4.5 C13.9,4.5 14.9,5.5 14.9,6.7 C14.9,7.9 13.9,8.9 12.7,8.9 Z M12.7,6.5 C12.6,6.5 12.5,6.6 12.5,6.7 C12.5,6.9 12.9,6.9 12.9,6.7 C12.9,6.6 12.8,6.5 12.7,6.5 Z" id="Shape"></path>
                </g>
                <g id="Group" transform="translate(21.000000, 26.000000)" fill-rule="nonzero" fill="currentColor">
                    <path d="M3.7,4.5 C3.4,4.1 3.2,3.8 3,3.5 C2.9,3.4 2.8,3.1 2.5,3.3 C2.4,3.4 2.2,3.2 2.3,3.1 C2.7,2.5 2,2.3 1.8,1.9 C1.8,1.9 1.8,1.8 1.8,1.7 C2.8,1.5 3.8,1.4 4.9,1.2 C4.5,2.3 4.1,3.3 3.7,4.5 Z" id="Shape"></path>
                    <path d="M14.5,15.9 C15.2,16.8 15.9,17.6 16.7,18.4 C15.6,18.6 14.6,18.9 13.6,19.1 C13.9,18.1 14.2,17.1 14.5,15.9 Z" id="Shape"></path>
                    <path d="M19.1,12.7 C19.1,12.8 19,12.9 18.9,12.9 C18.7,12.9 18.7,12.8 18.7,12.6 C18.7,12.5 18.8,12.4 18.9,12.4 C19.1,12.4 19.1,12.5 19.1,12.7 Z" id="Shape"></path>
                    <path d="M18.8,13.5 C18.8,13.6 18.7,13.7 18.5,13.7 C18.4,13.7 18.3,13.6 18.3,13.4 C18.3,13.3 18.4,13.1 18.6,13.2 C18.7,13.3 18.8,13.4 18.8,13.5 Z" id="Shape"></path>
                    <path d="M0.3,8.3 C0.4,8.3 0.5,8.4 0.5,8.5 C0.5,8.6 0.4,8.8 0.3,8.7 C0.2,8.7 0.1,8.6 0.1,8.5 C1.38777878e-17,8.4 0.2,8.4 0.3,8.3 Z" id="Shape"></path>
                    <path d="M17,1.1 C16.9,1.1 16.8,1 16.8,0.9 C16.8,0.8 16.9,0.7 17,0.7 C17.1,0.7 17.2,0.8 17.2,0.9 C17.3,1 17.2,1.1 17,1.1 Z" id="Shape"></path>
                    <path d="M19.7,8.6 C19.6,8.6 19.5,8.5 19.5,8.4 C19.5,8.3 19.6,8.2 19.7,8.2 C19.8,8.2 20,8.3 20,8.4 C20,8.5 19.8,8.5 19.7,8.6 Z" id="Shape"></path>
                    <path d="M1.9,3.5 C2.1,3.5 2.1,3.6 2.1,3.7 C2.1,3.8 2,3.9 1.9,3.9 C1.8,3.9 1.7,3.8 1.7,3.7 C1.7,3.6 1.8,3.6 1.9,3.5 Z" id="Shape"></path>
                    <path d="M18.3,2.3 C18.3,2.4 18.2,2.5 18.1,2.5 C18,2.5 17.9,2.4 17.9,2.3 C17.9,2.2 18,2.1 18.1,2.1 C18.2,2.1 18.3,2.2 18.3,2.3 Z" id="Shape"></path>
                    <path d="M0.7,11.2 C0.6,11.2 0.5,11.1 0.5,11 C0.5,10.9 0.6,10.8 0.7,10.8 C0.8,10.8 0.9,10.9 0.9,11 C0.9,11.1 0.8,11.2 0.7,11.2 Z" id="Shape"></path>
                    <path d="M1.6,4.4 C1.6,4.5 1.5,4.6 1.4,4.6 C1.3,4.6 1.2,4.5 1.2,4.4 C1.2,4.3 1.3,4.2 1.4,4.2 C1.6,4.2 1.6,4.3 1.6,4.4 Z" id="Shape"></path>
                    <path d="M19.2,5 C19,5 19,4.9 19,4.8 C19,4.7 19.1,4.6 19.2,4.6 C19.3,4.6 19.4,4.7 19.4,4.8 C19.4,4.9 19.3,5 19.2,5 Z" id="Shape"></path>
                    <path d="M19.6,10.3 C19.5,10.3 19.4,10.2 19.4,10.1 C19.4,10 19.5,9.9 19.6,9.9 C19.7,9.9 19.8,10 19.8,10.1 C19.8,10.2 19.7,10.3 19.6,10.3 Z" id="Shape"></path>
                    <path d="M19.4,5.9 C19.3,5.9 19.2,5.8 19.2,5.7 C19.2,5.6 19.3,5.5 19.4,5.5 C19.5,5.5 19.6,5.6 19.6,5.7 C19.6,5.8 19.5,5.8 19.4,5.9 Z" id="Shape"></path>
                    <path d="M19.8,6.5 C19.8,6.6 19.7,6.7 19.6,6.7 C19.5,6.7 19.4,6.6 19.4,6.5 C19.4,6.4 19.5,6.3 19.6,6.3 C19.7,6.3 19.7,6.4 19.8,6.5 Z" id="Shape"></path>
                    <path d="M1,12 C0.9,12 0.8,11.9 0.8,11.8 C0.8,11.7 0.9,11.6 1,11.6 C1.1,11.6 1.2,11.7 1.2,11.8 C1.2,11.9 1.1,11.9 1,12 Z" id="Shape"></path>
                    <path d="M0.7,10.2 C0.7,10.3 0.7,10.4 0.5,10.4 C0.4,10.4 0.3,10.3 0.3,10.2 C0.3,10.1 0.3,10 0.4,10 C0.6,9.9 0.6,10 0.7,10.2 Z" id="Shape"></path>
                    <path d="M16.7,0.2 C16.7,0.3 16.6,0.4 16.5,0.4 C16.4,0.4 16.3,0.3 16.3,0.2 C16.3,0.1 16.4,0 16.5,0 C16.6,0 16.7,0.1 16.7,0.2 Z" id="Shape"></path>
                    <path d="M1.5,12.5 C1.5,12.7 1.4,12.8 1.3,12.7 C1.2,12.7 1.1,12.6 1.1,12.4 C1.1,12.3 1.2,12.2 1.3,12.2 C1.5,12.3 1.5,12.4 1.5,12.5 Z" id="Shape"></path>
                    <path d="M18.7,3.1 C18.7,3.2 18.6,3.3 18.5,3.3 C18.4,3.3 18.3,3.2 18.3,3.1 C18.3,3 18.3,2.9 18.4,2.8 C18.6,2.9 18.7,3 18.7,3.1 Z" id="Shape"></path>
                    <path d="M1.8,13.4 C1.7,13.4 1.6,13.3 1.6,13.1 C1.6,13 1.7,12.9 1.8,12.9 C1.9,12.9 2,13 2,13.1 C2,13.3 1.9,13.4 1.8,13.4 Z" id="Shape"></path>
                    <path d="M19.7,7.2 C19.8,7.2 19.9,7.3 19.9,7.4 C19.9,7.5 19.8,7.6 19.7,7.6 C19.6,7.6 19.5,7.5 19.5,7.4 C19.5,7.3 19.5,7.3 19.7,7.2 Z" id="Shape"></path>
                    <path d="M0.5,7.7 C0.5,7.8 0.4,7.9 0.3,7.9 C0.2,7.9 0.1,7.8 0.1,7.7 C0.1,7.6 0.2,7.5 0.3,7.5 C0.5,7.5 0.5,7.5 0.5,7.7 Z" id="Shape"></path>
                    <path d="M16.1,16.7 C16.2,16.7 16.3,16.8 16.3,17 C16.3,17.1 16.2,17.2 16.1,17.2 C16,17.2 15.9,17.1 16,17 C15.9,16.8 15.9,16.7 16.1,16.7 Z" id="Shape"></path>
                    <path d="M17.2,15.4 C17.4,15.4 17.4,15.5 17.4,15.6 C17.4,15.7 17.3,15.8 17.2,15.8 C17.1,15.8 17,15.7 17,15.6 C17,15.5 17.1,15.5 17.2,15.4 Z" id="Shape"></path>
                    <path d="M0.7,6.8 C0.7,6.9 0.6,7 0.5,7 C0.4,7 0.3,6.9 0.3,6.8 C0.3,6.7 0.3,6.6 0.5,6.5 C0.6,6.6 0.7,6.7 0.7,6.8 Z" id="Shape"></path>
                    <path d="M16.9,16.3 C16.9,16.4 16.8,16.5 16.7,16.5 C16.6,16.5 16.5,16.4 16.5,16.3 C16.5,16.2 16.6,16.1 16.7,16.1 C16.8,16.1 16.8,16.1 16.9,16.3 Z" id="Shape"></path>
                    <path d="M1,5.4 C0.9,5.4 0.8,5.3 0.8,5.2 C0.8,5.1 0.9,5 1,5 C1.1,5 1.2,5.1 1.2,5.2 C1.2,5.3 1.1,5.4 1,5.4 Z" id="Shape"></path>
                    <path d="M19.6,9.4 C19.5,9.4 19.4,9.3 19.4,9.2 C19.4,9.1 19.5,9 19.6,9 C19.7,9 19.8,9.1 19.8,9.2 C19.9,9.4 19.8,9.4 19.6,9.4 Z" id="Shape"></path>
                    <path d="M2.1,13.8 C2.1,13.7 2.2,13.6 2.3,13.6 C2.4,13.6 2.5,13.7 2.5,13.8 C2.5,13.9 2.4,14 2.3,14 C2.2,14 2.1,13.9 2.1,13.8 Z" id="Shape"></path>
                    <path d="M19.6,11 C19.6,11.1 19.5,11.2 19.4,11.2 C19.3,11.2 19.2,11.1 19.2,11 C19.2,10.9 19.3,10.8 19.4,10.8 C19.5,10.8 19.6,10.9 19.6,11 Z" id="Shape"></path>
                    <path d="M0.7,6.2 C0.6,6.2 0.5,6.1 0.5,6 C0.5,5.9 0.6,5.8 0.7,5.8 C0.8,5.8 0.9,5.9 0.9,6 C0.9,6.1 0.9,6.2 0.7,6.2 Z" id="Shape"></path>
                    <path d="M18.9,3.7 C19,3.7 19.1,3.8 19.1,3.9 C19.1,4 19,4.1 18.9,4.1 C18.8,4.1 18.7,4 18.7,3.9 C18.7,3.8 18.8,3.7 18.9,3.7 Z" id="Shape"></path>
                    <path d="M17.5,1.4 C17.6,1.4 17.7,1.4 17.7,1.5 C17.7,1.6 17.7,1.7 17.5,1.7 C17.4,1.7 17.3,1.6 17.3,1.6 C17.4,1.5 17.5,1.4 17.5,1.4 Z" id="Shape"></path>
                    <path d="M17.7,14.8 C17.8,14.8 17.9,14.9 17.9,14.9 C17.9,15 17.9,15.1 17.7,15.1 C17.6,15.1 17.5,15 17.5,14.9 C17.5,14.9 17.6,14.8 17.7,14.8 Z" id="Shape"></path>
                    <path d="M0.5,9.4 C0.5,9.5 0.4,9.6 0.3,9.6 C0.2,9.6 0.1,9.5 0.1,9.4 C0.1,9.3 0.1,9.2 0.3,9.2 C0.5,9.2 0.5,9.2 0.5,9.4 Z" id="Shape"></path>
                    <path d="M19.1,12 C19,12 19,11.9 19,11.8 C19,11.7 19.1,11.6 19.2,11.6 C19.3,11.6 19.4,11.7 19.4,11.8 C19.4,12 19.3,12 19.1,12 Z" id="Shape"></path>
                    <path d="M18.2,14.4 C18.1,14.4 18,14.3 18,14.2 C18,14.1 18.1,14 18.2,14 C18.3,14 18.4,14.1 18.4,14.2 C18.3,14.4 18.3,14.4 18.2,14.4 Z" id="Shape"></path>
                    <path d="M11.4,8 C11.4,7.7 11,7.8 10.8,7.7 C10.1,7.6 10,7.2 10.4,6.7 C10.5,6.5 10.6,6.4 10.7,6.2 C10.6,5.8 10.3,5.6 10.1,5.4 C9.8,5 9.6,5 9.2,5.4 C9,5.5 8.9,5.8 8.6,5.7 C8.2,5.6 8.3,5.3 8.2,5 C8.2,4.8 8.2,4.5 8,4.4 C7.6,4.3 7.2,4.3 6.8,4.4 C6.5,4.5 6.5,4.9 6.5,5.1 C6.5,5.3 6.4,5.5 6.2,5.6 C5.9,5.7 5.8,5.5 5.6,5.4 C5.4,5.3 5.3,5 5.1,5.1 C4.7,5.3 4.4,5.7 4.1,6 C3.9,6.3 4.2,6.4 4.3,6.6 C4.7,7.2 4.6,7.5 3.9,7.6 C3.4,7.7 3.2,7.9 3.3,8.4 C3.3,8.9 3.1,9.4 3.9,9.4 C4.6,9.4 4.7,9.9 4.3,10.4 C3.9,11 3.9,11 4.7,11.8 C5.1,12.2 5.3,11.9 5.5,11.7 C5.7,11.6 5.8,11.3 6.1,11.5 C6.4,11.6 6.4,11.8 6.4,12.1 C6.4,12.3 6.4,12.7 6.6,12.8 C7,12.9 7.4,12.9 7.8,12.8 C8.1,12.7 8,12.3 8.1,12.1 C8.1,11.9 8.2,11.7 8.5,11.6 C8.8,11.5 8.9,11.7 9,11.8 C9.2,11.9 9.3,12.2 9.6,12.1 C10,11.9 10.3,11.5 10.6,11.1 C10.8,10.8 10.5,10.7 10.4,10.5 C10,9.9 10.1,9.6 10.8,9.5 C11,9.5 11.2,9.5 11.3,9.3 C11.5,9 11.4,8.5 11.4,8 Z M7.3,10.4 C6.4,10.4 5.7,9.6 5.7,8.6 C5.7,7.6 6.4,6.9 7.3,6.9 C8.2,6.9 8.9,7.7 8.9,8.6 C8.9,9.6 8.2,10.4 7.3,10.4 Z" id="Shape"></path>
                    <path d="M15,11.5 C14.3,11.4 14.2,11.3 14.5,10.6 C14.7,10.1 14.4,10 14.1,9.8 C13.7,9.5 13.6,9.9 13.5,10 C13.1,10.5 13,10.5 12.6,10 C12.5,9.8 12.4,9.4 12,9.7 C11.7,9.9 11.3,10 11.5,10.5 C11.8,11.2 11.7,11.3 11,11.4 C10.6,11.5 10.5,11.7 10.5,12 C10.5,12.3 10.5,12.6 11,12.6 C11.7,12.7 11.8,12.8 11.5,13.4 C11.3,13.8 11.5,14 11.8,14.2 C12.2,14.5 12.3,14.2 12.5,14 C12.9,13.5 13,13.5 13.4,14 C13.5,14.1 13.6,14.3 13.8,14.4 C14.3,14.4 14.6,13.9 14.4,13.5 C14.2,12.8 14.2,12.7 14.9,12.6 C15.3,12.5 15.4,12.4 15.4,12 C15.5,11.8 15.4,11.6 15,11.5 Z M13,13 C12.6,13 12.2,12.6 12.2,12.2 C12.2,11.7 12.5,11.3 13,11.3 C13.4,11.3 13.8,11.7 13.8,12.1 C13.8,12.6 13.5,12.9 13,13 Z" id="Shape"></path>
                    <path d="M15.5,5.2 C15.5,4.9 15.6,4.7 15.2,4.6 C14.4,4.4 14.4,4.4 14.6,3.5 C14.6,3.4 14.6,3.4 14.7,3.3 C14.7,3.1 14.5,2.9 14.1,2.7 C13.9,2.6 13.8,2.7 13.6,2.9 C13.1,3.5 13.1,3.5 12.5,2.9 C12.4,2.8 12.3,2.6 12.1,2.7 C11.6,2.8 11.4,3.2 11.6,3.7 C11.8,4.3 11.7,4.4 11.2,4.5 C10.8,4.5 10.7,4.7 10.7,5.1 C10.7,5.5 10.8,5.7 11.2,5.8 C11.8,5.9 11.9,6 11.6,6.6 C11.6,6.7 11.6,6.7 11.5,6.8 C11.3,7.3 11.7,7.3 12,7.5 C12.3,7.7 12.4,7.6 12.5,7.4 C13,6.7 13,6.7 13.6,7.4 C13.7,7.6 13.9,7.8 14.1,7.6 C14.3,7.4 14.7,7.3 14.6,6.8 C14.3,6 14.3,6 15.1,5.8 C15.4,5.7 15.5,5.5 15.5,5.2 Z M13,6.1 C12.6,6.1 12.2,5.7 12.2,5.2 C12.2,4.7 12.6,4.4 13,4.4 C13.5,4.4 13.8,4.8 13.8,5.3 C13.8,5.7 13.4,6.1 13,6.1 Z" id="Shape"></path>
                </g>
                <path d="M28.4,46.7 C27.9,46.3 27.4,45.9 26.9,45.5 C26.4,45.1 25.8,44.8 25.2,44.4 C25.9,43.8 26.4,43 26.8,42.3 C26.2,42.1 25.6,41.9 25,41.6 C23.9,43.5 21.8,44.9 19.4,44.9 C15.9,44.9 13,42 13,38.5 C13,35 15.9,32.1 19.4,32.1 C19.6,32.1 19.8,32.1 20.1,32.1 C20.2,31.5 20.3,30.9 20.5,30.3 C20.4,30.3 20.3,30.3 20.2,30.3 C20.1,30.3 20,30.3 19.9,30.3 C19.8,30.3 19.6,30.3 19.5,30.3 C19.4,30.3 19.2,30.3 19.1,30.3 C19,30.3 18.9,30.3 18.8,30.3 C18.6,30.3 18.5,30.3 18.3,30.4 C18.2,30.4 18.1,30.4 18,30.4 C17.8,30.4 17.6,30.5 17.5,30.5 C17.4,30.5 17.4,30.5 17.3,30.5 C17.1,30.6 16.9,30.6 16.6,30.7 C16.6,30.7 16.6,30.7 16.6,30.7 C15.5,31.1 14.5,31.7 13.6,32.5 C10.5,35.5 10,40.9 13.6,44.4 C13,44.7 12.5,45.1 11.9,45.5 C11.4,45.9 10.9,46.3 10.4,46.7 C10.4,46.7 10.4,46.7 10.4,46.8 C7.6,49.5 6.5,53.2 6.6,56 C9.6,56 12.7,56 15.7,56 C18.2,56 20.6,56 23.1,56 C26.1,56 29.2,56 32.2,56 C32.3,53.1 31.2,49.5 28.4,46.7 C28.4,46.7 28.4,46.7 28.4,46.7 Z M30.3,54 C30.3,54 30.3,54 30.3,54 C27.9,54.1 25.6,54.1 23.2,54.1 C20.7,54.1 18.3,54.1 15.8,54.1 C13.4,54.1 11.1,54.1 8.7,54.1 C8.7,54.1 8.7,54 8.7,54 C9.5,50.2 11.6,47.5 15.1,45.9 C15.4,45.8 15.8,45.9 16.2,46.1 C16.3,46.2 16.5,46.2 16.6,46.3 C16.6,46.3 16.6,46.3 16.6,46.3 C17.2,46.5 17.7,46.7 18.3,46.8 C18.3,46.8 18.4,46.8 18.4,46.8 C18.6,46.8 18.8,46.9 19.1,46.9 C19.2,46.9 19.4,46.9 19.5,46.9 C19.6,46.9 19.8,46.9 19.9,46.9 C20.1,46.9 20.3,46.9 20.6,46.8 C20.6,46.8 20.7,46.8 20.7,46.8 C21.3,46.7 21.8,46.6 22.4,46.3 C22.4,46.3 22.4,46.3 22.4,46.3 C22.5,46.2 22.7,46.2 22.8,46.1 C23.2,45.9 23.5,45.9 23.9,45.9 C27.3,47.5 29.5,50.2 30.3,54 Z" id="Shape" fill="currentColor" fill-rule="nonzero"></path>
            </g>
        </g>
    </g>
</svg>