<?xml version="1.0" encoding="utf-8"?>
<!-- Generator: Adobe Illustrator 21.1.0, SVG Export Plug-In . SVG Version: 6.00 Build 0)  -->
<svg version="1.1" id="Слой_1" xmlns="http://www.w3.org/2000/svg" xmlns:xlink="http://www.w3.org/1999/xlink" x="0px" y="0px"
	 viewBox="0 0 59.8 64.5" style="enable-background:new 0 0 59.8 64.5;" xml:space="preserve">
	<path fill="currentColor" d="M59.7,11.2c-0.1-1-1.2-0.7-1.8-0.8c-2-0.4-2.4-1.4-1.2-3.1c0.3-0.5,0.6-0.9,1-1.4c-0.4-1.1-1.3-1.7-1.9-2.5
		c-0.9-1.1-1.6-1.1-2.6-0.1c-0.5,0.4-0.8,1.2-1.9,0.8c-1.1-0.4-1-1.3-1.1-2.1c-0.1-0.6,0.1-1.5-0.6-1.7c-1.2-0.4-2.5-0.3-3.7,0
		c-1,0.2-0.8,1.4-0.9,2.2c-0.1,0.7-0.2,1.3-1,1.6c-0.9,0.4-1.2-0.3-1.7-0.6s-0.9-1.2-1.6-0.9c-1.3,0.5-2.1,1.7-2.9,2.8
		c-0.6,0.8,0.3,1.3,0.7,1.9c1.3,1.9,1,2.8-1.3,3.1c-1.6,0.2-2,0.9-1.9,2.4c0.1,1.4-0.5,3,1.9,3.2c2.1,0.1,2.5,1.4,1.2,3.1
		c-1.2,1.7-1.1,1.7,1.2,4.2c1.2,1.2,1.7,0.2,2.5-0.3c0.5-0.3,0.8-1.1,1.7-0.7c0.8,0.4,0.9,1,1,1.8c0.1,0.7-0.1,1.8,0.7,2
		c1.2,0.3,2.5,0.3,3.7,0c1-0.2,0.7-1.4,0.8-2.2c0.1-0.7,0.3-1.2,1.1-1.6c0.9-0.4,1.1,0.3,1.6,0.6c0.6,0.3,1,1.3,1.7,1
		c1.3-0.5,2.1-1.8,2.9-2.9c0.6-0.8-0.3-1.3-0.7-1.9c-1.3-1.8-0.9-2.6,1.3-3.1c0.5-0.1,1.3,0.1,1.6-0.5C60,14,59.8,12.6,59.7,11.2z
		 M47.5,18.3c-2.6,0-4.8-2.4-4.7-5.3c0-3,2.1-5.1,4.9-5.1c2.7,0,4.8,2.4,4.8,5.2C52.4,16,50.1,18.3,47.5,18.3z"/>
	<path d="M50.6,42.9c-1.2-0.9-2.3-1.9-3.5-2.8c-1.2-0.9-2.6-1.6-3.8-2.5c1.5-1.5,2.7-3.1,3.6-4.9
		c-1.5-0.4-2.9-0.9-4.2-1.6c-2.5,4.5-7.4,7.6-12.9,7.7c-8.2-0.1-14.9-6.8-14.9-15S21.6,9,29.8,8.9c0.5,0,1,0,1.5,0.1
		c0.2-1.4,0.5-2.8,0.9-4.2c-0.2,0-0.5-0.1-0.7-0.1c-0.3,0-0.5,0-0.8,0s-0.6,0-0.9,0s-0.6,0-0.9,0s-0.5,0-0.8,0
		c-0.4,0-0.7,0.1-1.1,0.1c-0.2,0-0.4,0.1-0.6,0.1C26,5,25.6,5.1,25.1,5.2c-0.1,0-0.2,0.1-0.4,0.1c-0.5,0.1-1,0.3-1.5,0.5l0,0
		c-2.5,0.9-4.8,2.3-6.9,4.2C9,17,8,29.6,16.2,37.7c-1.3,0.8-2.6,1.6-3.8,2.5s-2.3,1.9-3.5,2.8c0,0.1,0.1,0.1,0.1,0.2
		C2.5,49.6-0.1,58,0,64.5c7.1,0,14.1,0,21.2,0c5.7,0,11.5,0,17.2,0c7.1,0,14.1,0,21.2,0c0.2-6.5-2.5-15-9-21.3
		C50.6,43,50.6,43,50.6,42.9z M54.9,60c0,0,0,0.1,0,0.2c-5.5,0-11,0-16.5,0c-5.7,0-11.4,0-17.2,0c-5.5,0-11,0-16.5,0
		c0-0.1,0-0.2,0-0.2c1.7-8.9,6.7-15.1,14.9-18.9c0.8-0.1,1.6,0,2.5,0.4c0.3,0.1,0.6,0.2,0.9,0.4h0.1c1.3,0.5,2.6,0.9,3.9,1.1
		c0.1,0,0.2,0,0.3,0c0.5,0.1,1,0.1,1.5,0.1c0.3,0,0.6,0,0.9,0s0.6,0,0.9,0c0.5,0,1-0.1,1.5-0.1c0.1,0,0.2,0,0.3,0
		c1.3-0.2,2.6-0.6,3.9-1.1h0.1c0.3-0.1,0.6-0.2,0.9-0.4c0.9-0.4,1.7-0.6,2.5-0.4C48,44.9,53.1,51.1,54.9,60z"/>
</svg>
