<?xml version="1.0" encoding="utf-8"?>
<!-- Generator: Adobe Illustrator 21.1.0, SVG Export Plug-In . SVG Version: 6.00 Build 0)  -->
<svg version="1.1" id="Слой_1" xmlns="http://www.w3.org/2000/svg" xmlns:xlink="http://www.w3.org/1999/xlink" x="0px" y="0px"
	 viewBox="0 0 75.8 85.9" enable-background="new 0 0 75.8 85.9" xml:space="preserve">
<path d="M38.8,81.9c-2.5,0-4.6-2.1-4.6-4.6s2.1-4.6,4.6-4.6s4.6,2.1,4.6,4.6S41.4,81.9,38.8,81.9z M38.8,74.7
	c-1.4,0-2.6,1.2-2.6,2.6s1.2,2.6,2.6,2.6s2.6-1.2,2.6-2.6S40.2,74.7,38.8,74.7z"/>
<path d="M40,8.6h-4.3c-1.3,0-2.4-1-2.4-2.2s1.1-2.2,2.4-2.2H40c1.3,0,2.4,1,2.4,2.2S41.4,8.6,40,8.6z M35.7,6.3
	c-0.3,0-0.4,0.2-0.4,0.2s0.1,0.2,0.4,0.2H40c0.3,0,0.4-0.2,0.4-0.2S40.3,6.3,40,6.3H35.7z"/>
<path d="M27.1,8.6c-1.2,0-2.2-1-2.2-2.2s1-2.2,2.2-2.2s2.2,1,2.2,2.2S28.3,8.6,27.1,8.6z M27.1,6.3
	c-0.1,0-0.2,0.1-0.2,0.2c0,0.2,0.4,0.2,0.4,0S27.2,6.3,27.1,6.3z"/>
<path d="M59.4,52.7v16.7h-43V13h43v4.9c0.7-0.1,1.3-0.2,2-0.2v-11C61.4,3,58.5,0,54.9,0h-34c-3.6,0-6.5,3-6.5,6.7
	v72.5c0,3.7,2.9,6.7,6.5,6.7h33.9c3.6,0,6.5-3,6.5-6.7V52.9C60.7,52.9,60,52.8,59.4,52.7z M16.4,6.7c0-2.6,2-4.7,4.5-4.7h33.9
	c2.5,0,4.5,2.1,4.5,4.7V11h-43L16.4,6.7L16.4,6.7z M59.4,79.2c0,2.6-2,4.7-4.5,4.7h-34c-2.5,0-4.5-2.1-4.5-4.7v-7.8h43V79.2z"/>
<g>
	<path fill="currentColor" d="M61,20.7c-0.5,0-1.1,0-1.6,0.1c-4.4,0.5-8.1,2.7-10.6,6.2c-2.5,3.4-3.3,7.7-2.3,11.9c0.9,4.2,3.3,7.4,7.1,9.6
		c0-0.7,0-1.4,0-2.1c0-0.2,0-0.2-0.3-0.4c-4-3.1-5.8-7.3-5.2-12.3c0.8-6.2,6.3-11,12.7-11c0.2,0,0.4,0,0.7,0
		c6.7,0.4,12,5.7,12.2,12.4c0.2,5.4-3.1,10.6-8.1,12.5h-0.1c-0.2,0.1-0.5,0.2-0.8,0.2s-0.6-0.1-0.9-0.4c-0.3-0.3-0.3-0.8-0.3-1.1
		c0-2.5,0-5.2,0-8.4l0,0v-0.1c0-0.4,0.1-0.5,0.5-0.4c0.5,0,1,0,1.5,0c0.2,0,0.4,0,0.5-0.2s-0.1-0.3-0.2-0.5
		c-1.4-1.4-2.9-2.9-4.3-4.3c-0.3-0.3-0.6-0.4-0.9-0.1c-1.5,1.5-3,3-4.5,4.5c-0.1,0.1-0.2,0.3-0.1,0.4c0.1,0.2,0.2,0.2,0.4,0.2
		c0.5,0,0.9,0,1.4,0s0.7,0.1,0.6,0.6c0,0.1,0,0.2,0,0.2l0,0l0,0c0,1.4,0,2.9,0,4.3v3.4c0,1.5-0.2,3.8,0.3,4.2
		c0.7,0.6,1.5,0.5,2.3,0.5c0.5,0,1,0,1.5-0.1c7.9-0.9,13.3-7.1,13.3-15C75.7,27.4,68.9,20.7,61,20.7z"/>
</g>
<path fill="currentColor" d="M30.7,36.4c-1.6,0-3.2,0-4.8,0c0-1.1,0-2.1,0-3.2c1.6,0,3.2,0,4.8,0c0-1.6,0-3.2,0-4.8c1.1,0,2.1,0,3.2,0
	c0,1.6,0,3.2,0,4.8c1.6,0,3.2,0,4.8,0c0,1.1,0,2.1,0,3.2c-1.6,0-3.2,0-4.8,0c0,1.6,0,3.2,0,4.8c-1.1,0-2.1,0-3.2,0
	C30.7,39.6,30.7,38,30.7,36.4z"/>
</svg>
