<?xml version="1.0" encoding="utf-8"?>
<!-- Generator: Adobe Illustrator 21.1.0, SVG Export Plug-In . SVG Version: 6.00 Build 0)  -->
<svg version="1.1" id="Слой_1" xmlns="http://www.w3.org/2000/svg" xmlns:xlink="http://www.w3.org/1999/xlink" x="0px" y="0px"
	 viewBox="0 0 170.1 180.6" enable-background="new 0 0 170.1 180.6" xml:space="preserve">
<path fill="#706F6F" d="M28.4,45.1l0.8,0c9.2,0.2,9.3,0.3,13.2,8.8l0,0c3.1,6.8,6,13.8,8.8,20.9l1.9,4.7c0.5,1.3,0.8,2.6,0.7,3.9
	c-0.1,1.4-0.5,2.7-1.3,4c-1.4,2.3-2.9,4.6-4.5,6.8c-1.7,2.3-3.5,4.5-5.6,6.5l-0.4,0.4l0.2,0.5c0.8,2,1.9,3.8,3.1,5.5
	c1.3,1.8,2.7,3.6,4.1,5.3c5.1,6.4,10.7,12.3,17,17.3c6.2,5,13,9.1,20.7,12.1l0.8,0.3c0.7,0.2,1.3,0.4,2,0.8l0.6,0.2
	c0.1,0,0.4-0.3,0.7-0.8c1.7-2.4,3.5-4.8,5.3-7.2c1.7-2.3,3.6-4.6,5.6-6.9c1.4-1.6,2.8-2.6,4.6-3.1c1.8-0.4,3.5-0.2,5.5,0.7
	c4.8,2.1,9.6,4.4,14.6,6.8c4.8,2.4,9.6,4.8,14.3,7.4c1.7,0.9,2.9,2.1,3.7,3.6c0.8,1.5,1,3.3,0.6,5.3c-0.2,1-0.3,2-0.4,3l-0.2,3.1
	c-0.1,2.6-0.8,4.8-1.9,6.8c-1,1.9-2.4,3.6-3.9,5.2c-5.2,5.5-11.1,9.1-17.5,11.2c-6.4,2.1-13.2,2.6-20.4,1.8
	c-7.7-0.8-15-2.9-21.9-5.8c-6.8-2.9-13.3-6.6-19.5-10.9c-11.3-7.6-21.3-16.4-30.1-26.2c-8.8-9.8-16.4-20.6-22.8-32.6
	c-1.8-3.4-3.3-6.8-4.4-10.3c-1.1-3.5-1.9-7.3-2.3-11.1C-0.4,77.4,0.3,72,2.1,66.9c1.8-5,4.6-9.7,8.3-14l0.3-0.3
	C15.1,47.4,19.6,42.1,28.4,45.1L28.4,45.1z M28.9,51.9L27,51.8l-0.5-0.2c-4.7-1.7-7.7,1.8-10.7,5.3l-0.3,0.3
	c-3.2,3.7-5.6,7.7-7.1,11.9c-1.5,4.2-2,8.7-1.6,13.5c0.3,3.3,1,6.6,2,9.7c1,3.2,2.3,6.3,3.9,9.2c6.1,11.4,13.4,21.9,21.8,31.3
	c8.5,9.4,18.1,17.8,28.9,25.1c5.9,4,12,7.5,18.4,10.2c6.3,2.7,13,4.6,20,5.3c6.3,0.7,12.2,0.2,17.6-1.5c5.4-1.8,10.3-4.9,14.7-9.5
	c1.1-1.2,2.1-2.4,2.8-3.7c0.6-1.2,1-2.5,1.1-3.9l0.2-3.5c0.1-1.2,0.3-2.4,0.5-3.5c0.1-0.5,0.1-0.8,0-1c-0.1-0.2-0.5-0.5-1-0.8
	c-4.6-2.6-9.3-5-14-7.3c-4.6-2.2-9.4-4.5-14.4-6.7c-0.6-0.3-1-0.4-1.2-0.3c-0.2,0.1-0.6,0.3-1,0.8c-1.8,2.1-3.6,4.4-5.4,6.7
	c-1.7,2.2-3.5,4.5-5.1,6.9c-1.2,1.7-2.5,2.8-4.2,3.3c-1.8,0.6-3.6,0.4-5.7-0.6l-2.3-0.8c-8.3-3.3-15.7-7.7-22.4-13.1
	c-6.6-5.3-12.5-11.5-18-18.3c-1.5-1.9-3-3.7-4.4-5.7c-1.4-2.1-2.7-4.3-3.7-6.6c-0.7-1.6-0.9-3-0.6-4.5c0.3-1.5,1.1-2.7,2.3-3.9
	c1.8-1.7,3.3-3.5,4.7-5.5c1.5-2.1,2.9-4.3,4.2-6.5c0.2-0.3,0.3-0.6,0.3-0.8c0-0.3-0.1-0.6-0.2-1l-1.9-4.7
	c-2.7-6.9-5.5-13.8-8.6-20.6l0,0C34.1,52,34.1,52,28.9,51.9L28.9,51.9L28.9,51.9z"/>
<path fill="currentColor" d="M143.8,0l26.3,67.4h-9.9l-7.5-20.6h-28.3l-7.7,20.6h-9.5L133.7,0C133.7,0,143.8,0,143.8,0z M150,39.7
	L138.6,8.5l-11.6,31.1C126.9,39.7,150,39.7,150,39.7z"/>
</svg>
