<?xml version="1.0" encoding="utf-8"?>
<!-- Generator: Adobe Illustrator 21.1.0, SVG Export Plug-In . SVG Version: 6.00 Build 0)  -->
<svg version="1.1" id="Слой_1" xmlns="http://www.w3.org/2000/svg" xmlns:xlink="http://www.w3.org/1999/xlink" x="0px" y="0px"
	 viewBox="0 0 88.3 58" enable-background="new 0 0 88.3 58" xml:space="preserve">
<g>
	<path d="M29.6,30.9c-0.4-0.1-0.8-0.2-1.2-0.2c-2.4-0.5-4.7-1-7.1-1.5c-1.2-0.3-2.4-0.5-3.6-0.8
		c-0.8-0.2-1.4-0.7-1.6-1.5c-0.3-0.8-0.1-1.5,0.5-2.1c1.3-1.3,2.5-2.6,3.8-3.9c0.2-0.3,0.5-0.4,1-0.5c-0.8-0.8-1.5-1.5-2.3-2.2l0,0
		c0.6,0.1,1.2,0.3,1.8,0.4c2.5,0.5,5,1.1,7.6,1.6c0.8,0.2,1.6,0.4,2.4,0.5c0.8,0.2,1.4,0.7,1.7,1.5c0.2,0.8,0.1,1.6-0.6,2.2
		c-1.3,1.3-2.5,2.6-3.8,3.9c-0.2,0.2-0.4,0.4-0.7,0.4c-0.2,0.1-0.2,0.1,0,0.2c0.6,0.6,1.3,1.3,1.9,1.9
		C29.5,30.8,29.6,30.8,29.6,30.9z M21.2,21.8c0,0.2,0,0.4,0.1,0.6c0.1,0.3,0.4,0.6,0.7,0.8c1.6,1.6,3.3,3.3,4.9,4.9
		c0.1,0.1,0.2,0.2,0.4,0c0.5-0.6,0.5-1.5-0.1-2.1c-0.8-0.8-1.7-1.7-2.5-2.5c-0.9-0.9-1.8-1.8-2.7-2.7c-0.1-0.1-0.2-0.1-0.3,0
		C21.4,21.1,21.2,21.4,21.2,21.8z"/>
	<g>
		<path fill="currentColor" d="M42.6,25.3c-0.2,0.4-0.3,0.8-0.6,1.1c-0.7,0.8-1.5,1.1-2.5,1.1c-0.8,0-1.6,0-2.5,0c-1.1,0-2.1-0.9-2.1-2.1c0-2,0-4,0-6.1
			c0-0.1,0-0.2,0.2-0.2c0.4,0,0.8,0,1.2,0c0.2,0,0.2,0.1,0.2,0.2c0,0.5,0,1,0,1.4c0,0.2,0,0.2,0.2,0.2c0.9,0,1.8,0,2.6,0
			c1.4,0,2.8,0.8,3.2,2.2c0,0,0,0,0,0.1c0,0,0-0.1,0.1-0.1c0.5-1.3,1.6-2.1,3-2.1c0.7,0,1.4,0,2.1,0c1.3,0.1,2.3,0.8,2.8,2
			c0,0,0,0,0.1,0.1c0.2-0.6,0.6-1.1,1.1-1.5c0.6-0.4,1.3-0.7,2-0.7c0.5,0,1.1,0,1.6,0c1.3,0,2.3,0.5,3,1.6c0,0,0,0,0.1,0.1l0,0
			c0.1-0.5,0.3-0.9,0.7-1.2c0.4-0.3,0.8-0.5,1.3-0.5c2,0,4,0,5.9,0c0.2,0,0.2-0.1,0.2-0.2c0-0.5,0-0.9,0-1.4c0-0.1,0-0.2,0.2-0.2
			c0.4,0,0.8,0,1.3,0c0.1,0,0.2,0,0.2,0.2c0,0.5,0,1,0,1.5c0,0.2,0,0.2,0.2,0.2c0.7,0,1.4,0,2.1,0c0.2,0,0.2,0,0.2,0.2
			c0,0.4,0,0.7,0,1.1c0,0.2,0,0.2-0.2,0.2c-0.7,0-1.4,0-2.1,0c-0.2,0-0.2,0-0.2,0.2c0,0.9,0,1.7,0,2.6c0,0.5,0.2,0.7,0.7,0.7
			s1.1,0,1.6,0c0.1,0,0.2,0,0.2,0.2c0,0.4,0,0.8,0,1.2c0,0.1,0,0.2-0.1,0.2c-0.7,0-1.5,0.1-2.2,0c-0.9-0.1-1.7-1-1.8-1.9
			c0-0.9,0-1.9,0-2.8c0-0.2,0-0.2-0.2-0.2c-1.9,0-3.9,0-5.8,0c-0.5,0-0.7,0.3-0.6,0.7c0.1,0.2,0.3,0.3,0.5,0.3c1,0,2.1,0,3.1,0
			c1.1,0,1.9,0.7,2.1,1.8c0.1,1.2-0.8,2.2-2,2.2c-1.6,0-3.1,0-4.7,0c-0.1,0-0.2,0-0.2-0.2c0-0.4,0-0.8,0-1.1c0-0.2,0.1-0.2,0.2-0.2
			c1.4,0,2.9,0,4.3,0c0.1,0,0.2,0,0.2,0c0.3-0.1,0.4-0.3,0.4-0.5c0-0.3-0.2-0.5-0.5-0.5c-0.5,0-1,0-1.4,0c-0.6,0-1.1,0-1.7,0
			c-0.7,0-1.2-0.2-1.7-0.7c0,0,0,0-0.1-0.1c0,0.4-0.1,0.8-0.2,1.2c-0.5,1.3-1.5,2-2.8,2.1c-0.7,0.1-1.4,0.1-2.1,0
			c-1.4-0.1-2.4-0.8-3-2.1c0,0,0,0.1-0.1,0.1c-0.6,1.3-1.6,1.9-2.9,2c-0.7,0-1.4,0-2.1,0c-1.3-0.1-2.3-0.8-2.8-2.1
			C42.7,25.5,42.7,25.4,42.6,25.3z M54.6,26.1c0.3,0,0.6,0,0.8,0c1.1,0,1.8-0.8,1.8-1.7c0-0.9-0.7-1.8-1.6-1.8c-0.6,0-1.3,0-1.9,0
			c-0.9,0-1.6,0.8-1.6,1.7c0,0.9,0.6,1.7,1.5,1.8C53.9,26.1,54.3,26.1,54.6,26.1z M46.7,26.1c0.4,0,0.8,0,1.1,0
			c0.9-0.1,1.5-0.9,1.4-1.8c0-0.9-0.7-1.6-1.6-1.6c-0.6,0-1.3,0-1.9,0c-0.8,0-1.5,0.7-1.6,1.6s0.4,1.6,1.2,1.9
			C45.8,26.1,46.2,26.1,46.7,26.1z M38.2,22.6c-0.5,0-1,0-1.5,0c-0.1,0-0.2,0-0.2,0.2c0,0.9,0,1.8,0,2.6c0,0.4,0.3,0.7,0.7,0.7
			c0.8,0,1.5,0,2.3,0c0.9,0,1.6-0.7,1.7-1.6c0-1-0.6-1.8-1.5-1.9C39.1,22.5,38.6,22.6,38.2,22.6z"/>
		<path fill="currentColor" d="M35.7,29.5c0.8-0.5,1.4-0.5,2,0.2c0.1,0.1,0.1,0,0.2,0c0.6-0.7,1.7-0.6,2.2,0.1c0.2,0.2,0.2,0.5,0.2,0.8
			c0,0.5,0,0.9,0,1.4c0,0.2-0.1,0.2-0.2,0.2s-0.3,0.1-0.3-0.2c0-0.5,0-0.9,0-1.4c0-0.6-0.4-1-0.9-1S38,30,38,30.6c0,0.5,0,0.9,0,1.4
			c0,0.2-0.1,0.2-0.2,0.2s-0.2,0-0.2-0.2c0-0.5,0-0.9,0-1.4s-0.4-1-0.9-1s-0.9,0.4-0.9,1c0,0.5,0,0.9,0,1.4c0,0.2-0.1,0.2-0.3,0.2
			c-0.1,0-0.2,0-0.2-0.2c0-0.9,0-1.7,0-2.6c0-0.2,0-0.2,0.2-0.2S35.8,29.2,35.7,29.5C35.7,29.5,35.7,29.5,35.7,29.5z"/>
		<path fill="currentColor" d="M52.5,30.9c-0.4,0-0.9,0-1.3,0c-0.2,0-0.2,0-0.1,0.2c0.2,0.3,0.4,0.5,0.8,0.6c0.3,0,0.7,0,1,0c0.2,0,0.4-0.1,0.5-0.3
			c0.1-0.1,0.4-0.2,0.5-0.1s0,0.1,0,0.2c-0.2,0.4-0.6,0.6-1.1,0.7c-0.3,0-0.7,0-1,0c-0.7-0.1-1.2-0.7-1.2-1.5c0-0.7,0.6-1.3,1.3-1.3
			c0.3,0,0.6,0,0.9,0c0.8,0.1,1.4,0.7,1.4,1.5c0,0.1,0,0.1-0.1,0.1C53.5,30.9,53,30.9,52.5,30.9z M52.3,30.5c0.4,0,0.8,0,1.1,0
			c0.1,0,0.2,0,0.1-0.2c-0.1-0.3-0.4-0.5-0.7-0.6c-0.3-0.1-0.7-0.1-1,0c-0.3,0-0.6,0.2-0.7,0.5c-0.1,0.2-0.1,0.2,0.1,0.2
			C51.6,30.5,51.9,30.5,52.3,30.5z"/>
		<path fill="currentColor" d="M44.6,29.9c0-0.5,0-0.9,0-1.4c0-0.2,0.1-0.2,0.2-0.2s0.2,0,0.2,0.2s0,0.3,0,0.5s0.1,0.2,0.2,0.2c0.4,0,0.9,0,1.3,0
			c0.8,0.1,1.4,0.7,1.4,1.4c0,0.8-0.6,1.4-1.4,1.5c-0.4,0-0.8,0-1.2,0c-0.5,0-0.8-0.4-0.8-0.9c0-0.2,0-0.5,0-0.7
			C44.6,30.4,44.6,30.2,44.6,29.9z M45.9,29.7c-0.2,0-0.5,0-0.7,0c-0.1,0-0.1,0-0.1,0.1c0,0.5,0,1,0,1.5c0,0.3,0.1,0.4,0.4,0.4
			c0.4,0,0.7,0,1.1,0c0.6,0,1-0.5,1-1.1c0-0.5-0.5-1-1.1-1C46.3,29.7,46.1,29.7,45.9,29.7z"/>
		<path fill="currentColor" d="M42.5,32.2c-0.4,0-0.7,0-1-0.1c-0.6-0.3-0.9-1-0.8-1.6s0.7-1.1,1.3-1.2c0.3,0,0.7,0,1,0c0.8,0.1,1.3,0.7,1.3,1.5
			s-0.6,1.4-1.3,1.5C42.8,32.2,42.6,32.2,42.5,32.2z M42.4,29.7L42.4,29.7c-0.1,0-0.3,0-0.4,0c-0.5,0-0.9,0.4-1,0.9
			c0,0.5,0.3,1,0.8,1.1c0.4,0.1,0.7,0.1,1.1,0c0.5-0.1,0.8-0.5,0.8-1s-0.4-0.9-0.8-1C42.8,29.7,42.6,29.7,42.4,29.7z"/>
		<path fill="currentColor" d="M50,30.3c0,0.6,0,1.1,0,1.7c0,0.2-0.1,0.2-0.2,0.2s-0.2,0-0.2-0.2c0-1.1,0-2.3,0-3.4c0-0.2,0.1-0.2,0.2-0.2
			c0.2,0,0.2,0,0.2,0.2C50,29.2,50,29.7,50,30.3z"/>
		<path fill="currentColor" d="M48.9,30.7c0,0.4,0,0.9,0,1.3c0,0.2-0.1,0.2-0.2,0.2s-0.2,0.1-0.2-0.2c0-0.9,0-1.7,0-2.6c0-0.2,0.1-0.2,0.2-0.2
			s0.2,0,0.2,0.2C48.9,29.8,48.9,30.2,48.9,30.7z"/>
		<path fill="currentColor" d="M54.2,29.4c-0.2-0.1,0.1-0.5-0.3-0.5c0.2-0.1,0.3,0,0.5-0.1c0.3,0,0.3,0.2,0.4,0.4c0.1-0.1,0.1-0.2,0.2-0.3
			c0-0.1,0.1-0.1,0.1-0.1c0.1,0,0.1,0.1,0,0.1c0,0.1,0,0.3,0,0.5c-0.1-0.1,0-0.2-0.1-0.3c0,0-0.1,0-0.1,0.1c-0.1,0.1,0,0.2-0.2,0.2
			c-0.1,0-0.1-0.2-0.2-0.2c0,0,0,0-0.1-0.1c-0.1,0.1,0,0.2-0.1,0.3c-0.1-0.1,0-0.3-0.1-0.4c0-0.1,0-0.1-0.1-0.1s-0.2,0-0.2,0.1
			C54.2,29.2,54.3,29.3,54.2,29.4z"/>
		<path fill="currentColor" d="M48.7,28.8c-0.2,0.1-0.2-0.1-0.2-0.2c0-0.2,0.1-0.2,0.3-0.2c0.2,0,0.2,0.1,0.2,0.2C48.9,28.9,48.8,28.9,48.7,28.8z"/>
	</g>
</g>
<path fill="currentColor" d="M7.8,47.5c7,0,13.9,0,20.9,0h15.2h14.8c7.2,0,14.3,0,21.5,0l0,0c0.1,0,0.2,0,0.3,0c0-0.1,0-0.1,0-0.2c0-10.9,0-21.8,0-32.7
	V4c0-2.7-1.3-4-4-4H44H11.5c-2.7,0-4,1.4-4,4v11.2c0,10.7,0,21.4,0,32.2c0,0.1,0,0.2,0,0.2C7.6,47.5,7.7,47.5,7.8,47.5 M11.6,4h64.7
	v39.4H11.6V4z"/>
<path fill="currentColor" d="M84.3,52.7h-9.4h-4.7c-5.5,0-11.1,0-16.6,0c-0.3,0-0.4,0-0.4,0s0,0-0.1,0.1c-0.6,1.3-1.8,2-3.4,2c-3.8,0-7.5,0-11.3,0
	c-1.6,0-2.8-0.7-3.4-1.9c-0.1-0.2-0.1-0.2-0.6-0.2c-7,0-14.1,0-21.1,0h-12c-0.5,0-1,0-1.3,0C0,53,0,53.5,0,54c0,2.7,1.3,4,4,4h80.6
	c2.2,0,3.6-1.4,3.7-3.7c0-0.2,0-0.3,0-0.5c0-0.4,0-0.8,0-1.2C86.8,52.7,85.6,52.7,84.3,52.7z"/>
</svg>
