<?xml version="1.0" encoding="utf-8"?>
<!-- Generator: Adobe Illustrator 21.1.0, SVG Export Plug-In . SVG Version: 6.00 Build 0)  -->
<svg version="1.1" id="Слой_1" xmlns="http://www.w3.org/2000/svg" xmlns:xlink="http://www.w3.org/1999/xlink" x="0px" y="0px"
	 viewBox="0 0 46.9 85.9" enable-background="new 0 0 46.9 85.9" xml:space="preserve">
	<path d="M40.5,0h-34C2.9,0,0,3,0,6.7v72.5c0,3.7,2.9,6.7,6.5,6.7h33.9c3.6,0,6.5-3,6.5-6.7V6.7C47,3,44.1,0,40.5,0
		z M6.5,2h33.9C43,2,45,4.1,45,6.7V11H2V6.7C2,4.1,4,2,6.5,2z M45,13.1v56.4H2V13.1H45z M40.5,84h-34C4,84,2,81.9,2,79.3v-7.8h43
		v7.8C45,81.9,43,84,40.5,84z"/>
	<path d="M24.5,81.9c-2.5,0-4.6-2.1-4.6-4.6s2.1-4.6,4.6-4.6s4.6,2.1,4.6,4.6S27,81.9,24.5,81.9z M24.5,74.8
		c-1.4,0-2.6,1.2-2.6,2.6s1.2,2.6,2.6,2.6s2.6-1.2,2.6-2.6S25.9,74.8,24.5,74.8z"/>
	<path d="M25.7,8.7h-4.3c-1.3,0-2.4-1-2.4-2.2s1.1-2.2,2.4-2.2h4.3c1.3,0,2.4,1,2.4,2.2S27,8.7,25.7,8.7z M21.3,6.3
		c-0.3,0-0.4,0.2-0.4,0.2s0.1,0.2,0.4,0.2h4.3c0.3,0,0.4-0.2,0.4-0.2s-0.1-0.2-0.4-0.2H21.3z"/>
	<path d="M12.7,8.7c-1.2,0-2.2-1-2.2-2.2s1-2.2,2.2-2.2s2.2,1,2.2,2.2S13.9,8.7,12.7,8.7z M12.7,6.3
		c-0.1,0-0.2,0.1-0.2,0.2c0,0.2,0.4,0.2,0.4,0C12.9,6.4,12.8,6.3,12.7,6.3z"/>
	<path fill="currentColor" d="M23.5,26.5L23.5,26.5L23.5,26.5z"/>
	<path fill="currentColor" d="M23.5,53.9v-0.5c3.9,0,7.5-1.5,10.2-4.3s4.2-6.4,4.2-10.3c0-8-6.5-14.4-14.4-14.4c-4,0-7.7,1.5-10.4,4.3
			c-2.7,2.7-4.2,6.5-4.2,10.3c0.1,8,6.6,14.4,14.5,14.4L23.5,53.9L23.5,53.9z M23.5,51.7L23.5,51.7c-7.1,0-12.8-5.8-12.8-12.9
			c0-7,5.7-12.8,12.8-12.8h0.1c6.9,0,12.8,5.9,12.9,12.8c0,3.4-1.3,6.6-3.7,9C30.2,50.4,26.9,51.7,23.5,51.7z"/>
	<path fill="currentColor" d="M24.6,45.2c0,0.3,0,0.6-0.1,0.9h-2.4c0-0.2,0-0.5-0.1-0.7c0-0.6,0.1-1.1-0.9-0.6c-0.6,0.3-1.4,0.1-2.2,0.1v-3.6
		c1.2,0,2.3-0.3,3.3,0.7c0.7,0.7,1.7,0.8,2.6,0.5c0.3-0.1,0.7-0.5,0.8-0.8c0.1-0.3-0.2-0.8-0.5-0.9c-0.7-0.3-1.4-0.5-2.1-0.7
		c-0.9-0.3-1.8-0.5-2.6-1c-1.3-0.7-1.8-1.9-1.7-3.3c0.2-1.4,1-2.3,2.2-2.8c0.3-0.1,0.6-0.2,1-0.3c0-0.3,0.1-0.7,0.1-1h2.4
		c0,0.3-0.1,0.7,0.1,0.9s0.6,0.5,0.8,0.5c0.8,0,1.6-0.2,2.5-0.4v3.7c-1.2,0-2.2,0.3-3.3-0.6c-0.5-0.5-1.6-0.5-2.4-0.5
		c-0.3,0-0.8,0.5-0.9,0.8s0.3,0.9,0.6,1.1c0.7,0.3,1.5,0.4,2.2,0.7c0.9,0.3,1.8,0.6,2.6,1.1c1.2,0.8,1.7,1.9,1.5,3.3
		c-0.2,1.4-1.2,2.3-2.5,2.7C25.4,45.1,25,45.1,24.6,45.2"/>
</svg>
