<?xml version="1.0" encoding="utf-8"?>
<!-- Generator: Adobe Illustrator 21.1.0, SVG Export Plug-In . SVG Version: 6.00 Build 0)  -->
<svg version="1.1" id="Слой_1" xmlns="http://www.w3.org/2000/svg" xmlns:xlink="http://www.w3.org/1999/xlink" x="0px" y="0px"
	 viewBox="0 0 70 80.2" enable-background="new 0 0 70 80.2" xml:space="preserve">
<g>
	<path d="M66.3,10.3L41.2,0.4c-2.7-1.1-5.7,0.3-6.8,3.1L13.3,57.1c-1.1,2.7,0.2,5.8,2.9,6.9l25.1,9.9
		c2.7,1.1,5.7-0.3,6.8-3.1l1-2.6c-0.4-0.4-0.9-0.8-1.4-1.1l-1.3,3.2c-0.7,1.9-2.8,2.9-4.7,2.2l-25.1-9.9c-1.8-0.7-2.7-2.9-2-4.8
		l2.3-5.8l30,11.8c0-0.6,0.1-1.1,0.1-1.7L17.7,50.4L34.1,8.7l31.8,12.6l-4.1,10.3l0,0.1c0.6,0,1.2,0,1.8,0l0.1-0.3l5.6-14.2
		C70.3,14.4,69,11.4,66.3,10.3z M67.8,16.6l-1.3,3.2L34.7,7.3L36,4.1c0.7-2,2.8-2.9,4.7-2.2l25.1,9.9C67.6,12.5,68.5,14.7,67.8,16.6
		z"/>
	<path d="M30.6,66.2c-1.9-0.7-2.8-2.9-2.1-4.7c0.7-1.9,2.9-2.8,4.7-2.1c1.9,0.7,2.8,2.9,2.1,4.7
		C34.6,66,32.5,66.9,30.6,66.2z M32.7,60.9c-1.1-0.4-2.3,0.1-2.7,1.2c-0.4,1.1,0.1,2.3,1.2,2.7s2.3-0.1,2.7-1.2
		C34.3,62.5,33.8,61.3,32.7,60.9z"/>
	<path d="M52.9,12.4l-3.2-1.3c-1-0.4-1.5-1.4-1.2-2.3c0.4-0.9,1.4-1.3,2.4-0.9l3.2,1.3c1,0.4,1.5,1.4,1.2,2.3
		C54.9,12.4,53.8,12.8,52.9,12.4z M50.4,9.4c-0.2-0.1-0.4,0-0.4,0s0.1,0.2,0.3,0.3l3.2,1.3c0.2,0.1,0.4,0,0.4,0s-0.1-0.2-0.3-0.3
		L50.4,9.4z"/>
	<path d="M43.3,8.6c-0.9-0.4-1.3-1.4-1-2.3c0.4-0.9,1.4-1.3,2.3-1c0.9,0.4,1.3,1.4,1,2.3C45.2,8.6,44.2,9,43.3,8.6z
		 M44,6.9c-0.1,0-0.2,0-0.2,0.1c-0.1,0.2,0.2,0.3,0.3,0.1C44.1,7,44.1,6.9,44,6.9z"/>
</g>
<path fill="currentColor" d="M16.4,80.2L16.4,80.2c-1.9,0-3.8-0.8-5.9-2.5c-4.9-4-8.3-9-10-14.9c-1.2-4-0.4-5.7,3.6-7.2c3.5-1.3,4.2-2.5,3.6-5.9
	C7,45.2,8.6,41.3,10.1,38c2.2-4.9,4.6-10.7,5.4-17c0.4-3,1.5-4.2,4.2-4.4c2-0.2,4.2,1.3,5.1,3.4c0.8,1.9,1.2,3.9,1,6.1l1-0.9
	l-1.5,3.9L13.9,58.9l0,0l-0.1,0.8c-0.5,1.8,0,2.8,1.9,3.5c5.7,2.3,11.3,4.5,17,6.7L43,74l-2.1,1c-3.3,1.6-6.2,2.5-9.1,2.7
	c-1.4,0.1-2.9,0.1-4.3,0.2c-0.7,0-1.3,0-2,0c-2.3,0.1-4.2,0.5-5.9,1.5C18.7,79.9,17.5,80.2,16.4,80.2z M20.1,18.5L20.1,18.5
	c-1.7,0.1-2.2,0.4-2.5,2.7c-0.8,6.5-3.2,12.6-5.5,17.6c-1.4,3.1-2.8,6.7-2.2,10.6c0.6,4.4-0.5,6.4-4.9,8.1c-3,1.2-3.3,1.7-2.4,4.8
	c1.6,5.5,4.8,10.2,9.4,13.9c1.7,1.4,3.2,2.1,4.6,2.1l0,0c0.8,0,1.6-0.2,2.4-0.6c2-1.1,4.2-1.6,6.8-1.7c0.7,0,1.4,0,2,0
	c1.4,0,2.8-0.1,4.2-0.2c2-0.1,4-0.6,6.2-1.5l-6.1-2.4c-5.7-2.2-11.3-4.5-17-6.7c-2.5-1-3.6-2.7-3.2-5.1L11.7,60l11.8-30.8l0.1-0.5
	c0.8-3,0.7-5.5-0.3-7.8C22.4,19.4,21,18.5,20.1,18.5z"/>
<path fill="currentColor" d="M52.3,68.9L52.3,68.9c-4.1,0-5.2-2.5-5.4-3.3c-0.6-2.5,0.2-4.5,2.4-6c0.8-0.5,1.1-1.2,0.9-2.2c-0.7-3-0.1-4.6,2.6-6.5
	c1-0.7,1-1.4,0.7-2.1c-1.2-3.1-0.2-5.5,2.7-7c0.5-0.3,0.8-0.5,0.9-0.8s-0.1-0.7-0.2-0.9c-0.8-1.5-1-3.2-0.4-4.6
	c0.5-1.4,1.7-2.4,3.3-2.9c0.2-0.1,0.3-0.1,0.4-0.2c0.4-0.3,0.7-0.6,1.7-0.8h0.2l1.5-0.2h0.1c4.8,0,6,2.6,6.2,4.1
	c0.6,3.3-1.1,4.7-4.8,6.3c1.4,1.2,1.9,2.7,1.7,4.4c-0.4,3.1-2.4,4.2-4.7,4.8c1.1,1.1,2,2.8,1.3,5.2c-0.7,2.3-2.4,3.2-4.2,3.7
	c1.4,1.9,1.5,3.5,1.2,4.6c-0.5,1.8-2.1,3.2-4.7,4c0,0-0.1,0-0.1,0.1h-0.1C54.2,68.8,53.2,68.9,52.3,68.9z M62.3,33.5
	c-0.6,0.2-0.7,0.3-0.9,0.5c-0.2,0.2-0.5,0.4-1,0.6c-1,0.3-1.7,1-2,1.8c-0.3,0.9-0.2,1.9,0.3,2.9c0.5,0.9,0.6,1.7,0.4,2.5
	c-0.3,0.8-0.9,1.4-1.9,1.9c-2,1-2.6,2.4-1.8,4.5c0.7,1.7,0.2,3.3-1.5,4.5c-2,1.4-2.3,2.1-1.8,4.4c0.4,1.8-0.2,3.3-1.7,4.3
	s-2,2.2-1.6,3.8c0.2,0.5,0.9,1.8,3.5,1.8l0,0c0.7,0,1.6-0.1,2.5-0.3l0,0c0,0,0.1,0,0.1-0.1c1.9-0.6,3.1-1.5,3.4-2.6
	c0.3-1.1-0.4-2.5-1.8-4l-1.3-1.3l2-0.5c2.2-0.5,3.6-0.9,4.1-2.6s-0.1-2.9-2.2-4.3l-2-1.3l2.6-0.6c2.9-0.7,4.6-1.1,4.9-3.5
	c0.2-1.4-0.5-2.5-2.3-3.5l-1.8-1l2-0.8c5.6-2.1,5.6-3,5.3-4.8c-0.3-1.6-1.7-2.4-4.2-2.5L62.3,33.5z"/>
</svg>
