<?xml version="1.0" encoding="utf-8"?>
<!-- Generator: Adobe Illustrator 17.1.0, SVG Export Plug-In . SVG Version: 6.00 Build 0)  -->
<!DOCTYPE svg PUBLIC "-//W3C//DTD SVG 1.1//EN" "http://www.w3.org/Graphics/SVG/1.1/DTD/svg11.dtd">
<svg version="1.1" id="Слой_1" xmlns="http://www.w3.org/2000/svg" xmlns:xlink="http://www.w3.org/1999/xlink" x="0px" y="0px"
	 viewBox="0 0 70 70" enable-background="new 0 0 70 70" xml:space="preserve">
<path fill="#52AC62" d="M61.5,1c-0.1,0.2,0.2,0.3,0.3,0.5c2.7,3.4,5.4,6.8,8.1,10.2c0.3,0.3,0.2,0.5,0,0.8
	C55,31.2,40.3,49.9,25.5,68.6c-0.5,0.6-0.5,0.6-1,0c-8-9.1-16-18.2-24-27.3c-0.2-0.2-0.3-0.5-0.6-0.5c0-0.1,0-0.2,0-0.2
	c0.4-0.2,0.6-0.6,0.8-0.9c3-3.7,5.9-7.5,8.9-11.2c0.1-0.1,0.2-0.2,0.3-0.4c5,6.3,10,12.7,15,19c3-3.7,5.9-7.4,8.8-11.1
	c9-11.4,18.1-22.9,27.1-34.3c0.1-0.2,0.4-0.3,0.3-0.5C61.3,1,61.4,1,61.5,1z"/>
</svg>
