<?xml version="1.0" encoding="utf-8"?>
<!-- Generator: Adobe Illustrator 21.1.0, SVG Export Plug-In . SVG Version: 6.00 Build 0)  -->
<svg version="1.1" id="Слой_1" xmlns="http://www.w3.org/2000/svg" xmlns:xlink="http://www.w3.org/1999/xlink" x="0px" y="0px"
	 viewBox="0 0 46.9 85.9" enable-background="new 0 0 46.9 85.9" xml:space="preserve">
	<path d="M40.5,0h-34C2.9,0,0,3,0,6.7v72.5c0,3.7,2.9,6.7,6.5,6.7h33.9c3.6,0,6.5-3,6.5-6.7V6.8C47,3.1,44.1,0,40.5,0z M6.5,2h33.9c2.5,0,4.5,2.1,4.5,4.7V11H2V6.8C2,4.2,4,2,6.5,2z M45,13.1v56.4H2V13.1H45z M40.5,84h-34C4,84,2,81.9,2,79.3v-7.8h43v7.8C45,81.9,43,84,40.5,84z"/>
	<path d="M24.5,82c-2.5,0-4.6-2.1-4.6-4.6s2.1-4.6,4.6-4.6s4.6,2.1,4.6,4.6S27,82,24.5,82z M24.5,74.8c-1.4,0-2.6,1.2-2.6,2.6s1.2,2.6,2.6,2.6s2.5-1.2,2.5-2.6S25.9,74.8,24.5,74.8z"/>
	<path d="M25.7,8.7h-4.3c-1.3,0-2.4-1-2.4-2.2s1.1-2.2,2.4-2.2h4.3c1.3,0,2.4,1,2.4,2.2S27,8.7,25.7,8.7z M21.3,6.3c-0.3,0-0.4,0.2-0.4,0.2s0.1,0.2,0.4,0.2h4.3c0.3,0,0.4-0.2,0.4-0.2s-0.1-0.2-0.4-0.2H21.3z"/>
	<path d="M12.7,8.7c-1.2,0-2.2-1-2.2-2.2s1-2.2,2.2-2.2s2.2,1,2.2,2.2S13.9,8.7,12.7,8.7z M12.7,6.3c-0.1,0-0.2,0.1-0.2,0.2c0,0.2,0.4,0.2,0.4,0C12.9,6.4,12.8,6.3,12.7,6.3z"/>
	<path d="M34,59.4H12.9c-4.1,0-7.5-3.4-7.5-7.5V30.8c0-4.1,3.4-7.5,7.5-7.5H34c4.1,0,7.5,3.4,7.5,7.5v21.1C41.5,56,38.1,59.4,34,59.4z M12.9,24.3c-3.6,0-6.5,2.9-6.5,6.5v21.1c0,3.6,2.9,6.5,6.5,6.5H34c3.6,0,6.5-2.9,6.5-6.5V30.8c0-3.6-2.9-6.5-6.5-6.5H12.9z"/>
	<g fill="#2C478A" data-clear="not">
		<path d="M19.2,54.1c0-0.8,0-1.6,0-2.3c0-0.6,0.3-0.9,0.9-0.9c0.5,0,1-0.1,1.5,0c1,0.2,1.7,1.1,1.6,2.1s-0.9,1.8-2,1.8l0,0c-0.7,0-0.7,0-0.7-0.7c0-0.1,0.1-0.2,0.2-0.2c0.2,0,0.3,0,0.5,0c0.6,0,1.1-0.5,1.1-1.1s-0.4-1.1-1.1-1.1c-0.3,0-0.6,0-0.9,0c-0.2,0-0.3,0.1-0.3,0.3c0,1.4,0,2.9,0,4.3c0,0.4,0,0.4-0.4,0.4c-0.5,0-0.5,0-0.5-0.5C19.2,55.6,19.2,54.9,19.2,54.1z"/>
		<path d="M17.1,53.2c-0.4,0-0.8,0-1.2,0c-0.2,0-0.3-0.1-0.2-0.2c0-0.1,0-0.2,0-0.2c0-0.2,0.1-0.2,0.2-0.2c0.5,0,1,0,1.5,0c0.2,0,0.3,0,0.2-0.3c-0.3-0.5-0.8-0.8-1.3-0.7c-0.5,0.1-1,0.6-1,1.1c0,0.6,0.3,1.1,0.8,1.3c0.2,0.1,0.5,0.1,0.8,0.1c0.6,0,1.2,0,1.7,0c0.2,0,0.2,0.1,0.2,0.2c0,0.6,0,0.6-0.6,0.6s-1.2,0-1.8,0c-1.1,0-2-0.9-2-1.9c-0.1-1.1,0.7-2,1.8-2.2c1.1-0.2,2.1,0.5,2.3,1.6v0.1c0.1,0.7,0.1,0.8-0.6,0.8C17.7,53.2,17.4,53.2,17.1,53.2z"/>
		<path d="M27.6,53.2c0,0.5,0,1,0,1.5c0,0.2,0,0.3-0.2,0.3c-0.7,0-0.7,0-0.7-0.7s0-1.4,0-2.2c0-0.2-0.1-0.3-0.3-0.3c-0.3,0-0.5,0-0.8,0c-0.6,0-1.1,0.5-1.1,1.1S25,54,25.6,54c0,0,0,0,0.1,0c0.7,0,0.7,0.1,0.6,0.7c0,0.1-0.1,0.2-0.2,0.2c-0.5,0-0.9,0-1.4-0.2c-1.2-0.6-1.4-1.9-0.8-2.8c0.4-0.6,0.9-0.9,1.7-1c0.4,0,0.8,0,1.2,0c0.5,0,0.8,0.3,0.8,0.8C27.6,52.2,27.6,52.7,27.6,53.2z"/>
		<path d="M31.2,53.1c0-0.6,0-1.2,0-1.8c0-0.2,0-0.3,0.2-0.3c0.7,0,0.7,0,0.7,0.7c0,1,0,2.1,0,3.1c0,1.3-1.1,2.3-2.2,2.2c-0.4,0-0.9,0-1.3,0c-0.2,0-0.2,0-0.2-0.2c0-0.7,0-0.7,0.7-0.7c0.3,0,0.6,0,0.9,0c0.7,0,1.2-0.5,1.2-1.2C31.2,54.3,31.2,53.7,31.2,53.1z"/>
		<path d="M29,52.1c0,0.3,0,0.5,0,0.8c0,0.6,0.5,1.1,1.1,1.1h0.1c0.2,0,0.5-0.1,0.5,0.1c0.1,0.2,0,0.5,0,0.7c0,0.1,0,0.1-0.1,0.1c-0.9,0.2-2-0.3-2.4-1.2C28.1,53.5,28,53.2,28,53c0-0.6,0-1.2,0-1.8c0-0.2,0.1-0.2,0.2-0.2c0.7,0,0.7,0,0.7,0.6C29,51.8,29,52,29,52.1z"/>
	</g>
	<g data-clear="not">
		<defs data-clear="not">
			<path data-clear="not" id="SVGID_1_" d="M34.8,36.7c-0.1-0.3-0.3-0.6-0.6-0.9c-1-1-2-2-3-3l0,0L31,32.6c-0.4-0.4-0.8-0.8-1.2-1.1
				c-1.7-1.7-3.4-3.4-5.1-5.1c-0.9-0.9-2.2-0.9-3.1,0c-0.3,0.3-0.5,0.5-0.8,0.8c-2.9,2.9-5.8,5.8-8.7,8.7c-0.9,0.9-0.9,2.3-0.1,3.1
				c1.7,1.7,3.5,3.5,5.2,5.2c1.4,1.5,2.9,2.9,4.3,4.4c0.9,0.9,2.2,0.9,3,0c1.2-1.1,2.2-2.2,3.4-3.3l0.1-0.1l0,0
				c2-2,4.1-4.1,6.1-6.1C34.9,38.3,35.1,37.6,34.8,36.7z"/>
		</defs>
		<clipPath data-clear="not" id="SVGID_2_">
			<use data-clear="not" xlink:href="#SVGID_1_"  overflow="visible"/>
		</clipPath>
		<polygon data-clear="not" clip-path="url(#SVGID_2_)" fill="#2C478A" points="26.7,25.5 30.3,29.1 14.8,44.7 11.2,41.1 11.2,25.5"/>
		
			<rect data-clear="not" x="11.5" y="36.9" transform="matrix(0.7071 -0.7071 0.7071 0.7071 -19.4845 26.7457)" clip-path="url(#SVGID_2_)" fill="#2C478A" width="22" height="0"/>
		
			<rect data-clear="not" x="11.5" y="36.9" transform="matrix(0.7071 -0.7071 0.7071 0.7071 -19.4872 26.7523)" clip-path="url(#SVGID_2_)" fill="#2D4789" width="22" height="0"/>
		
			<rect data-clear="not" x="11.5" y="36.9" transform="matrix(0.7071 -0.7071 0.7071 0.7071 -19.49 26.759)" clip-path="url(#SVGID_2_)" fill="#2E4789" width="22" height="0"/>
		
			<rect data-clear="not" x="11.5" y="36.9" transform="matrix(0.7071 -0.7071 0.7071 0.7071 -19.4927 26.7657)" clip-path="url(#SVGID_2_)" fill="#2F4788" width="22" height="0"/>
		
			<rect data-clear="not" x="11.6" y="36.9" transform="matrix(0.7071 -0.7071 0.7071 0.7071 -19.4955 26.7723)" clip-path="url(#SVGID_2_)" fill="#304788" width="22" height="0"/>
		
			<rect data-clear="not" x="11.6" y="36.9" transform="matrix(0.7071 -0.7071 0.7071 0.7071 -19.4982 26.779)" clip-path="url(#SVGID_2_)" fill="#314787" width="22" height="0"/>
		
			<rect data-clear="not" x="11.6" y="36.9" transform="matrix(0.7071 -0.7071 0.7071 0.7071 -19.501 26.7856)" clip-path="url(#SVGID_2_)" fill="#324787" width="22" height="0"/>
		
			<rect data-clear="not" x="11.6" y="36.9" transform="matrix(0.7071 -0.7071 0.7071 0.7071 -19.5038 26.7923)" clip-path="url(#SVGID_2_)" fill="#334786" width="22" height="0"/>
		
			<rect data-clear="not" x="11.6" y="36.9" transform="matrix(0.7071 -0.7071 0.7071 0.7071 -19.5065 26.799)" clip-path="url(#SVGID_2_)" fill="#344786" width="22" height="0"/>
		
			<rect data-clear="not" x="11.6" y="36.9" transform="matrix(0.7071 -0.7071 0.7071 0.7071 -19.5093 26.8056)" clip-path="url(#SVGID_2_)" fill="#354785" width="22" height="0"/>
		
			<rect data-clear="not" x="11.6" y="37" transform="matrix(0.7071 -0.7071 0.7071 0.7071 -19.512 26.8123)" clip-path="url(#SVGID_2_)" fill="#364885" width="22" height="0"/>
		
			<rect data-clear="not" x="11.6" y="37" transform="matrix(0.7071 -0.7071 0.7071 0.7071 -19.5148 26.8189)" clip-path="url(#SVGID_2_)" fill="#374884" width="22" height="0"/>
		
			<rect data-clear="not" x="11.6" y="37" transform="matrix(0.7071 -0.7071 0.7071 0.7071 -19.5176 26.8256)" clip-path="url(#SVGID_2_)" fill="#384884" width="22" height="0"/>
		
			<rect data-clear="not" x="11.6" y="37" transform="matrix(0.7071 -0.7071 0.7071 0.7071 -19.5203 26.8323)" clip-path="url(#SVGID_2_)" fill="#394883" width="22" height="0"/>
		
			<rect data-clear="not" x="11.6" y="37" transform="matrix(0.7071 -0.7071 0.7071 0.7071 -19.5231 26.8389)" clip-path="url(#SVGID_2_)" fill="#3A4882" width="22" height="0"/>
		
			<rect data-clear="not" x="11.6" y="37" transform="matrix(0.7071 -0.7071 0.7071 0.7071 -19.5258 26.8456)" clip-path="url(#SVGID_2_)" fill="#3B4882" width="22" height="0"/>
		
			<rect data-clear="not" x="11.6" y="37" transform="matrix(0.7071 -0.7071 0.7071 0.7071 -19.5286 26.8522)" clip-path="url(#SVGID_2_)" fill="#3C4881" width="22" height="0"/>
		
			<rect data-clear="not" x="11.6" y="37" transform="matrix(0.7071 -0.7071 0.7071 0.7071 -19.5313 26.8589)" clip-path="url(#SVGID_2_)" fill="#3D4881" width="22" height="0"/>
		
			<rect data-clear="not" x="11.6" y="37" transform="matrix(0.7071 -0.7071 0.7071 0.7071 -19.5341 26.8656)" clip-path="url(#SVGID_2_)" fill="#3E4880" width="22" height="0"/>
		
			<rect data-clear="not" x="11.7" y="37" transform="matrix(0.7071 -0.7071 0.7071 0.7071 -19.5369 26.8722)" clip-path="url(#SVGID_2_)" fill="#3F4880" width="22" height="0"/>
		
			<rect data-clear="not" x="11.7" y="37" transform="matrix(0.7071 -0.7071 0.7071 0.7071 -19.5396 26.8789)" clip-path="url(#SVGID_2_)" fill="#40487F" width="22" height="0"/>
		
			<rect data-clear="not" x="11.7" y="37" transform="matrix(0.7071 -0.7071 0.7071 0.7071 -19.5424 26.8855)" clip-path="url(#SVGID_2_)" fill="#41487F" width="22" height="0"/>
		
			<rect data-clear="not" x="11.7" y="37" transform="matrix(0.7071 -0.7071 0.7071 0.7071 -19.5451 26.8922)" clip-path="url(#SVGID_2_)" fill="#42487E" width="22" height="0"/>
		
			<rect data-clear="not" x="11.7" y="37" transform="matrix(0.7071 -0.7071 0.7071 0.7071 -19.5479 26.8989)" clip-path="url(#SVGID_2_)" fill="#43487E" width="22" height="0"/>
		
			<rect data-clear="not" x="11.7" y="37" transform="matrix(0.7071 -0.7071 0.7071 0.7071 -19.5507 26.9055)" clip-path="url(#SVGID_2_)" fill="#44487D" width="22" height="0"/>
		
			<rect data-clear="not" x="11.7" y="37.1" transform="matrix(0.7071 -0.7071 0.7071 0.7071 -19.5534 26.9122)" clip-path="url(#SVGID_2_)" fill="#45487D" width="22" height="0"/>
		
			<rect data-clear="not" x="11.7" y="37.1" transform="matrix(0.7071 -0.7071 0.7071 0.7071 -19.5562 26.9188)" clip-path="url(#SVGID_2_)" fill="#46487C" width="22" height="0"/>
		
			<rect data-clear="not" x="11.7" y="37.1" transform="matrix(0.7071 -0.7071 0.7071 0.7071 -19.5589 26.9255)" clip-path="url(#SVGID_2_)" fill="#47487B" width="22" height="0"/>
		
			<rect data-clear="not" x="11.7" y="37.1" transform="matrix(0.7071 -0.7071 0.7071 0.7071 -19.5617 26.9322)" clip-path="url(#SVGID_2_)" fill="#48487B" width="22" height="0"/>
		
			<rect data-clear="not" x="11.7" y="37.1" transform="matrix(0.7071 -0.7071 0.7071 0.7071 -19.5645 26.9388)" clip-path="url(#SVGID_2_)" fill="#49497A" width="22" height="0"/>
		
			<rect data-clear="not" x="11.7" y="37.1" transform="matrix(0.7071 -0.7071 0.7071 0.7071 -19.5672 26.9455)" clip-path="url(#SVGID_2_)" fill="#4A497A" width="22" height="0"/>
		
			<rect data-clear="not" x="11.7" y="37.1" transform="matrix(0.7071 -0.7071 0.7071 0.7071 -19.57 26.9521)" clip-path="url(#SVGID_2_)" fill="#4B4979" width="22" height="0"/>
		
			<rect data-clear="not" x="11.7" y="37.1" transform="matrix(0.7071 -0.7071 0.7071 0.7071 -19.5727 26.9588)" clip-path="url(#SVGID_2_)" fill="#4C4979" width="22" height="0"/>
		
			<rect data-clear="not" x="11.7" y="37.1" transform="matrix(0.7071 -0.7071 0.7071 0.7071 -19.5755 26.9655)" clip-path="url(#SVGID_2_)" fill="#4D4978" width="22" height="0"/>
		
			<rect data-clear="not" x="11.8" y="37.1" transform="matrix(0.7071 -0.7071 0.7071 0.7071 -19.5782 26.9721)" clip-path="url(#SVGID_2_)" fill="#4E4978" width="22" height="0"/>
		
			<rect data-clear="not" x="11.8" y="37.1" transform="matrix(0.7071 -0.7071 0.7071 0.7071 -19.581 26.9788)" clip-path="url(#SVGID_2_)" fill="#4F4977" width="22" height="0"/>
		
			<rect data-clear="not" x="11.8" y="37.1" transform="matrix(0.7071 -0.7071 0.7071 0.7071 -19.5838 26.9854)" clip-path="url(#SVGID_2_)" fill="#504977" width="22" height="0"/>
		
			<rect data-clear="not" x="11.8" y="37.1" transform="matrix(0.7071 -0.7071 0.7071 0.7071 -19.5865 26.9921)" clip-path="url(#SVGID_2_)" fill="#514976" width="22" height="0"/>
		
			<rect data-clear="not" x="11.8" y="37.1" transform="matrix(0.7071 -0.7071 0.7071 0.7071 -19.5893 26.9988)" clip-path="url(#SVGID_2_)" fill="#524976" width="22" height="0"/>
		
			<rect data-clear="not" x="11.8" y="37.1" transform="matrix(0.7071 -0.7071 0.7071 0.7071 -19.592 27.0054)" clip-path="url(#SVGID_2_)" fill="#534975" width="22" height="0"/>
		
			<rect data-clear="not" x="11.8" y="37.2" transform="matrix(0.7071 -0.7071 0.7071 0.7071 -19.5948 27.0121)" clip-path="url(#SVGID_2_)" fill="#544975" width="22" height="0"/>
		
			<rect data-clear="not" x="11.8" y="37.2" transform="matrix(0.7071 -0.7071 0.7071 0.7071 -19.5976 27.0187)" clip-path="url(#SVGID_2_)" fill="#554974" width="22" height="0"/>
		
			<rect data-clear="not" x="11.8" y="37.2" transform="matrix(0.7071 -0.7071 0.7071 0.7071 -19.6003 27.0254)" clip-path="url(#SVGID_2_)" fill="#564973" width="22" height="0"/>
		
			<rect data-clear="not" x="11.8" y="37.2" transform="matrix(0.7071 -0.7071 0.7071 0.7071 -19.6031 27.0321)" clip-path="url(#SVGID_2_)" fill="#574973" width="22" height="0"/>
		
			<rect data-clear="not" x="11.8" y="37.2" transform="matrix(0.7071 -0.7071 0.7071 0.7071 -19.6058 27.0387)" clip-path="url(#SVGID_2_)" fill="#584972" width="22" height="0"/>
		
			<rect data-clear="not" x="11.8" y="37.2" transform="matrix(0.7071 -0.7071 0.7071 0.7071 -19.6086 27.0454)" clip-path="url(#SVGID_2_)" fill="#594972" width="22" height="0"/>
		
			<rect data-clear="not" x="11.8" y="37.2" transform="matrix(0.7071 -0.7071 0.7071 0.7071 -19.6114 27.052)" clip-path="url(#SVGID_2_)" fill="#5A4971" width="22" height="0"/>
		
			<rect data-clear="not" x="11.8" y="37.2" transform="matrix(0.7071 -0.7071 0.7071 0.7071 -19.6141 27.0587)" clip-path="url(#SVGID_2_)" fill="#5B4A71" width="22" height="0"/>
		
			<rect data-clear="not" x="11.8" y="37.2" transform="matrix(0.7071 -0.7071 0.7071 0.7071 -19.6169 27.0654)" clip-path="url(#SVGID_2_)" fill="#5C4A70" width="22" height="0"/>
		
			<rect data-clear="not" x="11.9" y="37.2" transform="matrix(0.7071 -0.7071 0.7071 0.7071 -19.6196 27.072)" clip-path="url(#SVGID_2_)" fill="#5D4A70" width="22" height="0"/>
		
			<rect data-clear="not" x="11.9" y="37.2" transform="matrix(0.7071 -0.7071 0.7071 0.7071 -19.6224 27.0787)" clip-path="url(#SVGID_2_)" fill="#5E4A6F" width="22" height="0"/>
		
			<rect data-clear="not" x="11.9" y="37.2" transform="matrix(0.7071 -0.7071 0.7071 0.7071 -19.6251 27.0853)" clip-path="url(#SVGID_2_)" fill="#5F4A6F" width="22" height="0"/>
		
			<rect data-clear="not" x="11.9" y="37.2" transform="matrix(0.7071 -0.7071 0.7071 0.7071 -19.6279 27.092)" clip-path="url(#SVGID_2_)" fill="#604A6E" width="22" height="0"/>
		
			<rect data-clear="not" x="11.9" y="37.2" transform="matrix(0.7071 -0.7071 0.7071 0.7071 -19.6307 27.0987)" clip-path="url(#SVGID_2_)" fill="#614A6E" width="22" height="0"/>
		
			<rect data-clear="not" x="11.9" y="37.2" transform="matrix(0.7071 -0.7071 0.7071 0.7071 -19.6334 27.1053)" clip-path="url(#SVGID_2_)" fill="#624A6D" width="22" height="0"/>
		
			<rect data-clear="not" x="11.9" y="37.3" transform="matrix(0.7071 -0.7071 0.7071 0.7071 -19.6362 27.112)" clip-path="url(#SVGID_2_)" fill="#634A6C" width="22" height="0"/>
		
			<rect data-clear="not" x="11.9" y="37.3" transform="matrix(0.7071 -0.7071 0.7071 0.7071 -19.6389 27.1186)" clip-path="url(#SVGID_2_)" fill="#644A6C" width="22" height="0"/>
		
			<rect data-clear="not" x="11.9" y="37.3" transform="matrix(0.7071 -0.7071 0.7071 0.7071 -19.6417 27.1253)" clip-path="url(#SVGID_2_)" fill="#654A6B" width="22" height="0"/>
		
			<rect data-clear="not" x="11.9" y="37.3" transform="matrix(0.7071 -0.7071 0.7071 0.7071 -19.6445 27.132)" clip-path="url(#SVGID_2_)" fill="#664A6B" width="22" height="0"/>
		
			<rect data-clear="not" x="11.9" y="37.3" transform="matrix(0.7071 -0.7071 0.7071 0.7071 -19.6472 27.1386)" clip-path="url(#SVGID_2_)" fill="#674A6A" width="22" height="0"/>
		
			<rect data-clear="not" x="11.9" y="37.3" transform="matrix(0.7071 -0.7071 0.7071 0.7071 -19.65 27.1453)" clip-path="url(#SVGID_2_)" fill="#684A6A" width="22" height="0"/>
		
			<rect data-clear="not" x="11.9" y="37.3" transform="matrix(0.7071 -0.7071 0.7071 0.7071 -19.6527 27.1519)" clip-path="url(#SVGID_2_)" fill="#694A69" width="22" height="0"/>
		
			<rect data-clear="not" x="11.9" y="37.3" transform="matrix(0.7071 -0.7071 0.7071 0.7071 -19.6555 27.1586)" clip-path="url(#SVGID_2_)" fill="#6A4A69" width="22" height="0"/>
		
			<rect data-clear="not" x="11.9" y="37.3" transform="matrix(0.7071 -0.7071 0.7071 0.7071 -19.6582 27.1653)" clip-path="url(#SVGID_2_)" fill="#6B4A68" width="22" height="0"/>
		
			<rect data-clear="not" x="12" y="37.3" transform="matrix(0.7071 -0.7071 0.7071 0.7071 -19.661 27.1719)" clip-path="url(#SVGID_2_)" fill="#6C4A68" width="22" height="0"/>
		
			<rect data-clear="not" x="12" y="37.3" transform="matrix(0.7071 -0.7071 0.7071 0.7071 -19.6638 27.1786)" clip-path="url(#SVGID_2_)" fill="#6D4A67" width="22" height="0"/>
		
			<rect data-clear="not" x="12" y="37.3" transform="matrix(0.7071 -0.7071 0.7071 0.7071 -19.6665 27.1852)" clip-path="url(#SVGID_2_)" fill="#6E4B67" width="22" height="0"/>
		
			<rect data-clear="not" x="12" y="37.3" transform="matrix(0.7071 -0.7071 0.7071 0.7071 -19.6693 27.1919)" clip-path="url(#SVGID_2_)" fill="#6F4B66" width="22" height="0"/>
		
			<rect data-clear="not" x="12" y="37.3" transform="matrix(0.7071 -0.7071 0.7071 0.7071 -19.672 27.1986)" clip-path="url(#SVGID_2_)" fill="#704B65" width="22" height="0"/>
		
			<rect data-clear="not" x="12" y="37.3" transform="matrix(0.7071 -0.7071 0.7071 0.7071 -19.6748 27.2052)" clip-path="url(#SVGID_2_)" fill="#714B65" width="22" height="0"/>
		
			<rect data-clear="not" x="12" y="37.4" transform="matrix(0.7071 -0.7071 0.7071 0.7071 -19.6776 27.2119)" clip-path="url(#SVGID_2_)" fill="#724B64" width="22" height="0"/>
		
			<rect data-clear="not" x="12" y="37.4" transform="matrix(0.7071 -0.7071 0.7071 0.7071 -19.6803 27.2185)" clip-path="url(#SVGID_2_)" fill="#734B64" width="22" height="0"/>
		
			<rect data-clear="not" x="12" y="37.4" transform="matrix(0.7071 -0.7071 0.7071 0.7071 -19.6831 27.2252)" clip-path="url(#SVGID_2_)" fill="#744B63" width="22" height="0"/>
		
			<rect data-clear="not" x="12" y="37.4" transform="matrix(0.7071 -0.7071 0.7071 0.7071 -19.6858 27.2319)" clip-path="url(#SVGID_2_)" fill="#754B63" width="22" height="0"/>
		
			<rect data-clear="not" x="12" y="37.4" transform="matrix(0.7071 -0.7071 0.7071 0.7071 -19.6886 27.2385)" clip-path="url(#SVGID_2_)" fill="#764B62" width="22" height="0"/>
		
			<rect data-clear="not" x="12" y="37.4" transform="matrix(0.7071 -0.7071 0.7071 0.7071 -19.6914 27.2452)" clip-path="url(#SVGID_2_)" fill="#774B62" width="22" height="0"/>
		
			<rect data-clear="not" x="12" y="37.4" transform="matrix(0.7071 -0.7071 0.7071 0.7071 -19.6941 27.2518)" clip-path="url(#SVGID_2_)" fill="#784B61" width="22" height="0"/>
		
			<rect data-clear="not" x="12" y="37.4" transform="matrix(0.7071 -0.7071 0.7071 0.7071 -19.6969 27.2585)" clip-path="url(#SVGID_2_)" fill="#794B61" width="22" height="0"/>
		
			<rect data-clear="not" x="12" y="37.4" transform="matrix(0.7071 -0.7071 0.7071 0.7071 -19.6996 27.2652)" clip-path="url(#SVGID_2_)" fill="#7A4B60" width="22" height="0"/>
		
			<rect data-clear="not" x="12.1" y="37.4" transform="matrix(0.7071 -0.7071 0.7071 0.7071 -19.7024 27.2718)" clip-path="url(#SVGID_2_)" fill="#7B4B60" width="22" height="0"/>
		
			<rect data-clear="not" x="12.1" y="37.4" transform="matrix(0.7071 -0.7071 0.7071 0.7071 -19.7051 27.2785)" clip-path="url(#SVGID_2_)" fill="#7C4B5F" width="22" height="0"/>
		
			<rect data-clear="not" x="12.1" y="37.4" transform="matrix(0.7071 -0.7071 0.7071 0.7071 -19.7079 27.2851)" clip-path="url(#SVGID_2_)" fill="#7D4B5E" width="22" height="0"/>
		
			<rect data-clear="not" x="12.1" y="37.4" transform="matrix(0.7071 -0.7071 0.7071 0.7071 -19.7107 27.2918)" clip-path="url(#SVGID_2_)" fill="#7E4B5E" width="22" height="0"/>
		
			<rect data-clear="not" x="12.1" y="37.4" transform="matrix(0.7071 -0.7071 0.7071 0.7071 -19.7134 27.2985)" clip-path="url(#SVGID_2_)" fill="#7F4B5D" width="22" height="0"/>
		
			<rect data-clear="not" x="12.1" y="37.4" transform="matrix(0.7071 -0.7071 0.7071 0.7071 -19.7162 27.3051)" clip-path="url(#SVGID_2_)" fill="#804B5D" width="22" height="0"/>
		
			<rect data-clear="not" x="12.1" y="37.5" transform="matrix(0.7071 -0.7071 0.7071 0.7071 -19.7189 27.3118)" clip-path="url(#SVGID_2_)" fill="#814C5C" width="22" height="0"/>
		
			<rect data-clear="not" x="12.1" y="37.5" transform="matrix(0.7071 -0.7071 0.7071 0.7071 -19.7217 27.3184)" clip-path="url(#SVGID_2_)" fill="#824C5C" width="22" height="0"/>
		
			<rect data-clear="not" x="12.1" y="37.5" transform="matrix(0.7071 -0.7071 0.7071 0.7071 -19.7245 27.3251)" clip-path="url(#SVGID_2_)" fill="#834C5B" width="22" height="0"/>
		
			<rect data-clear="not" x="12.1" y="37.5" transform="matrix(0.7071 -0.7071 0.7071 0.7071 -19.7272 27.3318)" clip-path="url(#SVGID_2_)" fill="#844C5B" width="22" height="0"/>
		
			<rect data-clear="not" x="12.1" y="37.5" transform="matrix(0.7071 -0.7071 0.7071 0.7071 -19.73 27.3384)" clip-path="url(#SVGID_2_)" fill="#854C5A" width="22" height="0"/>
		
			<rect data-clear="not" x="12.1" y="37.5" transform="matrix(0.7071 -0.7071 0.7071 0.7071 -19.7327 27.3451)" clip-path="url(#SVGID_2_)" fill="#864C5A" width="22" height="0"/>
		
			<rect data-clear="not" x="12.1" y="37.5" transform="matrix(0.7071 -0.7071 0.7071 0.7071 -19.7355 27.3517)" clip-path="url(#SVGID_2_)" fill="#874C59" width="22" height="0"/>
		
			<rect data-clear="not" x="12.1" y="37.5" transform="matrix(0.7071 -0.7071 0.7071 0.7071 -19.7382 27.3584)" clip-path="url(#SVGID_2_)" fill="#884C59" width="22" height="0"/>
		
			<rect data-clear="not" x="12.1" y="37.5" transform="matrix(0.7071 -0.7071 0.7071 0.7071 -19.741 27.3651)" clip-path="url(#SVGID_2_)" fill="#894C58" width="22" height="0"/>
		
			<rect data-clear="not" x="12.2" y="37.5" transform="matrix(0.7071 -0.7071 0.7071 0.7071 -19.7438 27.3717)" clip-path="url(#SVGID_2_)" fill="#8B4C58" width="22" height="0"/>
		
			<rect data-clear="not" x="12.2" y="37.5" transform="matrix(0.7071 -0.7071 0.7071 0.7071 -19.7465 27.3784)" clip-path="url(#SVGID_2_)" fill="#8C4C57" width="22" height="0"/>
		
			<rect data-clear="not" x="12.2" y="37.5" transform="matrix(0.7071 -0.7071 0.7071 0.7071 -19.7493 27.385)" clip-path="url(#SVGID_2_)" fill="#8D4C56" width="22" height="0"/>
		
			<rect data-clear="not" x="12.2" y="37.5" transform="matrix(0.7071 -0.7071 0.7071 0.7071 -19.752 27.3917)" clip-path="url(#SVGID_2_)" fill="#8E4C56" width="22" height="0"/>
		
			<rect data-clear="not" x="12.2" y="37.5" transform="matrix(0.7071 -0.7071 0.7071 0.7071 -19.7548 27.3984)" clip-path="url(#SVGID_2_)" fill="#8F4C55" width="22" height="0"/>
		
			<rect data-clear="not" x="12.2" y="37.5" transform="matrix(0.7071 -0.7071 0.7071 0.7071 -19.7576 27.405)" clip-path="url(#SVGID_2_)" fill="#904C55" width="22" height="0"/>
		
			<rect data-clear="not" x="12.2" y="37.6" transform="matrix(0.7071 -0.7071 0.7071 0.7071 -19.7603 27.4117)" clip-path="url(#SVGID_2_)" fill="#914C54" width="22" height="0"/>
		
			<rect data-clear="not" x="12.2" y="37.6" transform="matrix(0.7071 -0.7071 0.7071 0.7071 -19.7631 27.4183)" clip-path="url(#SVGID_2_)" fill="#924C54" width="22" height="0"/>
		
			<rect data-clear="not" x="12.2" y="37.6" transform="matrix(0.7071 -0.7071 0.7071 0.7071 -19.7658 27.425)" clip-path="url(#SVGID_2_)" fill="#934C53" width="22" height="0"/>
		
			<rect data-clear="not" x="12.2" y="37.6" transform="matrix(0.7071 -0.7071 0.7071 0.7071 -19.7686 27.4317)" clip-path="url(#SVGID_2_)" fill="#944C53" width="22" height="0"/>
		
			<rect data-clear="not" x="12.2" y="37.6" transform="matrix(0.7071 -0.7071 0.7071 0.7071 -19.7714 27.4383)" clip-path="url(#SVGID_2_)" fill="#954D52" width="22" height="0"/>
		
			<rect data-clear="not" x="12.2" y="37.6" transform="matrix(0.7071 -0.7071 0.7071 0.7071 -19.7741 27.445)" clip-path="url(#SVGID_2_)" fill="#964D52" width="22" height="0"/>
		
			<rect data-clear="not" x="12.2" y="37.6" transform="matrix(0.7071 -0.7071 0.7071 0.7071 -19.7769 27.4516)" clip-path="url(#SVGID_2_)" fill="#974D51" width="22" height="0"/>
		
			<rect data-clear="not" x="12.2" y="37.6" transform="matrix(0.7071 -0.7071 0.7071 0.7071 -19.7796 27.4583)" clip-path="url(#SVGID_2_)" fill="#984D51" width="22" height="0"/>
		
			<rect data-clear="not" x="12.2" y="37.6" transform="matrix(0.7071 -0.7071 0.7071 0.7071 -19.7824 27.465)" clip-path="url(#SVGID_2_)" fill="#994D50" width="22" height="0"/>
		
			<rect data-clear="not" x="12.3" y="37.6" transform="matrix(0.7071 -0.7071 0.7071 0.7071 -19.7851 27.4716)" clip-path="url(#SVGID_2_)" fill="#9A4D4F" width="22" height="0"/>
		
			<rect data-clear="not" x="12.3" y="37.6" transform="matrix(0.7071 -0.7071 0.7071 0.7071 -19.7879 27.4783)" clip-path="url(#SVGID_2_)" fill="#9B4D4F" width="22" height="0"/>
		
			<rect data-clear="not" x="12.3" y="37.6" transform="matrix(0.7071 -0.7071 0.7071 0.7071 -19.7907 27.4849)" clip-path="url(#SVGID_2_)" fill="#9C4D4E" width="22" height="0"/>
		
			<rect data-clear="not" x="12.3" y="37.6" transform="matrix(0.7071 -0.7071 0.7071 0.7071 -19.7934 27.4916)" clip-path="url(#SVGID_2_)" fill="#9D4D4E" width="22" height="0"/>
		
			<rect data-clear="not" x="12.3" y="37.6" transform="matrix(0.7071 -0.7071 0.7071 0.7071 -19.7962 27.4983)" clip-path="url(#SVGID_2_)" fill="#9E4D4D" width="22" height="0"/>
		
			<rect data-clear="not" x="12.3" y="37.6" transform="matrix(0.7071 -0.7071 0.7071 0.7071 -19.7989 27.5049)" clip-path="url(#SVGID_2_)" fill="#9F4D4D" width="22" height="0"/>
		
			<rect data-clear="not" x="12.3" y="37.7" transform="matrix(0.7071 -0.7071 0.7071 0.7071 -19.8017 27.5116)" clip-path="url(#SVGID_2_)" fill="#A04D4C" width="22" height="0"/>
		
			<rect data-clear="not" x="12.3" y="37.7" transform="matrix(0.7071 -0.7071 0.7071 0.7071 -19.8045 27.5182)" clip-path="url(#SVGID_2_)" fill="#A14D4C" width="22" height="0"/>
		
			<rect data-clear="not" x="12.3" y="37.7" transform="matrix(0.7071 -0.7071 0.7071 0.7071 -19.8072 27.5249)" clip-path="url(#SVGID_2_)" fill="#A24D4B" width="22" height="0"/>
		
			<rect data-clear="not" x="12.3" y="37.7" transform="matrix(0.7071 -0.7071 0.7071 0.7071 -19.81 27.5316)" clip-path="url(#SVGID_2_)" fill="#A34D4B" width="22" height="0"/>
		
			<rect data-clear="not" x="12.3" y="37.7" transform="matrix(0.7071 -0.7071 0.7071 0.7071 -19.8127 27.5382)" clip-path="url(#SVGID_2_)" fill="#A44D4A" width="22" height="0"/>
		
			<rect data-clear="not" x="12.3" y="37.7" transform="matrix(0.7071 -0.7071 0.7071 0.7071 -19.8155 27.5449)" clip-path="url(#SVGID_2_)" fill="#A54D4A" width="22" height="0"/>
		
			<rect data-clear="not" x="12.3" y="37.7" transform="matrix(0.7071 -0.7071 0.7071 0.7071 -19.8183 27.5515)" clip-path="url(#SVGID_2_)" fill="#A64D49" width="22" height="0"/>
		
			<rect data-clear="not" x="12.3" y="37.7" transform="matrix(0.7071 -0.7071 0.7071 0.7071 -19.821 27.5582)" clip-path="url(#SVGID_2_)" fill="#A74D48" width="22" height="0"/>
		
			<rect data-clear="not" x="12.3" y="37.7" transform="matrix(0.7071 -0.7071 0.7071 0.7071 -19.8238 27.5649)" clip-path="url(#SVGID_2_)" fill="#A84E48" width="22" height="0"/>
		
			<rect data-clear="not" x="12.4" y="37.7" transform="matrix(0.7071 -0.7071 0.7071 0.7071 -19.8265 27.5715)" clip-path="url(#SVGID_2_)" fill="#A94E47" width="22" height="0"/>
		
			<rect data-clear="not" x="12.4" y="37.7" transform="matrix(0.7071 -0.7071 0.7071 0.7071 -19.8293 27.5782)" clip-path="url(#SVGID_2_)" fill="#AA4E47" width="22" height="0"/>
		
			<rect data-clear="not" x="12.4" y="37.7" transform="matrix(0.7071 -0.7071 0.7071 0.7071 -19.832 27.5848)" clip-path="url(#SVGID_2_)" fill="#AB4E46" width="22" height="0"/>
		
			<rect data-clear="not" x="12.4" y="37.7" transform="matrix(0.7071 -0.7071 0.7071 0.7071 -19.8348 27.5915)" clip-path="url(#SVGID_2_)" fill="#AC4E46" width="22" height="0"/>
		
			<rect data-clear="not" x="12.4" y="37.7" transform="matrix(0.7071 -0.7071 0.7071 0.7071 -19.8376 27.5982)" clip-path="url(#SVGID_2_)" fill="#AD4E45" width="22" height="0"/>
		
			<rect data-clear="not" x="12.4" y="37.7" transform="matrix(0.7071 -0.7071 0.7071 0.7071 -19.8403 27.6048)" clip-path="url(#SVGID_2_)" fill="#AE4E45" width="22" height="0"/>
		
			<rect data-clear="not" x="12.4" y="37.8" transform="matrix(0.7071 -0.7071 0.7071 0.7071 -19.8431 27.6115)" clip-path="url(#SVGID_2_)" fill="#AF4E44" width="22" height="0"/>
		
			<rect data-clear="not" x="12.4" y="37.8" transform="matrix(0.7071 -0.7071 0.7071 0.7071 -19.8458 27.6181)" clip-path="url(#SVGID_2_)" fill="#B04E44" width="22" height="0"/>
		
			<rect data-clear="not" x="12.4" y="37.8" transform="matrix(0.7071 -0.7071 0.7071 0.7071 -19.8486 27.6248)" clip-path="url(#SVGID_2_)" fill="#B14E43" width="22" height="0"/>
		
			<rect data-clear="not" x="12.4" y="37.8" transform="matrix(0.7071 -0.7071 0.7071 0.7071 -19.8514 27.6315)" clip-path="url(#SVGID_2_)" fill="#B24E43" width="22" height="0"/>
		
			<rect data-clear="not" x="12.4" y="37.8" transform="matrix(0.7071 -0.7071 0.7071 0.7071 -19.8541 27.6381)" clip-path="url(#SVGID_2_)" fill="#B34E42" width="22" height="0"/>
		
			<rect data-clear="not" x="12.4" y="37.8" transform="matrix(0.7071 -0.7071 0.7071 0.7071 -19.8569 27.6448)" clip-path="url(#SVGID_2_)" fill="#B44E41" width="22" height="0"/>
		
			<rect data-clear="not" x="12.4" y="37.8" transform="matrix(0.7071 -0.7071 0.7071 0.7071 -19.8596 27.6514)" clip-path="url(#SVGID_2_)" fill="#B54E41" width="22" height="0"/>
		
			<rect data-clear="not" x="12.4" y="37.8" transform="matrix(0.7071 -0.7071 0.7071 0.7071 -19.8624 27.6581)" clip-path="url(#SVGID_2_)" fill="#B64E40" width="22" height="0"/>
		
			<rect data-clear="not" x="12.4" y="37.8" transform="matrix(0.7071 -0.7071 0.7071 0.7071 -19.8651 27.6648)" clip-path="url(#SVGID_2_)" fill="#B74E40" width="22" height="0"/>
		
			<rect data-clear="not" x="12.5" y="37.8" transform="matrix(0.7071 -0.7071 0.7071 0.7071 -19.8679 27.6714)" clip-path="url(#SVGID_2_)" fill="#B84E3F" width="22" height="0"/>
		
			<rect data-clear="not" x="12.5" y="37.8" transform="matrix(0.7071 -0.7071 0.7071 0.7071 -19.8707 27.6781)" clip-path="url(#SVGID_2_)" fill="#B94E3F" width="22" height="0"/>
		
			<rect data-clear="not" x="12.5" y="37.8" transform="matrix(0.7071 -0.7071 0.7071 0.7071 -19.8734 27.6847)" clip-path="url(#SVGID_2_)" fill="#BA4F3E" width="22" height="0"/>
		
			<rect data-clear="not" x="12.5" y="37.8" transform="matrix(0.7071 -0.7071 0.7071 0.7071 -19.8762 27.6914)" clip-path="url(#SVGID_2_)" fill="#BB4F3E" width="22" height="0"/>
		
			<rect data-clear="not" x="12.5" y="37.8" transform="matrix(0.7071 -0.7071 0.7071 0.7071 -19.8789 27.6981)" clip-path="url(#SVGID_2_)" fill="#BC4F3D" width="22" height="0"/>
		
			<rect data-clear="not" x="12.5" y="37.8" transform="matrix(0.7071 -0.7071 0.7071 0.7071 -19.8817 27.7047)" clip-path="url(#SVGID_2_)" fill="#BD4F3D" width="22" height="0"/>
		
			<rect data-clear="not" x="12.5" y="37.9" transform="matrix(0.7071 -0.7071 0.7071 0.7071 -19.8845 27.7114)" clip-path="url(#SVGID_2_)" fill="#BE4F3C" width="22" height="0"/>
		
			<rect data-clear="not" x="12.5" y="37.9" transform="matrix(0.7071 -0.7071 0.7071 0.7071 -19.8872 27.718)" clip-path="url(#SVGID_2_)" fill="#BF4F3C" width="22" height="0"/>
		
			<rect data-clear="not" x="12.5" y="37.9" transform="matrix(0.7071 -0.7071 0.7071 0.7071 -19.89 27.7247)" clip-path="url(#SVGID_2_)" fill="#C04F3B" width="22" height="0"/>
		
			<rect data-clear="not" x="12.5" y="37.9" transform="matrix(0.7071 -0.7071 0.7071 0.7071 -19.8927 27.7314)" clip-path="url(#SVGID_2_)" fill="#C14F3A" width="22" height="0"/>
		
			<rect data-clear="not" x="12.5" y="37.9" transform="matrix(0.7071 -0.7071 0.7071 0.7071 -19.8955 27.738)" clip-path="url(#SVGID_2_)" fill="#C24F3A" width="22" height="0"/>
		
			<rect data-clear="not" x="12.5" y="37.9" transform="matrix(0.7071 -0.7071 0.7071 0.7071 -19.8983 27.7447)" clip-path="url(#SVGID_2_)" fill="#C34F39" width="22" height="0"/>
		
			<rect data-clear="not" x="12.5" y="37.9" transform="matrix(0.7071 -0.7071 0.7071 0.7071 -19.901 27.7513)" clip-path="url(#SVGID_2_)" fill="#C44F39" width="22" height="0"/>
		
			<rect data-clear="not" x="12.5" y="37.9" transform="matrix(0.7071 -0.7071 0.7071 0.7071 -19.9038 27.758)" clip-path="url(#SVGID_2_)" fill="#C54F38" width="22" height="0"/>
		
			<rect data-clear="not" x="12.5" y="37.9" transform="matrix(0.7071 -0.7071 0.7071 0.7071 -19.9065 27.7647)" clip-path="url(#SVGID_2_)" fill="#C64F38" width="22" height="0"/>
		
			<rect data-clear="not" x="12.6" y="37.9" transform="matrix(0.7071 -0.7071 0.7071 0.7071 -19.9093 27.7713)" clip-path="url(#SVGID_2_)" fill="#C74F37" width="22" height="0"/>
		
			<rect data-clear="not" x="12.6" y="37.9" transform="matrix(0.7071 -0.7071 0.7071 0.7071 -19.912 27.778)" clip-path="url(#SVGID_2_)" fill="#C84F37" width="22" height="0"/>
		
			<rect data-clear="not" x="12.6" y="37.9" transform="matrix(0.7071 -0.7071 0.7071 0.7071 -19.9148 27.7846)" clip-path="url(#SVGID_2_)" fill="#C94F36" width="22" height="0"/>
		
			<rect data-clear="not" x="12.6" y="37.9" transform="matrix(0.7071 -0.7071 0.7071 0.7071 -19.9176 27.7913)" clip-path="url(#SVGID_2_)" fill="#CA4F36" width="22" height="0"/>
		
			<rect data-clear="not" x="12.6" y="37.9" transform="matrix(0.7071 -0.7071 0.7071 0.7071 -19.9203 27.798)" clip-path="url(#SVGID_2_)" fill="#CB4F35" width="22" height="0"/>
		
			<rect data-clear="not" x="12.6" y="37.9" transform="matrix(0.7071 -0.7071 0.7071 0.7071 -19.9231 27.8046)" clip-path="url(#SVGID_2_)" fill="#CC4F35" width="22" height="0"/>
		
			<rect data-clear="not" x="12.6" y="38" transform="matrix(0.7071 -0.7071 0.7071 0.7071 -19.9258 27.8113)" clip-path="url(#SVGID_2_)" fill="#CD5034" width="22" height="0"/>
		
			<rect data-clear="not" x="12.6" y="38" transform="matrix(0.7071 -0.7071 0.7071 0.7071 -19.9286 27.8179)" clip-path="url(#SVGID_2_)" fill="#CE5034" width="22" height="0"/>
		
			<rect data-clear="not" x="12.6" y="38" transform="matrix(0.7071 -0.7071 0.7071 0.7071 -19.9314 27.8246)" clip-path="url(#SVGID_2_)" fill="#CF5033" width="22" height="0"/>
		
			<rect data-clear="not" x="12.6" y="38" transform="matrix(0.7071 -0.7071 0.7071 0.7071 -19.9341 27.8313)" clip-path="url(#SVGID_2_)" fill="#D05032" width="22" height="0"/>
		
			<rect data-clear="not" x="12.6" y="38" transform="matrix(0.7071 -0.7071 0.7071 0.7071 -19.9369 27.8379)" clip-path="url(#SVGID_2_)" fill="#D15032" width="22" height="0"/>
		
			<rect data-clear="not" x="12.6" y="38" transform="matrix(0.7071 -0.7071 0.7071 0.7071 -19.9396 27.8446)" clip-path="url(#SVGID_2_)" fill="#D25031" width="22" height="0"/>
		
			<rect data-clear="not" x="12.6" y="38" transform="matrix(0.7071 -0.7071 0.7071 0.7071 -19.9424 27.8512)" clip-path="url(#SVGID_2_)" fill="#D35031" width="22" height="0"/>
		
			<rect data-clear="not" x="12.6" y="38" transform="matrix(0.7071 -0.7071 0.7071 0.7071 -19.9451 27.8579)" clip-path="url(#SVGID_2_)" fill="#D45030" width="22" height="0"/>
		
			<rect data-clear="not" x="12.6" y="38" transform="matrix(0.7071 -0.7071 0.7071 0.7071 -19.9479 27.8646)" clip-path="url(#SVGID_2_)" fill="#D55030" width="22" height="0"/>
		
			<rect data-clear="not" x="12.7" y="38" transform="matrix(0.7071 -0.7071 0.7071 0.7071 -19.9507 27.8712)" clip-path="url(#SVGID_2_)" fill="#D6502F" width="22" height="0"/>
		
			<rect data-clear="not" x="12.7" y="38" transform="matrix(0.7071 -0.7071 0.7071 0.7071 -19.9534 27.8779)" clip-path="url(#SVGID_2_)" fill="#D7502F" width="22" height="0"/>
		
			<rect data-clear="not" x="12.7" y="38" transform="matrix(0.7071 -0.7071 0.7071 0.7071 -19.9562 27.8845)" clip-path="url(#SVGID_2_)" fill="#D8502E" width="22" height="0"/>
		
			<rect data-clear="not" x="12.7" y="38" transform="matrix(0.7071 -0.7071 0.7071 0.7071 -19.9589 27.8912)" clip-path="url(#SVGID_2_)" fill="#D9502E" width="22" height="0"/>
		
			<rect data-clear="not" x="12.7" y="38" transform="matrix(0.7071 -0.7071 0.7071 0.7071 -19.9617 27.8979)" clip-path="url(#SVGID_2_)" fill="#DA502D" width="22" height="0"/>
		
			<rect data-clear="not" x="12.7" y="38" transform="matrix(0.7071 -0.7071 0.7071 0.7071 -19.9645 27.9045)" clip-path="url(#SVGID_2_)" fill="#DB502D" width="22" height="0"/>
		
			<rect data-clear="not" x="12.7" y="38.1" transform="matrix(0.7071 -0.7071 0.7071 0.7071 -19.9672 27.9112)" clip-path="url(#SVGID_2_)" fill="#DC502C" width="22" height="0"/>
		
			<rect data-clear="not" x="12.7" y="38.1" transform="matrix(0.7071 -0.7071 0.7071 0.7071 -19.97 27.9178)" clip-path="url(#SVGID_2_)" fill="#DD502B" width="22" height="0"/>
		
			<rect data-clear="not" x="12.7" y="38.1" transform="matrix(0.7071 -0.7071 0.7071 0.7071 -19.9727 27.9245)" clip-path="url(#SVGID_2_)" fill="#DE502B" width="22" height="0"/>
		
			<rect data-clear="not" x="12.7" y="38.1" transform="matrix(0.7071 -0.7071 0.7071 0.7071 -19.9755 27.9312)" clip-path="url(#SVGID_2_)" fill="#DF502A" width="22" height="0"/>
		
			<rect data-clear="not" x="12.7" y="38.1" transform="matrix(0.7071 -0.7071 0.7071 0.7071 -19.9783 27.9378)" clip-path="url(#SVGID_2_)" fill="#E0512A" width="22" height="0"/>
		
			<rect data-clear="not" x="12.7" y="38.1" transform="matrix(0.7071 -0.7071 0.7071 0.7071 -19.981 27.9445)" clip-path="url(#SVGID_2_)" fill="#E15129" width="22" height="0"/>
		
			<rect data-clear="not" x="12.7" y="38.1" transform="matrix(0.7071 -0.7071 0.7071 0.7071 -19.9838 27.9511)" clip-path="url(#SVGID_2_)" fill="#E25129" width="22" height="0"/>
		
			<rect data-clear="not" x="12.7" y="38.1" transform="matrix(0.7071 -0.7071 0.7071 0.7071 -19.9865 27.9578)" clip-path="url(#SVGID_2_)" fill="#E35128" width="22" height="0"/>
		
			<rect data-clear="not" x="12.7" y="38.1" transform="matrix(0.7071 -0.7071 0.7071 0.7071 -19.9893 27.9645)" clip-path="url(#SVGID_2_)" fill="#E45128" width="22" height="0"/>
		
			<rect data-clear="not" x="12.8" y="38.1" transform="matrix(0.7071 -0.7071 0.7071 0.7071 -19.992 27.9711)" clip-path="url(#SVGID_2_)" fill="#E55127" width="22" height="0"/>
		
			<rect data-clear="not" x="12.8" y="38.1" transform="matrix(0.7071 -0.7071 0.7071 0.7071 -19.9948 27.9778)" clip-path="url(#SVGID_2_)" fill="#E65127" width="22" height="0"/>
		
			<rect data-clear="not" x="12.8" y="38.1" transform="matrix(0.7071 -0.7071 0.7071 0.7071 -19.9976 27.9844)" clip-path="url(#SVGID_2_)" fill="#E75126" width="22" height="0"/>
		
			<rect data-clear="not" x="12.8" y="38.1" transform="matrix(0.7071 -0.7071 0.7071 0.7071 -20.0003 27.9911)" clip-path="url(#SVGID_2_)" fill="#E85126" width="22" height="0"/>
		
			<rect data-clear="not" x="12.8" y="38.1" transform="matrix(0.7071 -0.7071 0.7071 0.7071 -20.0031 27.9978)" clip-path="url(#SVGID_2_)" fill="#E95125" width="22" height="0"/>
		<polygon data-clear="not" clip-path="url(#SVGID_2_)" fill="#E95125" points="31.6,30.4 35.1,33.9 35.1,49.5 19.6,49.5 16,45.9"/>
	</g>
	<g fill="#FEFEFE" data-clear="not">
		<path d="M23.6,44.4c-1.1,0-2.1-0.2-3.1-0.7c-0.5-0.2-0.5-0.2-0.1-0.6c0.4-0.4,0.7-0.7,1.1-1.1c0.2-0.2,0.3-0.2,0.5-0.1c0.6,0.2,1.1,0.3,1.8,0.3c1.9,0,3.7-1.5,4.3-3.3c0-0.1,0-0.1,0.1-0.2c0-0.2,0.1-0.2,0.2-0.1c0.5,0.5,1,1,1.5,1.5c0.1,0.1,0.1,0.2,0.1,0.3c-0.9,1.9-2.3,3.1-4.3,3.7C24.9,44.3,24.2,44.3,23.6,44.4z"/>
		<path d="M18.9,42.6c-0.2-0.2-0.2-0.3,0-0.5c3.1-3.1,6.2-6.2,9.3-9.3c0.2-0.2,0.3-0.2,0.4,0s0.3,0.3,0.4,0.5c0.1,0.1,0.1,0.2,0,0.3c-0.2,0.2-0.3,0.3-0.5,0.5c-2.9,2.9-5.9,5.9-8.8,8.8c-0.2,0.2-0.3,0.3-0.5,0C19.2,42.8,19.1,42.7,18.9,42.6C19,42.6,18.9,42.6,18.9,42.6L18.9,42.6z"/>
		<path d="M18.3,41.9c-0.7-0.8-1.3-1.8-1.5-2.8c-0.6-3,0.4-5.9,3.1-7.6c2.1-1.3,4.3-1.4,6.6-0.3c0.5,0.2,0.9,0.5,1.3,0.8c0.2,0.1,0.2,0.2,0,0.4c-3.1,3.1-6.2,6.2-9.3,9.3C18.5,41.8,18.4,41.9,18.3,41.9z M23.8,32.8c-0.5,0-1,0.1-1.5,0.2c-2.4,0.8-3.8,3.6-2.9,6c0.1,0.1,0.1,0.3,0.3,0.1c1.9-1.9,3.9-3.9,5.8-5.8c0.1-0.1,0.1-0.2-0.1-0.2C24.9,32.9,24.3,32.8,23.8,32.8z"/>
	</g>
</svg>
