<?xml version="1.0" encoding="UTF-8"?>
<svg width="61px" height="61px" viewBox="0 0 61 61" version="1.1" xmlns="http://www.w3.org/2000/svg" xmlns:xlink="http://www.w3.org/1999/xlink">
    <!-- Generator: Sketch 47 (45396) - http://www.bohemiancoding.com/sketch -->
    <title>existing-customer</title>
    <desc>Created with Sketch.</desc>
    <defs></defs>
    <g id="Page-1" fill-rule="evenodd">
        <g id="existing-customer">
            <g id="Existing-Customer">
                <path d="M51.4,39.5 C51.4,39.4 51.5,39.4 51.5,39.3 C50.3,38.4 49.2,37.4 48,36.5 C46.8,35.6 45.4,34.9 44.1,34 C52.4,25.8 51.3,13.2 44,6.3 C41.9,4.3 39.6,2.9 37.1,2 C37.1,2 37.1,2 37.1,2 C36.6,1.8 36.1,1.7 35.6,1.5 C35.5,1.5 35.4,1.4 35.2,1.4 C34.8,1.3 34.4,1.2 33.9,1.1 C33.7,1.1 33.5,1 33.3,1 C32.9,0.9 32.6,0.9 32.2,0.9 C31.9,0.9 31.7,0.9 31.4,0.9 C31.1,0.9 30.8,0.9 30.5,0.9 C30.2,0.9 29.9,0.9 29.6,0.9 C29.3,0.9 29.1,0.9 28.8,0.9 C28.4,0.9 28.1,1 27.7,1 C27.5,1 27.3,1.1 27.1,1.1 C26.7,1.2 26.2,1.3 25.8,1.4 C25.7,1.4 25.6,1.5 25.4,1.5 C24.9,1.6 24.4,1.8 23.9,2 C23.9,2 23.9,2 23.9,2 C21.4,2.9 19,4.3 17,6.3 C9.7,13.3 8.7,25.9 16.9,34 C15.6,34.8 14.3,35.6 13,36.5 C11.8,37.4 10.6,38.4 9.5,39.3 C9.5,39.4 9.6,39.4 9.6,39.5 C3.1,45.9 0.4,54.4 0.6,61 C7.7,61 14.8,61 21.9,61 C27.7,61 33.4,61 39.2,61 C46.3,61 53.4,61 60.5,61 C60.6,54.3 58,45.9 51.4,39.5 Z M15.6,20.1 C15.6,11.9 22.4,5.2 30.5,5.1 C38.7,5.1 45.4,11.8 45.4,20.1 C45.4,28.3 38.7,35.1 30.5,35.2 C22.2,35.1 15.5,28.3 15.6,20.1 Z M39.1,56.6 C33.3,56.6 27.6,56.6 21.8,56.6 C16.3,56.6 10.7,56.6 5.2,56.6 C5.2,56.5 5.2,56.4 5.2,56.4 C7,47.5 12,41.2 20.2,37.4 C21,37.3 21.8,37.4 22.7,37.8 C23,37.9 23.3,38 23.6,38.2 C23.6,38.2 23.7,38.2 23.7,38.2 C25,38.7 26.3,39.1 27.6,39.3 C27.7,39.3 27.8,39.3 27.9,39.3 C28.4,39.4 28.9,39.4 29.4,39.4 C29.7,39.4 30,39.4 30.3,39.4 C30.6,39.4 30.9,39.4 31.2,39.4 C31.7,39.4 32.2,39.3 32.7,39.3 C32.8,39.3 32.9,39.3 33,39.3 C34.3,39.1 35.6,38.7 36.9,38.2 C36.9,38.2 37,38.2 37,38.2 C37.3,38.1 37.6,38 37.9,37.8 C38.8,37.4 39.6,37.2 40.4,37.4 C48.6,41.2 53.6,47.5 55.4,56.4 C55.4,56.4 55.4,56.5 55.4,56.6 C50.2,56.6 44.7,56.6 39.1,56.6 Z" id="Shape" fill="red" fill-rule="nonzero"></path>
            </g>
        </g>
    </g>
</svg>