<?xml version="1.0" encoding="utf-8"?>
<!-- Generator: Adobe Illustrator 21.1.0, SVG Export Plug-In . SVG Version: 6.00 Build 0)  -->
<svg version="1.1" id="Слой_1" xmlns="http://www.w3.org/2000/svg" xmlns:xlink="http://www.w3.org/1999/xlink" x="0px" y="0px"
	 viewBox="0 0 46.9 85.9" enable-background="new 0 0 46.9 85.9" xml:space="preserve">
<g enable-background="new    ">
	<path fill="currentColor" d="M6.1,40.1h1.7l2.5,7.3l2.5-7.3h1.7v8.6h-1.1v-5.1c0-0.2,0-0.5,0-0.9s0-0.8,0-1.3l-2.5,7.3H9.6l-2.5-7.3v0.3
		c0,0.2,0,0.5,0,1s0,0.7,0,1v5.1H6.1V40.1z"/>
	<path fill="currentColor" d="M16.3,40.1h3.9c0.6,0,1.2,0.1,1.6,0.3c0.8,0.4,1.2,1,1.2,2c0,0.5-0.1,0.9-0.3,1.3s-0.5,0.6-0.9,0.8
		c0.3,0.1,0.6,0.3,0.8,0.5s0.3,0.6,0.3,1.1l0,1.2c0,0.3,0,0.6,0.1,0.7c0.1,0.3,0.2,0.4,0.4,0.5v0.2h-1.4c0-0.1-0.1-0.2-0.1-0.3
		s0-0.3-0.1-0.7l-0.1-1.4c0-0.6-0.2-0.9-0.6-1.1C20.8,45,20.5,45,20,45h-2.6v3.7h-1.2V40.1z M20,44c0.5,0,1-0.1,1.3-0.3
		s0.5-0.6,0.5-1.2c0-0.6-0.2-1-0.6-1.3c-0.2-0.1-0.5-0.2-0.9-0.2h-2.8V44H20z"/>
	<path fill="currentColor" d="M30.9,40.7c0.6,0.6,0.9,1.2,1,2h-1.1c-0.1-0.6-0.4-1-0.8-1.3s-0.9-0.5-1.6-0.5c-0.8,0-1.5,0.3-2,0.9
		c-0.5,0.6-0.8,1.5-0.8,2.7c0,1,0.2,1.8,0.7,2.5c0.5,0.6,1.2,0.9,2.1,0.9c0.8,0,1.5-0.3,1.9-1c0.2-0.3,0.4-0.8,0.5-1.4h1.1
		c-0.1,0.9-0.4,1.7-1,2.3c-0.7,0.7-1.6,1.1-2.7,1.1c-1,0-1.8-0.3-2.5-0.9c-0.9-0.8-1.3-2-1.3-3.7c0-1.3,0.3-2.3,1-3.1
		c0.7-0.9,1.7-1.3,3-1.3C29.4,39.8,30.3,40.1,30.9,40.7z"/>
</g>
<g enable-background="new    ">
	<path fill="currentColor" d="M28.5,36.2v-3.1h4.8v-4.8h3.1v4.8h4.8v3.1h-4.8V41h-3.1v-4.8H28.5z"/>
</g>
<g>
	<g>
		<path fill="#F39026" d="M40.5,0h-34C2.9,0,0,3,0,6.7v72.5c0,3.7,2.9,6.7,6.5,6.7h33.9c3.6,0,6.5-3,6.5-6.7V6.8
			C47,3.1,44.1,0,40.5,0z M6.5,2h33.9c2.5,0,4.5,2.1,4.5,4.7V11H2V6.8C2,4.2,4,2,6.5,2z M45,13.1v56.4H2V13.1H45z M40.5,84h-34
			C4,84,2,81.9,2,79.3v-7.8h43v7.8C45,81.9,43,84,40.5,84z"/>
	</g>
	<g>
		<path fill="#F39026" d="M24.5,82c-2.5,0-4.6-2.1-4.6-4.6s2.1-4.6,4.6-4.6s4.6,2.1,4.6,4.6S27,82,24.5,82z M24.5,74.8
			c-1.4,0-2.6,1.2-2.6,2.6s1.2,2.6,2.6,2.6s2.5-1.2,2.5-2.6S25.9,74.8,24.5,74.8z"/>
	</g>
	<g>
		<path fill="#F39026" d="M25.7,8.7h-4.3c-1.3,0-2.4-1-2.4-2.2s1.1-2.2,2.4-2.2h4.3c1.3,0,2.4,1,2.4,2.2S27,8.7,25.7,8.7z M21.3,6.3
			c-0.3,0-0.4,0.2-0.4,0.2s0.1,0.2,0.4,0.2h4.3c0.3,0,0.4-0.2,0.4-0.2s-0.1-0.2-0.4-0.2H21.3z"/>
	</g>
	<g>
		<path fill="#F39026" d="M12.7,8.7c-1.2,0-2.2-1-2.2-2.2s1-2.2,2.2-2.2s2.2,1,2.2,2.2S13.9,8.7,12.7,8.7z M12.7,6.3
			c-0.1,0-0.2,0.1-0.2,0.2c0,0.2,0.4,0.2,0.4,0C12.9,6.4,12.8,6.3,12.7,6.3z"/>
	</g>
</g>
</svg>
