<?xml version="1.0" encoding="utf-8"?>
<!-- Generator: Adobe Illustrator 21.1.0, SVG Export Plug-In . SVG Version: 6.00 Build 0)  -->
<svg version="1.1" id="Слой_1" xmlns="http://www.w3.org/2000/svg" xmlns:xlink="http://www.w3.org/1999/xlink" x="0px" y="0px"
	 viewBox="0 0 73.5 73.5" style="enable-background:new 0 0 73.5 73.5;" xml:space="preserve">
<path d="M39.3,58.3c-2.1,0-3.9,1.7-3.9,3.9c0,2.1,1.7,3.9,3.9,3.9c2.1,0,3.9-1.7,3.9-3.9C43.1,60.2,41.4,58.3,39.3,58.3z M39.3,64.2
	c-1,0-1.9-0.8-1.9-1.9c0-1,0.8-1.9,1.9-1.9c1,0,1.9,0.8,1.9,1.9C41.1,63.2,40.3,64.2,39.3,64.2z"/>
<path d="M36.8,7.7h3.4c1.2,0,2.1-0.9,2.1-2s-1-2-2.1-2h-3.4c-1.2,0-2.1,0.9-2.1,2C34.6,6.8,35.6,7.7,36.8,7.7z"/>
<circle cx="29.9" cy="5.7" r="2"/>
<path d="M52,0.3H25c-3,0-5.4,2.5-5.4,5.6v37.5c0.7,0.2,1.4,0.4,2,0.7V10.7h33.9v44.5h-25c0.1,0.7,0.2,1.3,0.2,2h24.7v6.4
	c0,2-1.5,3.6-3.4,3.6H27.5c-0.6,0.7-1.2,1.4-1.9,2H52c3,0,5.4-2.5,5.4-5.6V5.9C57.4,2.8,55,0.3,52,0.3z M55.4,8.7H21.6V5.9
	c0-2,1.5-3.6,3.4-3.6h27c1.9,0,3.4,1.6,3.4,3.6C55.4,5.9,55.4,8.7,55.4,8.7z"/>
<path fill="currentColor" d="M15.6,73.2c-8.3,0-15.1-6.8-15.1-15.1S7.3,43,15.6,43s15.1,6.8,15.1,15.1S23.9,73.2,15.6,73.2z M15.6,44
	C7.8,44,1.5,50.2,1.5,58s6.3,14.1,14.1,14.1s14.1-6.3,14.1-14.1S23.4,44,15.6,44z"/>
<g>
	<path d="M24.9,58.3c-0.6,1.5-1.4,2.9-2.2,4.2c-0.4,0.6-0.8,1.2-1.2,1.8c-0.4,0.5-0.9,0.7-1.6,0.7c-1.8,0-3.6,0-5.5,0
		c-0.6,0-1.2-0.1-1.8-0.3c-1.3-0.5-2-1.5-2.3-2.9c-0.5-2.4-1-4.8-1.4-7.2v-0.1c-0.2-0.7-0.5-1-1.3-1.1c-0.3,0-0.6,0-0.8-0.1
		c-0.4-0.1-0.7-0.4-0.8-0.8c0,0,0,0,0-0.1s0-0.2,0-0.3c0.1-0.3,0.2-0.6,0.5-0.7c0.1-0.1,0.3-0.2,0.4-0.2c1-0.1,2,0.1,2.9,0.8
		c0.6,0.5,1,1.1,1.2,1.9c0.3,1.3,0.5,2.7,0.8,4c0.2,1.2,0.5,2.4,0.7,3.6c0.2,0.7,0.7,1.2,1.5,1.3c0.6,0,1.3,0,1.9,0
		c1.2,0,2.5,0,3.7,0c0.2,0,0.3,0,0.3-0.2c0.5-0.8,1-1.5,1.4-2.3c0.5-0.9,0.9-1.8,1.4-2.7c0.3-0.5,0.8-0.8,1.3-0.6
		c0.4,0.1,0.6,0.4,0.7,0.7v0.1C24.9,58.2,24.9,58.2,24.9,58.3z"/>
	<path d="M13.4,69.4c-0.3-0.1-0.7-0.2-0.9-0.4c-0.5-0.5-0.7-1-0.6-1.7c0.1-0.7,0.5-1.2,1.2-1.4c0.8-0.3,1.7,0.1,2.1,0.7
		c0.5,0.7,0.4,1.6-0.2,2.3c-0.3,0.3-0.6,0.4-0.9,0.5H14C13.7,69.4,13.5,69.4,13.4,69.4z"/>
	<path d="M19.9,69.4c-0.3-0.1-0.7-0.2-0.9-0.5c-0.5-0.5-0.7-1-0.6-1.7s0.5-1.2,1.2-1.4c1.3-0.4,2.5,0.5,2.4,1.9
		c-0.1,0.7-0.6,1.4-1.4,1.6h-0.1C20.3,69.4,20.1,69.4,19.9,69.4z"/>
	<path d="M15.5,55.7c0-0.7,0.1-1.4,0.1-2.1c0-0.3,0.1-0.7,0.1-1c0-0.2,0.1-0.3,0.3-0.4c0.6-0.2,1.2-0.2,1.8,0
		c0.2,0.1,0.3,0.2,0.4,0.4c0,0.5,0.1,1,0.1,1.5s0.1,0.9,0.1,1.4c0,0,0,0.1,0,0.2c0.1,0,0.1,0,0.2,0c0.4,0,0.9,0,1.3,0
		c0.2,0,0.4,0,0.4,0.2c0.1,0.2,0,0.3-0.1,0.5c-0.6,0.8-1.3,1.6-1.9,2.3c-0.3,0.4-0.7,0.7-1.1,1.1c-0.2,0.2-0.4,0.2-0.6,0
		c-1.1-1.1-2.1-2.2-3-3.4c-0.1-0.2-0.2-0.3-0.1-0.5c0.1-0.2,0.3-0.2,0.5-0.2C14.5,55.7,15,55.7,15.5,55.7z"/>
</g>
<circle fill="currentColor" cx="26.8" cy="33.5" r="2.7"/>
<circle fill="currentColor" cx="34.4" cy="33.5" r="2.7"/>
<circle fill="currentColor" cx="41.9" cy="33.5" r="2.7"/>
<circle fill="currentColor" cx="49.4" cy="33.5" r="2.7"/>
<rect fill="currentColor" x="24.1" y="38.5" width="5.5" height="1"/>
<rect fill="currentColor" x="31.6" y="38.5" width="5.5" height="1"/>
<rect fill="currentColor" x="39.2" y="38.5" width="5.5" height="1"/>
<rect fill="currentColor" x="46.7" y="38.5" width="5.5" height="1"/>
</svg>
