<?xml version="1.0" encoding="utf-8"?>
<!-- Generator: Adobe Illustrator 21.1.0, SVG Export Plug-In . SVG Version: 6.00 Build 0)  -->
<svg version="1.1" id="Capa_1" xmlns="http://www.w3.org/2000/svg" xmlns:xlink="http://www.w3.org/1999/xlink" x="0px" y="0px"
	 viewBox="0 0 28 28" style="enable-background:new 0 0 28 28;" xml:space="preserve">
<g>
	<g id="c126_exclamation">
		<path d="M14,0C6.3,0,0,6.3,0,14c0,7.7,6.3,14,14,14c7.7,0,14-6.3,14-14C28,6.3,21.7,0,14,0z M14,26.5C7,26.5,1.4,20.9,1.4,14
			C1.4,7,7,1.4,14,1.4C20.9,1.4,26.5,7,26.5,14C26.5,20.9,20.9,26.5,14,26.5z"/>
		<rect x="12" y="10.5" width="3.9" height="12.6"/>
		<path d="M14,5.1c-1.3,0-2.1,0.9-2.1,2c0,1.1,0.8,2,2,2c1.3,0,2.1-0.9,2.1-2C16,5.9,15.3,5.1,14,5.1z"/>
	</g>
	<g id="Capa_1_139_">
	</g>
</g>
</svg>
