<?xml version="1.0" encoding="UTF-8"?>
<svg width="61px" height="61px" viewBox="0 0 61 61" version="1.1" xmlns="http://www.w3.org/2000/svg" xmlns:xlink="http://www.w3.org/1999/xlink">
    <!-- Generator: Sketch 47 (45396) - http://www.bohemiancoding.com/sketch -->
    <title>new-customer</title>
    <desc>Created with Sketch.</desc>
    <defs></defs>
    <g id="Page-1" fill-rule="evenodd">
        <g id="new-customer">
            <g id="New-Customer">
                <path d="M0.5,60.9 C0.2,52.2 5,40.2 17,34.1 C8.5,25.8 9.8,12.8 17.6,5.8 C25.1,-0.9 36.6,-0.8 44,6.3 C51.3,13.3 52.3,25.9 44.1,34 C45.4,34.8 46.7,35.6 48,36.5 C49.2,37.4 50.4,38.4 51.5,39.3 C51.5,39.4 51.4,39.4 51.4,39.5 C50.2,39.5 49.1,39.4 47.9,39.5 C45.8,39.7 43.9,39.4 42.2,38.1 C40.9,37.1 39.7,37.2 38.2,37.9 C32.6,40.3 27,40 21.6,37.3 C21.2,37.1 20.9,37.1 20.4,37.3 C12.1,41.1 7,47.4 5.2,56.4 C5.2,56.4 5.2,56.5 5.2,56.6 C16.5,56.6 27.7,56.6 39.1,56.6 C39.1,58.1 39.1,59.5 39.1,60.9 C26.2,60.9 13.4,60.9 0.5,60.9 Z M30.6,5.1 C22.4,5.1 15.6,11.8 15.5,20.1 C15.5,28.3 22.2,35.1 30.5,35.2 C38.8,35.3 45.6,28.5 45.6,20.2 C45.6,11.9 38.8,5.2 30.6,5.1 Z" id="Shape" fill-rule="nonzero"></path>
                <path d="M49.8,54.5 C47.6,54.5 45.5,54.5 43.4,54.5 C43.4,53.1 43.4,51.7 43.4,50.2 C45.5,50.2 47.6,50.2 49.8,50.2 C49.8,48 49.8,45.9 49.8,43.8 C51.2,43.8 52.6,43.8 54.1,43.8 C54.1,45.9 54.1,48 54.1,50.2 C56.3,50.2 58.4,50.2 60.5,50.2 C60.5,51.6 60.5,53 60.5,54.5 C58.4,54.5 56.3,54.5 54.1,54.5 C54.1,56.7 54.1,58.8 54.1,60.9 C52.7,60.9 51.3,60.9 49.8,60.9 C49.8,58.8 49.8,56.7 49.8,54.5 Z" id="Shape" fill="currentColor" fill-rule="nonzero"></path>
            </g>
        </g>
    </g>
</svg>