<?xml version="1.0" encoding="utf-8"?>
<!-- Generator: Adobe Illustrator 21.1.0, SVG Export Plug-In . SVG Version: 6.00 Build 0)  -->
<svg version="1.1" id="Слой_1" xmlns="http://www.w3.org/2000/svg" xmlns:xlink="http://www.w3.org/1999/xlink" x="0px" y="0px"
	 viewBox="0 0 46.9 85.9" enable-background="new 0 0 46.9 85.9" xml:space="preserve">
<g>
	<g>
		<path d="M40.5,0h-34C2.9,0,0,3,0,6.7v72.5c0,3.7,2.9,6.7,6.5,6.7h33.9c3.6,0,6.5-3,6.5-6.7V6.8
			C47,3.1,44.1,0,40.5,0z M6.5,2h33.9c2.5,0,4.5,2.1,4.5,4.7V11H2V6.8C2,4.2,4,2,6.5,2z M45,13.1v56.4H2V13.1H45z M40.5,84h-34
			C4,84,2,81.9,2,79.3v-7.8h43v7.8C45,81.9,43,84,40.5,84z"/>
	</g>
	<g>
		<path d="M24.5,82c-2.5,0-4.6-2.1-4.6-4.6s2.1-4.6,4.6-4.6s4.6,2.1,4.6,4.6S27,82,24.5,82z M24.5,74.8
			c-1.4,0-2.6,1.2-2.6,2.6s1.2,2.6,2.6,2.6s2.5-1.2,2.5-2.6S25.9,74.8,24.5,74.8z"/>
	</g>
	<g>
		<path d="M25.7,8.7h-4.3c-1.3,0-2.4-1-2.4-2.2s1.1-2.2,2.4-2.2h4.3c1.3,0,2.4,1,2.4,2.2S27,8.7,25.7,8.7z M21.3,6.3
			c-0.3,0-0.4,0.2-0.4,0.2s0.1,0.2,0.4,0.2h4.3c0.3,0,0.4-0.2,0.4-0.2s-0.1-0.2-0.4-0.2H21.3z"/>
	</g>
	<g>
		<path d="M12.7,8.7c-1.2,0-2.2-1-2.2-2.2s1-2.2,2.2-2.2s2.2,1,2.2,2.2S13.9,8.7,12.7,8.7z M12.7,6.3
			c-0.1,0-0.2,0.1-0.2,0.2c0,0.2,0.4,0.2,0.4,0C12.9,6.4,12.8,6.3,12.7,6.3z"/>
	</g>
</g>
<g>
	<path d="M22.4,45"/>
</g>
<g opacity="0.3" enable-background="new    ">
	<path fill="currentColor" d="M22.4,26.4c2.5,0,4.9,0.7,7,1.8c0,0,0,0,0,0c0,0.1-0.2,0.3-0.3,0.3c0,0,0.7,0,0.9,0c0,0,0,0,0,0c0.4,0.3,0.9,0.6,1.3,0.9
		c0,0,0,0,0,0c0,1.2,0,3.8,0,5.2c0,0,3.2,0,4,0c0,0,0,0,0,0c0.8,1.7,1.2,3.6,1.2,5.7c0,7.8-6.3,14.1-14.1,14.1S8.3,48.3,8.3,40.5
		S14.6,26.4,22.4,26.4z"/>
</g>
<g enable-background="new    " data-clear="not" fill="#fff">
	<path d="M16.6,44.5h-0.5v-1c-0.6-0.1-1.1-0.2-1.4-0.4c-0.6-0.4-0.8-1-0.8-1.9h1.3c0,0.4,0.1,0.7,0.2,0.8
		c0.1,0.2,0.4,0.4,0.7,0.4v-2.1l-0.4-0.1c-0.6-0.2-1.1-0.4-1.3-0.8S14,38.8,14,38.3c0-0.3,0-0.6,0.1-0.8s0.2-0.5,0.4-0.6
		c0.2-0.2,0.5-0.4,0.8-0.5c0.2-0.1,0.4-0.1,0.8-0.1v-0.6h0.5v0.7c0.5,0,0.9,0.2,1.2,0.4c0.5,0.3,0.8,0.9,0.9,1.7h-1.3
		c0-0.3-0.1-0.5-0.1-0.6c-0.1-0.2-0.3-0.4-0.7-0.4v1.9c0.8,0.3,1.3,0.5,1.6,0.7c0.4,0.3,0.7,0.8,0.7,1.4c0,0.8-0.3,1.4-0.9,1.8
		c-0.4,0.2-0.8,0.4-1.3,0.4V44.5z M16.1,37.4c-0.3,0-0.5,0.1-0.6,0.2c-0.1,0.1-0.2,0.3-0.2,0.6c0,0.3,0.1,0.5,0.3,0.6
		c0.1,0.1,0.3,0.2,0.5,0.2V37.4z M16.6,42.5c0.3,0,0.4-0.1,0.6-0.2c0.2-0.1,0.3-0.4,0.3-0.8c0-0.3-0.1-0.5-0.3-0.7
		c-0.1-0.1-0.3-0.2-0.6-0.3V42.5z"/>
	<path d="M20.8,41.5c0.1,0.3,0.2,0.5,0.3,0.7c0.2,0.2,0.4,0.2,0.7,0.2c0.3,0,0.6-0.1,0.8-0.4
		c0.2-0.2,0.3-0.5,0.3-0.9c0-0.4-0.1-0.7-0.3-0.9c-0.2-0.2-0.4-0.4-0.8-0.4c-0.2,0-0.3,0-0.4,0.1c-0.2,0.1-0.4,0.2-0.5,0.4l-1.2-0.1
		l0.5-3.9H24v1.2h-2.9l-0.3,1.5c0.2-0.1,0.4-0.2,0.5-0.3c0.2-0.1,0.4-0.1,0.7-0.1c0.6,0,1.1,0.2,1.5,0.6c0.4,0.4,0.7,1,0.7,1.7
		c0,0.7-0.2,1.2-0.6,1.8c-0.4,0.5-1,0.8-1.9,0.8c-0.7,0-1.2-0.2-1.7-0.5c-0.4-0.4-0.7-0.9-0.7-1.5H20.8z"/>
	<path d="M29.4,37.2c0.4,0.6,0.5,1.5,0.5,2.7s-0.2,2.1-0.5,2.7c-0.4,0.6-1,0.9-1.9,0.9c-0.9,0-1.5-0.3-1.9-0.9
		C25.2,42,25,41.1,25,39.9s0.2-2.1,0.5-2.7c0.4-0.6,1-1,1.9-1C28.4,36.2,29,36.6,29.4,37.2z M26.6,41.8c0.1,0.4,0.4,0.6,0.8,0.6
		c0.4,0,0.7-0.2,0.8-0.6c0.1-0.4,0.2-1.1,0.2-1.9c0-0.9-0.1-1.5-0.2-1.9c-0.1-0.4-0.4-0.6-0.8-0.6c-0.4,0-0.7,0.2-0.8,0.6
		c-0.1,0.4-0.2,1-0.2,1.9C26.4,40.7,26.5,41.3,26.6,41.8z"/>
</g>
<g>
	<path fill="currentColor" d="M36.9,35.8h-6.7v-6.2h-3.5l6.5-6.9l6.6,7h-2.9V35.8z M31.3,34.8H36v-6.1h1.6l-4.3-4.6l-4.2,4.5h2.2
		C31.3,28.6,31.3,34.8,31.3,34.8z"/>
</g>
<g>
	<polygon fill="currentColor" points="10.6,45.7 16.2,45.7 16.2,51.9 19.1,51.9 13.7,57.6 8.3,51.8 10.6,51.8 	"/>
</g>
</svg>
