<?xml version="1.0" encoding="utf-8"?>
<!-- Generator: Adobe Illustrator 21.1.0, SVG Export Plug-In . SVG Version: 6.00 Build 0)  -->
<svg version="1.1" id="Слой_1" xmlns="http://www.w3.org/2000/svg" xmlns:xlink="http://www.w3.org/1999/xlink" x="0px" y="0px"
	 viewBox="0 0 73.8 85.9" enable-background="new 0 0 73.8 85.9" xml:space="preserve">
<path d="M37.9,81.9c-2.5,0-4.6-2.1-4.6-4.6s2.1-4.6,4.6-4.6s4.6,2.1,4.6,4.6S40.4,81.9,37.9,81.9z M37.9,74.7
	c-1.4,0-2.6,1.2-2.6,2.6s1.2,2.6,2.6,2.6s2.6-1.2,2.6-2.6S39.3,74.7,37.9,74.7z"/>
<path d="M39.1,8.6h-4.3c-1.3,0-2.4-1-2.4-2.2s1.1-2.2,2.4-2.2h4.3c1.3,0,2.4,1,2.4,2.2S40.4,8.6,39.1,8.6z M34.8,6.3
	c-0.3,0-0.4,0.2-0.4,0.2s0.1,0.2,0.4,0.2h4.3c0.3,0,0.4-0.2,0.4-0.2s-0.1-0.2-0.4-0.2H34.8z"/>
<path d="M26.1,8.6c-1.2,0-2.2-1-2.2-2.2s1-2.2,2.2-2.2s2.2,1,2.2,2.2S27.3,8.6,26.1,8.6z M26.1,6.3
	c-0.1,0-0.2,0.1-0.2,0.2c0,0.2,0.4,0.2,0.4,0S26.2,6.3,26.1,6.3z"/>
<path d="M58.4,49.3v20.1h-43V13h43v7.2h2V6.7C60.4,3,57.5,0,53.9,0h-34c-3.6,0-6.5,3-6.5,6.7v72.5
	c0,3.7,2.9,6.7,6.5,6.7h33.9c3.6,0,6.5-3,6.5-6.7V49.3H58.4z M15.4,6.7c0-2.6,2-4.7,4.5-4.7h33.9c2.5,0,4.5,2.1,4.5,4.7V11H15.4V6.7
	z M58.4,79.2c0,2.6-2,4.7-4.5,4.7h-34c-2.5,0-4.5-2.1-4.5-4.7v-7.8h43V79.2z"/>
<path fill="currentColor" d="M69,35.8c-1.3-1.3-3.1-2-5.1-2c-1.4,0-2.9,0-4.3,0h-4.9c-1.6,0-3.1,0-4.7,0s-2.9-0.5-3.7-1.3c-0.7-0.7-1-1.7-1-2.8
	c0.1-2.4,1.8-3.9,4.7-3.9c1.5,0,3.1,0,4.6,0h4.2c1.2,0,2.3,0,3.5,0c0.1,0,0.2,0,0.4,0c0.6,0,1.5,0.1,2.3-0.7l0.4-0.4l-0.5-0.4
	c-0.7-0.5-1.3-0.6-1.9-0.6h-0.6h-1.3c-3.7,0-7.5,0-11.2,0c-4,0-6.7,2.4-6.7,6s2.7,6,6.7,6.1c1.2,0,2.4,0,3.6,0h6.1c1.5,0,3,0,4.5,0
	c2.7,0,4.4,1.5,4.3,4c0,2.4-1.7,4-4.4,4c-1.5,0-3,0-4.6,0H55c-1.1,0-2.2,0-3.3,0c-0.2,0-0.3,0-0.5,0s-0.4,0-0.6,0
	c-0.5,0-1.2,0.1-1.8,0.6l-0.4,0.3l0.3,0.4c0.6,0.7,1.2,0.8,1.6,0.8c0.1,0,0.3,0,0.4,0s0.2,0,0.3,0l0,0h0.2c4.3,0,8.5,0,12.8,0
	c3.7,0,6.5-2.7,6.6-6C70.7,38.4,70.1,36.9,69,35.8z"/>
<path fill="currentColor" d="M72.6,22.1C71.9,21.4,71,21,70.2,21c-1.9,0-3.7,1.8-3.7,3.7c-0.1,1.8,1.7,3.7,3.6,3.8h0.1c1.8,0,3.6-1.8,3.6-3.7
	C73.7,23.8,73.3,22.8,72.6,22.1z M70.1,28L70.1,28L70.1,28L70.1,28z M70.2,26.7c-1.4,0.1-2.1-0.8-2.1-2c0-1.1,0.8-1.9,2-1.9
	s1.8,0.8,2,1.8C72,25.9,71.4,26.6,70.2,26.7z"/>
<path fill="currentColor" d="M45.7,42.7c-0.7-0.7-1.6-1.1-2.4-1.1c-1.9,0-3.7,1.8-3.7,3.7c-0.1,1.8,1.7,3.7,3.6,3.8h0.1c1.8,0,3.6-1.8,3.6-3.7
	C46.9,44.5,46.5,43.5,45.7,42.7z M43.3,48.7L43.3,48.7L43.3,48.7L43.3,48.7z M43.3,47.3c-1.4,0.1-2.1-0.8-2.1-2c0-1.1,0.8-1.9,2-1.9
	s1.8,0.8,2,1.8C45.2,46.5,44.5,47.3,43.3,47.3z"/>
</svg>
