<?xml version="1.0" encoding="utf-8"?>
<!-- Generator: Adobe Illustrator 21.1.0, SVG Export Plug-In . SVG Version: 6.00 Build 0)  -->
<svg version="1.1" id="Слой_1" xmlns="http://www.w3.org/2000/svg" xmlns:xlink="http://www.w3.org/1999/xlink" x="0px" y="0px"
	 viewBox="0 0 170.1 180.9" enable-background="new 0 0 170.1 180.9" xml:space="preserve">
<g id="Слой_x0020_1">
	<path fill="#706F6F" d="M29.1,42.2l0.9,0c9.5,0.2,9.5,0.3,13.5,9l0,0c3.2,6.9,6.1,14.2,9,21.3l2,4.9c0.5,1.4,0.8,2.7,0.7,4
		c-0.1,1.4-0.5,2.7-1.4,4.1c-1.5,2.4-3,4.7-4.6,7c-1.7,2.4-3.6,4.6-5.7,6.6l-0.4,0.4l0.2,0.5c0.9,2,2,3.9,3.2,5.6
		c1.3,1.9,2.7,3.7,4.2,5.5c5.3,6.6,11,12.6,17.4,17.7c6.3,5.1,13.3,9.3,21.2,12.4l0.8,0.3c0.7,0.2,1.4,0.5,2.1,0.8
		c0.4,0.2,0.6,0.3,0.6,0.2c0.1,0,0.4-0.3,0.7-0.8c1.8-2.5,3.6-5,5.4-7.3c1.8-2.3,3.7-4.7,5.7-7.1c1.4-1.7,2.9-2.7,4.7-3.1
		c1.8-0.4,3.6-0.2,5.7,0.7c4.9,2.2,9.9,4.5,15,7c4.9,2.4,9.8,5,14.7,7.6c1.7,1,3,2.1,3.8,3.6c0.8,1.6,1,3.4,0.7,5.4
		c-0.2,1-0.3,2-0.4,3l-0.2,3.1c-0.1,2.6-0.8,4.9-1.9,7c-1,2-2.4,3.7-4,5.3c-5.3,5.6-11.4,9.4-17.9,11.5c-6.5,2.1-13.5,2.7-20.9,1.9
		c-7.9-0.9-15.4-3-22.4-6c-7-3-13.6-6.8-20-11.1c-11.5-7.8-21.8-16.7-30.9-26.8c-9-10-16.8-21.1-23.3-33.4c-1.8-3.4-3.4-7-4.5-10.6
		c-1.2-3.6-2-7.4-2.3-11.4c-0.6-6,0.1-11.6,2-16.8c1.8-5.2,4.7-9.9,8.5-14.4l0.3-0.3C15.5,44.5,20.1,39.1,29.1,42.2z M29.6,49.1
		l-2-0.1l-0.5-0.2c-4.8-1.8-7.9,1.8-11,5.4l-0.3,0.3c-3.2,3.8-5.7,7.8-7.2,12.2c-1.5,4.3-2.1,8.9-1.6,13.9c0.3,3.4,1,6.7,2.1,10
		c1,3.3,2.4,6.4,4,9.4c6.2,11.7,13.7,22.4,22.4,32c8.7,9.7,18.6,18.2,29.6,25.7c6,4.1,12.3,7.7,18.8,10.5c6.5,2.7,13.3,4.7,20.5,5.5
		c6.4,0.7,12.5,0.2,18-1.6c5.5-1.8,10.6-5,15.1-9.7c1.2-1.2,2.2-2.5,2.9-3.8c0.6-1.2,1.1-2.5,1.1-4l0.2-3.6c0.1-1.2,0.3-2.4,0.5-3.6
		c0.1-0.5,0.1-0.8,0-1c-0.1-0.2-0.5-0.5-1-0.8c-4.7-2.6-9.5-5.1-14.4-7.5c-4.7-2.3-9.6-4.6-14.7-6.8c-0.6-0.3-1-0.4-1.3-0.3
		c-0.2,0.1-0.6,0.4-1,0.9c-1.8,2.2-3.7,4.5-5.6,6.9c-1.8,2.3-3.6,4.7-5.2,7.1c-1.2,1.7-2.6,2.9-4.3,3.4c-1.8,0.6-3.7,0.4-5.8-0.6
		l-2.4-0.9c-8.5-3.3-16.1-7.9-23-13.4c-6.8-5.5-12.9-11.8-18.4-18.8c-1.6-2-3.1-3.9-4.5-5.9c-1.5-2.1-2.8-4.4-3.8-6.8
		c-0.7-1.6-0.9-3.1-0.6-4.6c0.3-1.5,1.1-2.8,2.4-4c1.8-1.7,3.4-3.6,4.8-5.7c1.5-2.2,2.9-4.4,4.3-6.6c0.2-0.3,0.3-0.6,0.3-0.8
		c0-0.3-0.1-0.6-0.2-1l-2-4.9c-2.8-7-5.6-14.1-8.8-21l0,0C34.9,49.3,34.9,49.3,29.6,49.1C29.7,49.1,29.6,49.1,29.6,49.1z"/>
	<path fill="currentColor" d="M118.7,0h28.4c7,0,12.6,1.6,16.8,4.8c4.1,3.2,6.2,8.2,6.2,15.1c0,13.9-7.9,20.8-23.6,20.8h-18.7V69h-9.1V0z
		 M127.8,7.9v25.2h17.5c4.9,0,8.7-0.9,11.5-2.8c2.7-1.8,4.1-5.1,4.1-9.8c0-2.7-0.4-4.8-1.3-6.6c-0.9-1.7-2.2-3-3.8-3.9
		c-1.7-0.8-3.4-1.4-5.2-1.7c-1.8-0.3-4-0.4-6.5-0.4C144.1,7.9,127.8,7.9,127.8,7.9z"/>
</g>
</svg>
