<?xml version="1.0" encoding="utf-8"?>
<!-- Generator: Adobe Illustrator 21.1.0, SVG Export Plug-In . SVG Version: 6.00 Build 0)  -->
<svg version="1.1" id="Слой_1" xmlns="http://www.w3.org/2000/svg" xmlns:xlink="http://www.w3.org/1999/xlink" x="0px" y="0px"
	 viewBox="0 0 73.8 73.8" enable-background="new 0 0 73.8 73.8" xml:space="preserve">
<g>
	<path d="M0,26.1c0.2-1.2,0.3-2.3,0.6-3.5c2.1-11,10.8-19.8,21.8-22c1.2-0.2,2.4-0.4,3.7-0.6c1.3,0,2.7,0,4,0
		c0.2,0,0.4,0.1,0.6,0.1c1.4,0.2,2.8,0.4,4.1,0.7c11.7,2.9,20,12.6,21.2,24.7c0.7,6.7-0.9,12.8-4.7,18.4c-6.6,9.6-17.8,14-29.2,11.7
		C11.4,53.4,2.5,44.4,0.6,33.7c-0.2-1.1-0.4-2.3-0.6-3.4C0,28.9,0,27.5,0,26.1z M51.3,27.8C51.2,15.2,40.7,4.9,27.9,5
		S4.8,15.6,4.8,28.4c0.1,12.7,10.6,23.1,23.3,23C41.2,51.4,51.4,40.9,51.3,27.8z"/>
	<path d="M73.7,68c-2-1.9-3.9-3.9-5.9-5.8C63,57.5,58.3,52.7,53.6,48c-0.1-0.1-0.3-0.3-0.4-0.3
		c-1.9,1.9-3.7,3.8-5.7,5.7c1.1,1,2.2,2.2,3.4,3.3c5.6,5.6,11.1,11.1,16.7,16.7c0.1,0.1,0.3,0.3,0.4,0.4h0.1c0.3-0.3,0.6-0.7,1-1
		c1.5-1.5,3.1-3,4.7-4.6C73.7,68.1,73.7,68.1,73.7,68z"/>
</g>
<path fill="currentColor" d="M33.1,14.8H16.2v1.5h15.7v5.9h5.8v18.9h-20V15.7h-1.5v26.8h23V21L33.1,14.8z M33.4,17.2l3.5,3.5h-3.5V17.2z"/>
<rect fill="currentColor" x="21.3" y="26.3" width="13" height="1.5"/>
<rect fill="currentColor" x="21.3" y="30.8" width="13" height="1.5"/>
<rect fill="currentColor" x="21.3" y="35.3" width="13" height="1.5"/>
</svg>
