<?xml version="1.0" encoding="utf-8"?>
<!-- Generator: Adobe Illustrator 17.1.0, SVG Export Plug-In . SVG Version: 6.00 Build 0)  -->
<!DOCTYPE svg PUBLIC "-//W3C//DTD SVG 1.1//EN" "http://www.w3.org/Graphics/SVG/1.1/DTD/svg11.dtd">
<svg version="1.1" id="Слой_1" xmlns="http://www.w3.org/2000/svg" xmlns:xlink="http://www.w3.org/1999/xlink" x="0px" y="0px"
	 viewBox="0 0 70 70" enable-background="new 0 0 70 70" xml:space="preserve">
<g>
	<path fill="#D24A43" d="M69.5,40.2c0.8-0.8,0.9-1.8,0.3-2.8c-1.3-2.1-2.6-4.2-3.9-6.2c-0.1-0.2-0.1-0.3-0.1-0.5
		c0.8-2.3,1.6-4.7,2.4-7c0.3-0.9,0.1-1.9-0.7-2.5c-0.4-0.3-0.9-0.6-1.4-0.9c-1.8-1-3.6-2.1-5.5-3.1c-0.1,0-0.1-0.1-0.2-0.2
		c-0.2-1.2-0.4-2.4-0.6-3.6s-0.4-2.4-0.5-3.6c-0.2-1.5-1.3-2.2-2.5-2.2c-1,0-2-0.1-3-0.1c-1.4,0-2.8-0.1-4.2-0.1
		c-0.2,0-0.3-0.1-0.4-0.2c-1.5-2-2.9-4-4.4-6c-0.6-0.9-1.8-1.1-2.7-0.7c-2.2,1.1-4.5,2.1-6.7,3.2c-0.2,0.1-0.3,0.1-0.5,0
		c-2.2-1.1-4.4-2.1-6.7-3.2c-0.9-0.4-2.1-0.3-2.8,0.7c-1.5,2-2.9,4-4.4,6c-0.1,0.2-0.2,0.2-0.4,0.2c-2.4,0.1-4.9,0.2-7.3,0.2
		c-1.2,0-2.1,0.8-2.3,1.9c-0.1,0.8-0.2,1.6-0.4,2.3c-0.3,1.7-0.5,3.4-0.8,5.1c0,0.1-0.1,0.2-0.2,0.2c-2.2,1.2-4.3,2.5-6.5,3.7
		c-1,0.6-1.4,1.6-1,2.7c0.8,2.3,1.6,4.7,2.4,7c0,0.1,0,0.2,0,0.4c-0.4,0.7-0.9,1.4-1.3,2.1c-0.9,1.4-1.8,2.9-2.7,4.3
		c-0.2,0.4-0.4,0.8-0.3,1.3c0,0.7,0.4,1.2,0.9,1.6c1.7,1.7,3.5,3.4,5.2,5.1c0.1,0,0.1,0.1,0.1,0.2c0,0.4,0,0.7-0.1,1.1
		c-0.1,1.1-0.2,2.2-0.3,3.2C6,51,5.9,52.1,5.8,53.1c-0.1,1.1,0.6,2.1,1.7,2.4c2.4,0.7,4.8,1.4,7.2,2.1c0.1,0,0.2,0.1,0.2,0.2
		c0.5,1.2,1,2.4,1.5,3.6c0.5,1.1,0.9,2.3,1.4,3.4c0.5,1.1,1.5,1.5,2.6,1.3c2.4-0.5,4.8-1,7.2-1.5c0.2,0,0.3,0,0.4,0.1
		c2,1.6,3.9,3.1,5.9,4.7c0.9,0.7,1.9,0.7,2.7,0c2-1.6,3.9-3.1,5.9-4.7c0.1-0.1,0.2-0.1,0.3-0.1c2,0.4,4.1,0.8,6.1,1.2
		c0.6,0.1,1.2,0.2,1.6,0.3c1.1,0,1.9-0.5,2.2-1.4c1-2.3,1.9-4.6,2.9-6.9c0.1-0.1,0.1-0.2,0.3-0.2c2.4-0.7,4.8-1.4,7.1-2
		c1-0.3,1.6-1.1,1.7-2.1c0-0.6-0.1-1.3-0.1-1.9c-0.1-1.1-0.2-2.1-0.2-3.2c-0.1-0.9-0.1-1.7-0.2-2.6c0-0.2,0-0.3,0.2-0.5
		C66,43.6,67.7,41.9,69.5,40.2z"/>
	<g>
		<path fill="currentColor" d="M24.3,18.9c1.4,0,2.7,0.2,3.9,0.8c1.8,0.8,3,2.2,3.7,4c0.5,1.4,0.6,2.8,0.5,4.2c-0.1,1.1-0.3,2.1-0.8,3.1
			c-0.9,1.8-2.3,3-4.2,3.6C26,34.9,24.8,35,23.5,35c-1-0.1-2-0.3-3-0.7c-1.8-0.8-3-2.2-3.6-4c-0.5-1.3-0.7-2.7-0.6-4.1
			c0.2-1.9,0.8-3.6,2-5c0.8-1,1.9-1.6,3.1-1.9C22.3,19,23.3,18.9,24.3,18.9z M26.8,27.1c0-0.5-0.1-1.1-0.1-1.6
			c-0.1-0.7-0.3-1.4-0.7-2c-0.7-1-2.2-1.1-3-0.1c-0.5,0.6-0.7,1.3-0.8,2.1c-0.2,1-0.2,2.1,0,3.1c0.1,0.7,0.3,1.3,0.6,2
			c0.5,0.9,1.3,1.2,2.3,1c0.7-0.2,1-0.7,1.3-1.3C26.7,29.2,26.8,28.1,26.8,27.1z"/>
		<path fill="currentColor" d="M38.1,43.2c0-1.5,0.3-3,1.1-4.4c0.9-1.6,2.3-2.6,4.1-3.1c2-0.6,4-0.6,6,0.1c2.2,0.7,3.6,2.2,4.4,4.3
			c0.8,2.3,0.7,4.6-0.3,6.9c-1,2.1-2.6,3.3-4.9,3.8c-2,0.4-4,0.4-5.9-0.4c-2.3-0.9-3.7-2.6-4.2-5C38.2,44.8,38.1,44,38.1,43.2
			C38.1,43.2,38.1,43.2,38.1,43.2z M48.4,43.3c0-0.9-0.1-1.9-0.4-2.8c-0.3-0.8-0.7-1.4-1.6-1.5c-0.8-0.1-1.4,0.1-1.9,0.8
			c-0.4,0.6-0.6,1.2-0.7,1.9c-0.2,1-0.2,2.1,0,3.1c0.1,0.8,0.3,1.5,0.7,2.2c0.6,0.9,2,1,2.6,0.5c0.4-0.3,0.7-0.8,0.9-1.2
			C48.3,45.3,48.4,44.3,48.4,43.3z"/>
		<path fill="currentColor" d="M46.1,19.2c-0.2,0.4-0.4,0.8-0.6,1.2c-1.1,2.1-2.3,4.2-3.4,6.3c-1.8,3.3-3.6,6.6-5.3,9.8
			c-2.3,4.2-4.5,8.4-6.8,12.6c-0.3,0.6-0.7,1.3-1,1.9c0,0.1-0.1,0.1-0.2,0.1c-1.3,0-2.6,0-4,0c0,0-0.1,0-0.1,0
			c0.2-0.3,0.3-0.6,0.4-0.8c0.9-1.8,1.9-3.5,2.8-5.3c1.4-2.6,2.8-5.3,4.3-7.9c1.9-3.6,3.9-7.2,5.8-10.7c1.2-2.3,2.5-4.6,3.7-6.9
			c0.1-0.2,0.2-0.3,0.5-0.3c1.2,0,2.5,0,3.7,0C45.9,19.2,46,19.2,46.1,19.2z"/>
	</g>
</g>
</svg>
