<?xml version="1.0" encoding="utf-8"?>
<!-- Generator: Adobe Illustrator 21.1.0, SVG Export Plug-In . SVG Version: 6.00 Build 0)  -->
<svg version="1.1" id="Слой_1" xmlns="http://www.w3.org/2000/svg" xmlns:xlink="http://www.w3.org/1999/xlink" x="0px" y="0px"
	 viewBox="0 0 70.6 61.7" enable-background="new 0 0 70.6 61.7" xml:space="preserve">
<path fill="#F39026" d="M0,45.8C-0.2,39.2,3.4,30,12.6,25.3C6.1,19,7.1,9.1,13,3.7c5.7-5.1,14.5-5,20.1,0.4
	c5.6,5.3,6.4,14.9,0.1,21.2c1,0.6,2,1.2,3,1.9c0.9,0.7,1.8,1.4,2.7,2.2c0,0,0,0.1-0.1,0.1c-0.9,0-1.8-0.1-2.6,0
	c-1.6,0.1-3.1-0.1-4.4-1.1c-1-0.7-1.9-0.7-3.1-0.2c-4.2,1.9-8.5,1.7-12.6-0.4c-0.3-0.2-0.6-0.2-0.9,0C8.8,30.7,4.9,35.5,3.5,42.4
	c0,0,0,0.1,0,0.2c8.6,0,17.2,0,25.8,0c0,1.1,0,2.2,0,3.3C19.6,45.8,9.8,45.8,0,45.8z M22.9,3.2c-6.3,0-11.5,5.1-11.5,11.4
	s5.1,11.5,11.4,11.5S34.3,21,34.3,14.7C34.4,8.4,29.2,3.2,22.9,3.2z"/>
<path fill="currentColor" d="M37.6,40.9c-1.7,0-3.2,0-4.9,0c0-1.1,0-2.1,0-3.3c1.6,0,3.2,0,4.9,0c0-1.7,0-3.2,0-4.9c1.1,0,2.2,0,3.3,0
	c0,1.6,0,3.2,0,4.9c1.7,0,3.3,0,4.9,0c0,1.1,0,2.2,0,3.3c-1.6,0-3.2,0-4.9,0c0,1.7,0,3.2,0,4.9c-1.1,0-2.2,0-3.3,0
	C37.6,44.1,37.6,42.5,37.6,40.9z"/>
<path fill="#F39026" d="M66.6,51.9L66.6,51.9c-0.5-0.5-1-1-1.6-1.4s-1.2-0.7-1.8-1.1c3.8-3.7,3.3-9.4,0-12.6c-0.9-0.9-2-1.5-3.1-1.9
	l0,0c-0.2-0.1-0.5-0.2-0.7-0.2c-0.1,0-0.1,0-0.2,0c-0.2,0-0.4-0.1-0.6-0.1c-0.1,0-0.2,0-0.3,0c-0.2,0-0.3,0-0.5-0.1
	c-0.1,0-0.2,0-0.4,0c-0.1,0-0.3,0-0.4,0s-0.3,0-0.4,0s-0.2,0-0.4,0c-0.2,0-0.3,0-0.5,0.1c-0.1,0-0.2,0-0.3,0c-0.2,0-0.4,0.1-0.6,0.1
	c-0.1,0-0.1,0-0.2,0c-0.2,0.1-0.5,0.1-0.7,0.2l0,0c-1.1,0.4-2.2,1.1-3.1,1.9c-3.3,3.2-3.8,8.9,0,12.6c-0.6,0.4-1.2,0.7-1.8,1.1
	c-0.6,0.4-1.1,0.9-1.6,1.3c0,0,0,0,0,0.1c-3,2.9-4.2,6.8-4.1,9.8c3.2,0,6.5,0,9.7,0c2.6,0,5.2,0,7.8,0c3.2,0,6.5,0,9.7,0
	C70.8,58.7,69.6,54.8,66.6,51.9z M50.3,43.1c0-3.7,3.1-6.8,6.8-6.8c3.7,0,6.8,3.1,6.8,6.8c0,3.7-3,6.8-6.8,6.9
	C53.3,50,50.3,46.9,50.3,43.1z M61,59.7c-2.6,0-5.2,0-7.8,0c-2.5,0-5,0-7.6,0v-0.1c0.8-4,3.1-6.9,6.8-8.6c0.4-0.1,0.7,0,1.1,0.2
	c0.1,0.1,0.3,0.1,0.4,0.2l0,0c0.6,0.2,1.2,0.4,1.8,0.5h0.1c0.2,0,0.5,0.1,0.7,0.1c0.1,0,0.3,0,0.4,0s0.3,0,0.4,0
	c0.2,0,0.5,0,0.7-0.1h0.1c0.6-0.1,1.2-0.3,1.8-0.5l0,0c0.1-0.1,0.3-0.1,0.4-0.2c0.4-0.2,0.8-0.3,1.1-0.2c3.7,1.7,6,4.6,6.8,8.6
	c0,0,0,0,0,0.1C66.1,59.7,63.5,59.7,61,59.7z"/>
</svg>
