<?xml version="1.0" encoding="utf-8"?>
<!-- Generator: Adobe Illustrator 21.1.0, SVG Export Plug-In . SVG Version: 6.00 Build 0)  -->
<svg version="1.1" id="Слой_1" xmlns="http://www.w3.org/2000/svg" xmlns:xlink="http://www.w3.org/1999/xlink" x="0px" y="0px"
	 viewBox="0 0 677.6 768" enable-background="new 0 0 677.6 768" xml:space="preserve">
<path fill="#FF6431" d="M347.8,731c-22.6,0-40.9-18.3-40.9-40.9s18.3-40.9,40.9-40.9c22.5,0,40.9,18.3,40.9,40.9
	S370.3,731,347.8,731z M347.8,667c-12.7,0-23.1,10.4-23.1,23.1s10.4,23.1,23.1,23.1s23.1-10.4,23.1-23.1S360.5,667,347.8,667z"/>
<path fill="#FF6431" d="M358.4,78.5H320c-12,0-21.7-8.8-21.7-19.6S308,39.3,320,39.3h38.4c12,0,21.7,8.8,21.7,19.6
	S370.4,78.5,358.4,78.5z M320,57.2c-2.6,0-3.9,1.4-3.9,1.8s1.3,1.8,3.9,1.8h38.4c2.6,0,3.9-1.4,3.9-1.8s-1.3-1.8-3.9-1.8H320z"/>
<path fill="#FF6431" d="M243.3,78.5c-10.8,0-19.6-8.8-19.6-19.6s8.8-19.6,19.6-19.6s19.6,8.8,19.6,19.6S254.1,78.5,243.3,78.5z
	 M243.3,57.2c-1,0-1.8,0.8-1.8,1.8c0,1.9,3.5,1.9,3.5,0C245,58,244.2,57.2,243.3,57.2z"/>
<path fill="#FF6431" d="M531.7,471.4v148.8h-384V116.6h383.9V160c5.9-0.9,11.8-1.5,17.9-1.7V60.2C549.5,27,523.3,0,491.1,0H188.3
	c-32.2,0-58.4,27-58.4,60.2v647.6c0,33.2,26.2,60.2,58.4,60.2h302.9c32.2,0,58.4-27,58.4-60.2V473.1
	C543.5,472.9,537.5,472.3,531.7,471.4z M147.7,60.2c0-23.4,18.2-42.4,40.5-42.4h302.9c22.3,0,40.5,19,40.5,42.4v38.5H147.7V60.2z
	 M531.7,707.8c0,23.4-18.2,42.4-40.5,42.4H188.3c-22.3,0-40.5-19-40.5-42.4v-69.7h383.9V707.8z"/>
<g>
	<path fill="currentColor" d="M541.7,451.5c26.2,0,51.8-7.4,73.9-21.4c11.9-7.6,22.6-16.9,31.7-27.7l2.4-2.9l27.9,15.6l-1.4-99.4
		l-85.4,50.9l36.2,20.2l-4.1,4.3c-21.3,22.3-50.1,34.6-81.3,34.6c-41.7,0-80.6-23.9-99.8-61h-28.3c7,17.5,17.2,33,30.5,46.3
		C470,437.2,504.7,451.5,541.7,451.5z"/>
	<path fill="currentColor" d="M539.4,211.3c43,0,82.4,24.9,101.2,63.6h28.1c-6.9-18.4-17.5-34.8-31.5-48.8
		c-26.1-26.1-60.8-40.5-97.7-40.5c-26.2,0-51.8,7.4-73.9,21.4c-11.9,7.6-22.6,16.9-31.7,27.7l-2.4,2.9L403.6,222l1.4,99.4l85.4-50.9
		l-36.2-20.2l4-4.3C479.5,223.6,508.3,211.3,539.4,211.3z"/>
</g>
<rect x="283.4" y="248.4" fill="currentColor" width="27.1" height="118.7"/>
<rect x="239.9" y="294.1" fill="currentColor" width="114" height="27.1"/>
</svg>
