<?xml version="1.0" encoding="utf-8"?>
<!-- Generator: Adobe Illustrator 21.1.0, SVG Export Plug-In . SVG Version: 6.00 Build 0)  -->
<svg version="1.1" id="Слой_1" xmlns="http://www.w3.org/2000/svg" xmlns:xlink="http://www.w3.org/1999/xlink" x="0px" y="0px"
	 viewBox="0 0 75.7 85.9" enable-background="new 0 0 75.7 85.9" xml:space="preserve">
<path fill="currentColor" d="M60.7,49.9c2.9,0,5.7-0.8,8.1-2.3c1.3-0.8,2.5-1.9,3.5-3l0.3-0.3l3.1,1.7l-0.2-10.9l-9.4,5.6l4,2.2l-0.4,0.5
	c-2.3,2.5-5.5,3.8-8.9,3.8c-4.6,0-8.8-2.6-11-6.7h-3.1c0.8,1.9,1.9,3.6,3.3,5.1C52.8,48.3,56.7,49.9,60.7,49.9z"/>
<path fill="currentColor" d="M60.5,23.5c4.7,0,9,2.7,11.1,7h3.1c-0.8-2-1.9-3.8-3.5-5.4c-2.9-2.9-6.7-4.4-10.7-4.4c-2.9,0-5.7,0.8-8.1,2.3
	c-1.3,0.8-2.5,1.9-3.5,3l-0.3,0.3l-3.1-1.7l0.2,10.9l9.4-5.6l-4-2.2l0.4-0.5C53.9,24.9,57,23.5,60.5,23.5z"/>
<path d="M38.8,82c-2.5,0-4.6-2.1-4.6-4.6s2.1-4.6,4.6-4.6s4.6,2.1,4.6,4.6S41.4,82,38.8,82z M38.8,74.8
	c-1.4,0-2.6,1.2-2.6,2.6s1.2,2.6,2.6,2.6s2.6-1.2,2.6-2.6S40.3,74.8,38.8,74.8z"/>
<path d="M60.5,53.1c-0.4,0-0.8,0-1.2-0.1v16.5h-43V13.1h43v4.7c0.4,0,0.8-0.1,1.2-0.1c0.3,0,0.6,0,0.8,0v-11
	C61.3,3,58.4,0,54.8,0H20.9c-3.6,0-6.5,3-6.5,6.7v72.5c0,3.7,2.9,6.7,6.5,6.7h33.9c3.6,0,6.5-3,6.5-6.7V53
	C61.1,53.1,60.8,53.1,60.5,53.1z M16.4,6.8c0-2.6,2-4.7,4.5-4.7h33.9c2.5,0,4.5,2.1,4.5,4.7v4.3h-43L16.4,6.8L16.4,6.8z M59.4,79.3
	c0,2.6-2,4.7-4.5,4.7h-34c-2.5,0-4.5-2.1-4.5-4.7v-7.8h43V79.3z"/>
<path fill="currentColor" d="M31.5,36.5c-1.6,0-3.2,0-4.8,0c0-1.1,0-2.1,0-3.2c1.6,0,3.2,0,4.8,0c0-1.6,0-3.2,0-4.8c1.1,0,2.1,0,3.2,0
	c0,1.6,0,3.2,0,4.8c1.6,0,3.2,0,4.8,0c0,1.1,0,2.1,0,3.2c-1.6,0-3.2,0-4.8,0c0,1.6,0,3.2,0,4.8c-1.1,0-2.1,0-3.2,0
	C31.5,39.7,31.5,38.1,31.5,36.5z"/>
</svg>
