<?xml version="1.0" encoding="utf-8"?>
<!-- Generator: Adobe Illustrator 21.1.0, SVG Export Plug-In . SVG Version: 6.00 Build 0)  -->
<svg version="1.1" id="Слой_1" xmlns="http://www.w3.org/2000/svg" xmlns:xlink="http://www.w3.org/1999/xlink" x="0px" y="0px"
	 viewBox="0 0 61 61" enable-background="new 0 0 61 61" xml:space="preserve">
<g>
	<g>
		<path fill="#F39026" d="M48,60.5H13C6.1,60.5,0.5,54.9,0.5,48V13C0.5,6.1,6.1,0.5,13,0.5h35c6.9,0,12.5,5.6,12.5,12.5v35
			C60.5,54.9,54.9,60.5,48,60.5z M13,2.2C7.1,2.2,2.2,7.1,2.2,13v35C2.2,54,7,58.8,13,58.8h35c6,0,10.8-4.8,10.8-10.8V13
			C58.8,7,54,2.2,48,2.2C48,2.2,13,2.2,13,2.2z"/>
	</g>
	<g>
		<g>
			<g>
				<path fill="#2C478A" d="M23.5,51.7c0-1.3,0-2.6,0-3.9c0-1,0.5-1.4,1.4-1.4c0.8,0,1.7-0.1,2.5,0.1c1.7,0.3,2.8,1.8,2.6,3.5
					c-0.2,1.7-1.5,3-3.2,3l0,0c-1.2,0-1.2,0-1.1-1.1c0-0.2,0.1-0.3,0.3-0.3c0.3,0,0.5,0,0.8,0c1-0.1,1.8-0.8,1.8-1.8
					S27.9,48,26.8,48c-0.5,0-1,0-1.4,0S25,48.1,25,48.5c0,2.4,0,4.8,0,7.2c0,0.6,0,0.6-0.6,0.6c-0.9,0-0.9,0-0.9-0.9
					C23.5,54.1,23.5,52.9,23.5,51.7z"/>
			</g>
			<g>
				<path fill="#2C478A" d="M19.9,50.2c-0.7,0-1.3,0-2,0c-0.3,0-0.4-0.1-0.4-0.4c0-0.1,0-0.3,0-0.4c0-0.3,0.1-0.4,0.4-0.4
					c0.8,0,1.7,0,2.5,0c0.4,0,0.5-0.1,0.3-0.4c-0.4-0.8-1.3-1.3-2.2-1.1c-0.9,0.2-1.6,1-1.6,1.9c-0.1,0.9,0.5,1.8,1.4,2.1
					c0.4,0.1,0.8,0.2,1.3,0.2c1,0,1.9,0,2.9,0c0.3,0,0.4,0.1,0.4,0.4c0,1,0,1-1,1s-2,0-3,0c-1.8-0.1-3.3-1.4-3.4-3.2
					c-0.1-1.8,1.2-3.4,2.9-3.7c1.8-0.3,3.4,0.8,3.9,2.6v0.1c0.2,1.1,0.1,1.3-1,1.3C20.9,50.2,20.4,50.2,19.9,50.2z"/>
			</g>
			<g>
				<path fill="#2C478A" d="M37.3,50.2c0,0.8,0,1.6,0,2.4c0,0.3-0.1,0.4-0.4,0.4c-1.1,0-1.1,0-1.1-1.1c0-1.2,0-2.4,0-3.6
					c0-0.4-0.1-0.5-0.5-0.5s-0.9,0-1.3,0c-1,0-1.8,0.8-1.8,1.8s0.8,1.8,1.8,1.8h0.1c1.1,0,1.2,0.1,1,1.2c0,0.2-0.1,0.3-0.3,0.3
					c-0.8,0-1.5,0-2.3-0.3c-1.9-1-2.3-3.2-1.4-4.7c0.6-1,1.6-1.6,2.8-1.6c0.7,0,1.3,0,2,0c0.8,0,1.3,0.5,1.3,1.4
					C37.3,48.6,37.3,49.4,37.3,50.2z"/>
			</g>
			<g>
				<path fill="#2C478A" d="M43.4,50c0-1,0-2,0-3.1c0-0.3,0.1-0.4,0.4-0.4c1.1,0,1.1,0,1.1,1.1c0,1.7,0,3.5,0,5.2
					c0,2.2-1.8,3.8-3.6,3.6c-0.7,0-1.4,0-2.1,0c-0.3,0-0.4-0.1-0.4-0.3c0-1.1,0-1.1,1.1-1.1c0.5,0,1.1,0,1.6,0c1.2,0,2-0.9,2-2
					C43.4,52,43.4,51,43.4,50z"/>
			</g>
			<g>
				<path fill="#2C478A" d="M39.8,48.4c0,0.4,0,0.9,0,1.3c0,1.1,0.8,1.8,1.8,1.9h0.1c0.3,0,0.7-0.2,0.9,0.1s0,0.8,0.1,1.2
					c0,0.1-0.1,0.2-0.2,0.2c-1.5,0.4-3.3-0.5-3.9-2c-0.2-0.4-0.3-0.8-0.3-1.2c0-1,0-1.9,0-2.9c0-0.3,0.1-0.4,0.4-0.4
					c1.1,0,1.1,0,1.1,1.1C39.8,47.9,39.8,48.1,39.8,48.4z"/>
			</g>
		</g>
		<g>
			<g>
				<defs>
					<path id="SVGID_1_" d="M49.4,22.8c-0.2-0.6-0.5-1-1-1.5c-1.6-1.6-3.3-3.3-4.9-4.9l0,0l-0.3-0.3c-0.6-0.6-1.3-1.3-1.9-1.9
						c-2.8-2.8-5.7-5.7-8.5-8.5c-1.5-1.5-3.6-1.5-5.1-0.1c-0.4,0.4-0.9,0.9-1.3,1.3c-4.8,4.8-9.6,9.6-14.4,14.4
						c-1.4,1.4-1.5,3.8-0.1,5.1c2.9,2.9,5.7,5.7,8.6,8.6c2.4,2.4,4.8,4.8,7.2,7.2c1.4,1.4,3.6,1.5,5.1,0c1.9-1.9,3.7-3.7,5.6-5.6
						l0.2-0.2l0,0c3.4-3.4,6.7-6.7,10.1-10.1C49.5,25.5,49.8,24.2,49.4,22.8z"/>
				</defs>
				<clipPath id="SVGID_2_">
					<use xlink:href="#SVGID_1_"  overflow="visible"/>
				</clipPath>
				<polygon clip-path="url(#SVGID_2_)" fill="#2C478A" points="34.1,4.2 41,11.1 17.3,34.7 10.5,27.9 10.5,4.2 				"/>
				
					<rect x="12.4" y="22.9" transform="matrix(0.7071 -0.7071 0.7071 0.7071 -7.6603 27.3324)" clip-path="url(#SVGID_2_)" fill="#2C478A" width="33.5" height="0"/>
				
					<rect x="12.4" y="22.9" transform="matrix(0.7071 -0.7071 0.7071 0.7071 -7.6649 27.3435)" clip-path="url(#SVGID_2_)" fill="#2D4789" width="33.5" height="0"/>
				
					<rect x="12.4" y="22.9" transform="matrix(0.7071 -0.7071 0.7071 0.7071 -7.6695 27.3546)" clip-path="url(#SVGID_2_)" fill="#2E4789" width="33.5" height="0"/>
				
					<rect x="12.5" y="22.9" transform="matrix(0.7071 -0.7071 0.7071 0.7071 -7.674 27.3656)" clip-path="url(#SVGID_2_)" fill="#2F4788" width="33.5" height="0"/>
				
					<rect x="12.5" y="22.9" transform="matrix(0.7071 -0.7071 0.7071 0.7071 -7.6786 27.3767)" clip-path="url(#SVGID_2_)" fill="#304788" width="33.5" height="0"/>
				
					<rect x="12.5" y="23" transform="matrix(0.7071 -0.7071 0.7071 0.7071 -7.6832 27.3877)" clip-path="url(#SVGID_2_)" fill="#314787" width="33.5" height="0"/>
				
					<rect x="12.5" y="23" transform="matrix(0.7071 -0.7071 0.7071 0.7071 -7.6878 27.3988)" clip-path="url(#SVGID_2_)" fill="#324787" width="33.5" height="0"/>
				
					<rect x="12.5" y="23" transform="matrix(0.7071 -0.7071 0.7071 0.7071 -7.6924 27.4099)" clip-path="url(#SVGID_2_)" fill="#334786" width="33.5" height="0"/>
				
					<rect x="12.5" y="23" transform="matrix(0.7071 -0.7071 0.7071 0.7071 -7.6969 27.4209)" clip-path="url(#SVGID_2_)" fill="#344786" width="33.5" height="0"/>
				
					<rect x="12.5" y="23" transform="matrix(0.7071 -0.7071 0.7071 0.7071 -7.7015 27.432)" clip-path="url(#SVGID_2_)" fill="#354785" width="33.5" height="0"/>
				
					<rect x="12.5" y="23" transform="matrix(0.7071 -0.7071 0.7071 0.7071 -7.7061 27.443)" clip-path="url(#SVGID_2_)" fill="#364885" width="33.5" height="0"/>
				
					<rect x="12.5" y="23" transform="matrix(0.7071 -0.7071 0.7071 0.7071 -7.7107 27.4541)" clip-path="url(#SVGID_2_)" fill="#374884" width="33.5" height="0"/>
				
					<rect x="12.6" y="23" transform="matrix(0.7071 -0.7071 0.7071 0.7071 -7.7153 27.4652)" clip-path="url(#SVGID_2_)" fill="#384884" width="33.5" height="0"/>
				
					<rect x="12.6" y="23" transform="matrix(0.7071 -0.7071 0.7071 0.7071 -7.7199 27.4762)" clip-path="url(#SVGID_2_)" fill="#394883" width="33.5" height="0"/>
				
					<rect x="12.6" y="23.1" transform="matrix(0.7071 -0.7071 0.7071 0.7071 -7.7244 27.4873)" clip-path="url(#SVGID_2_)" fill="#3A4882" width="33.5" height="0"/>
				
					<rect x="12.6" y="23.1" transform="matrix(0.7071 -0.7071 0.7071 0.7071 -7.729 27.4983)" clip-path="url(#SVGID_2_)" fill="#3B4882" width="33.5" height="0"/>
				
					<rect x="12.6" y="23.1" transform="matrix(0.7071 -0.7071 0.7071 0.7071 -7.7336 27.5094)" clip-path="url(#SVGID_2_)" fill="#3C4881" width="33.5" height="0"/>
				
					<rect x="12.6" y="23.1" transform="matrix(0.7071 -0.7071 0.7071 0.7071 -7.7382 27.5205)" clip-path="url(#SVGID_2_)" fill="#3D4881" width="33.5" height="0"/>
				
					<rect x="12.6" y="23.1" transform="matrix(0.7071 -0.7071 0.7071 0.7071 -7.7428 27.5315)" clip-path="url(#SVGID_2_)" fill="#3E4880" width="33.5" height="0"/>
				
					<rect x="12.6" y="23.1" transform="matrix(0.7071 -0.7071 0.7071 0.7071 -7.7473 27.5426)" clip-path="url(#SVGID_2_)" fill="#3F4880" width="33.5" height="0"/>
				
					<rect x="12.6" y="23.1" transform="matrix(0.7071 -0.7071 0.7071 0.7071 -7.7519 27.5536)" clip-path="url(#SVGID_2_)" fill="#40487F" width="33.5" height="0"/>
				
					<rect x="12.7" y="23.1" transform="matrix(0.7071 -0.7071 0.7071 0.7071 -7.7565 27.5647)" clip-path="url(#SVGID_2_)" fill="#41487F" width="33.5" height="0"/>
				
					<rect x="12.7" y="23.1" transform="matrix(0.7071 -0.7071 0.7071 0.7071 -7.7611 27.5758)" clip-path="url(#SVGID_2_)" fill="#42487E" width="33.5" height="0"/>
				
					<rect x="12.7" y="23.2" transform="matrix(0.7071 -0.7071 0.7071 0.7071 -7.7657 27.5868)" clip-path="url(#SVGID_2_)" fill="#43487E" width="33.5" height="0"/>
				
					<rect x="12.7" y="23.2" transform="matrix(0.7071 -0.7071 0.7071 0.7071 -7.7702 27.5979)" clip-path="url(#SVGID_2_)" fill="#44487D" width="33.5" height="0"/>
				
					<rect x="12.7" y="23.2" transform="matrix(0.7071 -0.7071 0.7071 0.7071 -7.7748 27.6089)" clip-path="url(#SVGID_2_)" fill="#45487D" width="33.5" height="0"/>
				
					<rect x="12.7" y="23.2" transform="matrix(0.7071 -0.7071 0.7071 0.7071 -7.7794 27.62)" clip-path="url(#SVGID_2_)" fill="#46487C" width="33.5" height="0"/>
				
					<rect x="12.7" y="23.2" transform="matrix(0.7071 -0.7071 0.7071 0.7071 -7.784 27.6311)" clip-path="url(#SVGID_2_)" fill="#47487B" width="33.5" height="0"/>
				
					<rect x="12.7" y="23.2" transform="matrix(0.7071 -0.7071 0.7071 0.7071 -7.7886 27.6421)" clip-path="url(#SVGID_2_)" fill="#48487B" width="33.5" height="0"/>
				
					<rect x="12.7" y="23.2" transform="matrix(0.7071 -0.7071 0.7071 0.7071 -7.7932 27.6532)" clip-path="url(#SVGID_2_)" fill="#49497A" width="33.5" height="0"/>
				
					<rect x="12.8" y="23.2" transform="matrix(0.7071 -0.7071 0.7071 0.7071 -7.7977 27.6642)" clip-path="url(#SVGID_2_)" fill="#4A497A" width="33.5" height="0"/>
				
					<rect x="12.8" y="23.2" transform="matrix(0.7071 -0.7071 0.7071 0.7071 -7.8023 27.6753)" clip-path="url(#SVGID_2_)" fill="#4B4979" width="33.5" height="0"/>
				
					<rect x="12.8" y="23.3" transform="matrix(0.7071 -0.7071 0.7071 0.7071 -7.8069 27.6864)" clip-path="url(#SVGID_2_)" fill="#4C4979" width="33.5" height="0"/>
				
					<rect x="12.8" y="23.3" transform="matrix(0.7071 -0.7071 0.7071 0.7071 -7.8115 27.6974)" clip-path="url(#SVGID_2_)" fill="#4D4978" width="33.5" height="0"/>
				
					<rect x="12.8" y="23.3" transform="matrix(0.7071 -0.7071 0.7071 0.7071 -7.8161 27.7085)" clip-path="url(#SVGID_2_)" fill="#4E4978" width="33.5" height="0"/>
				
					<rect x="12.8" y="23.3" transform="matrix(0.7071 -0.7071 0.7071 0.7071 -7.8206 27.7195)" clip-path="url(#SVGID_2_)" fill="#4F4977" width="33.5" height="0"/>
				
					<rect x="12.8" y="23.3" transform="matrix(0.7071 -0.7071 0.7071 0.7071 -7.8252 27.7306)" clip-path="url(#SVGID_2_)" fill="#504977" width="33.5" height="0"/>
				
					<rect x="12.8" y="23.3" transform="matrix(0.7071 -0.7071 0.7071 0.7071 -7.8298 27.7417)" clip-path="url(#SVGID_2_)" fill="#514976" width="33.5" height="0"/>
				
					<rect x="12.8" y="23.3" transform="matrix(0.7071 -0.7071 0.7071 0.7071 -7.8344 27.7527)" clip-path="url(#SVGID_2_)" fill="#524976" width="33.5" height="0"/>
				
					<rect x="12.9" y="23.3" transform="matrix(0.7071 -0.7071 0.7071 0.7071 -7.839 27.7638)" clip-path="url(#SVGID_2_)" fill="#534975" width="33.5" height="0"/>
				
					<rect x="12.9" y="23.3" transform="matrix(0.7071 -0.7071 0.7071 0.7071 -7.8435 27.7748)" clip-path="url(#SVGID_2_)" fill="#544975" width="33.5" height="0"/>
				
					<rect x="12.9" y="23.4" transform="matrix(0.7071 -0.7071 0.7071 0.7071 -7.8481 27.7859)" clip-path="url(#SVGID_2_)" fill="#554974" width="33.5" height="0"/>
				
					<rect x="12.9" y="23.4" transform="matrix(0.7071 -0.7071 0.7071 0.7071 -7.8527 27.797)" clip-path="url(#SVGID_2_)" fill="#564973" width="33.5" height="0"/>
				
					<rect x="12.9" y="23.4" transform="matrix(0.7071 -0.7071 0.7071 0.7071 -7.8573 27.808)" clip-path="url(#SVGID_2_)" fill="#574973" width="33.5" height="0"/>
				
					<rect x="12.9" y="23.4" transform="matrix(0.7071 -0.7071 0.7071 0.7071 -7.8619 27.8191)" clip-path="url(#SVGID_2_)" fill="#584972" width="33.5" height="0"/>
				
					<rect x="12.9" y="23.4" transform="matrix(0.7071 -0.7071 0.7071 0.7071 -7.8665 27.8301)" clip-path="url(#SVGID_2_)" fill="#594972" width="33.5" height="0"/>
				
					<rect x="12.9" y="23.4" transform="matrix(0.7071 -0.7071 0.7071 0.7071 -7.871 27.8412)" clip-path="url(#SVGID_2_)" fill="#5A4971" width="33.5" height="0"/>
				
					<rect x="12.9" y="23.4" transform="matrix(0.7071 -0.7071 0.7071 0.7071 -7.8756 27.8523)" clip-path="url(#SVGID_2_)" fill="#5B4A71" width="33.5" height="0"/>
				
					<rect x="13" y="23.4" transform="matrix(0.7071 -0.7071 0.7071 0.7071 -7.8802 27.8633)" clip-path="url(#SVGID_2_)" fill="#5C4A70" width="33.5" height="0"/>
				
					<rect x="13" y="23.4" transform="matrix(0.7071 -0.7071 0.7071 0.7071 -7.8848 27.8744)" clip-path="url(#SVGID_2_)" fill="#5D4A70" width="33.5" height="0"/>
				
					<rect x="13" y="23.5" transform="matrix(0.7071 -0.7071 0.7071 0.7071 -7.8894 27.8854)" clip-path="url(#SVGID_2_)" fill="#5E4A6F" width="33.5" height="0"/>
				
					<rect x="13" y="23.5" transform="matrix(0.7071 -0.7071 0.7071 0.7071 -7.8939 27.8965)" clip-path="url(#SVGID_2_)" fill="#5F4A6F" width="33.5" height="0"/>
				
					<rect x="13" y="23.5" transform="matrix(0.7071 -0.7071 0.7071 0.7071 -7.8985 27.9076)" clip-path="url(#SVGID_2_)" fill="#604A6E" width="33.5" height="0"/>
				
					<rect x="13" y="23.5" transform="matrix(0.7071 -0.7071 0.7071 0.7071 -7.9031 27.9186)" clip-path="url(#SVGID_2_)" fill="#614A6E" width="33.5" height="0"/>
				
					<rect x="13" y="23.5" transform="matrix(0.7071 -0.7071 0.7071 0.7071 -7.9077 27.9297)" clip-path="url(#SVGID_2_)" fill="#624A6D" width="33.5" height="0"/>
				
					<rect x="13" y="23.5" transform="matrix(0.7071 -0.7071 0.7071 0.7071 -7.9123 27.9407)" clip-path="url(#SVGID_2_)" fill="#634A6C" width="33.5" height="0"/>
				
					<rect x="13" y="23.5" transform="matrix(0.7071 -0.7071 0.7071 0.7071 -7.9168 27.9518)" clip-path="url(#SVGID_2_)" fill="#644A6C" width="33.5" height="0"/>
				
					<rect x="13.1" y="23.5" transform="matrix(0.7071 -0.7071 0.7071 0.7071 -7.9214 27.9629)" clip-path="url(#SVGID_2_)" fill="#654A6B" width="33.5" height="0"/>
				
					<rect x="13.1" y="23.5" transform="matrix(0.7071 -0.7071 0.7071 0.7071 -7.926 27.9739)" clip-path="url(#SVGID_2_)" fill="#664A6B" width="33.5" height="0"/>
				
					<rect x="13.1" y="23.6" transform="matrix(0.7071 -0.7071 0.7071 0.7071 -7.9306 27.985)" clip-path="url(#SVGID_2_)" fill="#674A6A" width="33.5" height="0"/>
				
					<rect x="13.1" y="23.6" transform="matrix(0.7071 -0.7071 0.7071 0.7071 -7.9352 27.996)" clip-path="url(#SVGID_2_)" fill="#684A6A" width="33.5" height="0"/>
				
					<rect x="13.1" y="23.6" transform="matrix(0.7071 -0.7071 0.7071 0.7071 -7.9398 28.0071)" clip-path="url(#SVGID_2_)" fill="#694A69" width="33.5" height="0"/>
				
					<rect x="13.1" y="23.6" transform="matrix(0.7071 -0.7071 0.7071 0.7071 -7.9443 28.0182)" clip-path="url(#SVGID_2_)" fill="#6A4A69" width="33.5" height="0"/>
				
					<rect x="13.1" y="23.6" transform="matrix(0.7071 -0.7071 0.7071 0.7071 -7.9489 28.0292)" clip-path="url(#SVGID_2_)" fill="#6B4A68" width="33.5" height="0"/>
				
					<rect x="13.1" y="23.6" transform="matrix(0.7071 -0.7071 0.7071 0.7071 -7.9535 28.0403)" clip-path="url(#SVGID_2_)" fill="#6C4A68" width="33.5" height="0"/>
				
					<rect x="13.1" y="23.6" transform="matrix(0.7071 -0.7071 0.7071 0.7071 -7.9581 28.0513)" clip-path="url(#SVGID_2_)" fill="#6D4A67" width="33.5" height="0"/>
				
					<rect x="13.1" y="23.6" transform="matrix(0.7071 -0.7071 0.7071 0.7071 -7.9627 28.0624)" clip-path="url(#SVGID_2_)" fill="#6E4B67" width="33.5" height="0"/>
				
					<rect x="13.2" y="23.6" transform="matrix(0.7071 -0.7071 0.7071 0.7071 -7.9672 28.0735)" clip-path="url(#SVGID_2_)" fill="#6F4B66" width="33.5" height="0"/>
				
					<rect x="13.2" y="23.7" transform="matrix(0.7071 -0.7071 0.7071 0.7071 -7.9718 28.0845)" clip-path="url(#SVGID_2_)" fill="#704B65" width="33.5" height="0"/>
				
					<rect x="13.2" y="23.7" transform="matrix(0.7071 -0.7071 0.7071 0.7071 -7.9764 28.0956)" clip-path="url(#SVGID_2_)" fill="#714B65" width="33.5" height="0"/>
				
					<rect x="13.2" y="23.7" transform="matrix(0.7071 -0.7071 0.7071 0.7071 -7.981 28.1066)" clip-path="url(#SVGID_2_)" fill="#724B64" width="33.5" height="0"/>
				
					<rect x="13.2" y="23.7" transform="matrix(0.7071 -0.7071 0.7071 0.7071 -7.9856 28.1177)" clip-path="url(#SVGID_2_)" fill="#734B64" width="33.5" height="0"/>
				
					<rect x="13.2" y="23.7" transform="matrix(0.7071 -0.7071 0.7071 0.7071 -7.9901 28.1288)" clip-path="url(#SVGID_2_)" fill="#744B63" width="33.5" height="0"/>
				
					<rect x="13.2" y="23.7" transform="matrix(0.7071 -0.7071 0.7071 0.7071 -7.9947 28.1398)" clip-path="url(#SVGID_2_)" fill="#754B63" width="33.5" height="0"/>
				
					<rect x="13.2" y="23.7" transform="matrix(0.7071 -0.7071 0.7071 0.7071 -7.9993 28.1509)" clip-path="url(#SVGID_2_)" fill="#764B62" width="33.5" height="0"/>
				
					<rect x="13.2" y="23.7" transform="matrix(0.7071 -0.7071 0.7071 0.7071 -8.0039 28.1619)" clip-path="url(#SVGID_2_)" fill="#774B62" width="33.5" height="0"/>
				
					<rect x="13.3" y="23.7" transform="matrix(0.7071 -0.7071 0.7071 0.7071 -8.0085 28.173)" clip-path="url(#SVGID_2_)" fill="#784B61" width="33.5" height="0"/>
				
					<rect x="13.3" y="23.8" transform="matrix(0.7071 -0.7071 0.7071 0.7071 -8.013 28.1841)" clip-path="url(#SVGID_2_)" fill="#794B61" width="33.5" height="0"/>
				
					<rect x="13.3" y="23.8" transform="matrix(0.7071 -0.7071 0.7071 0.7071 -8.0176 28.1951)" clip-path="url(#SVGID_2_)" fill="#7A4B60" width="33.5" height="0"/>
				
					<rect x="13.3" y="23.8" transform="matrix(0.7071 -0.7071 0.7071 0.7071 -8.0222 28.2062)" clip-path="url(#SVGID_2_)" fill="#7B4B60" width="33.5" height="0"/>
				
					<rect x="13.3" y="23.8" transform="matrix(0.7071 -0.7071 0.7071 0.7071 -8.0268 28.2172)" clip-path="url(#SVGID_2_)" fill="#7C4B5F" width="33.5" height="0"/>
				
					<rect x="13.3" y="23.8" transform="matrix(0.7071 -0.7071 0.7071 0.7071 -8.0314 28.2283)" clip-path="url(#SVGID_2_)" fill="#7D4B5E" width="33.5" height="0"/>
				
					<rect x="13.3" y="23.8" transform="matrix(0.7071 -0.7071 0.7071 0.7071 -8.036 28.2394)" clip-path="url(#SVGID_2_)" fill="#7E4B5E" width="33.5" height="0"/>
				
					<rect x="13.3" y="23.8" transform="matrix(0.7071 -0.7071 0.7071 0.7071 -8.0405 28.2504)" clip-path="url(#SVGID_2_)" fill="#7F4B5D" width="33.5" height="0"/>
				
					<rect x="13.3" y="23.8" transform="matrix(0.7071 -0.7071 0.7071 0.7071 -8.0451 28.2615)" clip-path="url(#SVGID_2_)" fill="#804B5D" width="33.5" height="0"/>
				
					<rect x="13.4" y="23.8" transform="matrix(0.7071 -0.7071 0.7071 0.7071 -8.0497 28.2725)" clip-path="url(#SVGID_2_)" fill="#814C5C" width="33.5" height="0"/>
				
					<rect x="13.4" y="23.9" transform="matrix(0.7071 -0.7071 0.7071 0.7071 -8.0543 28.2836)" clip-path="url(#SVGID_2_)" fill="#824C5C" width="33.5" height="0"/>
				
					<rect x="13.4" y="23.9" transform="matrix(0.7071 -0.7071 0.7071 0.7071 -8.0589 28.2947)" clip-path="url(#SVGID_2_)" fill="#834C5B" width="33.5" height="0"/>
				
					<rect x="13.4" y="23.9" transform="matrix(0.7071 -0.7071 0.7071 0.7071 -8.0634 28.3057)" clip-path="url(#SVGID_2_)" fill="#844C5B" width="33.5" height="0"/>
				
					<rect x="13.4" y="23.9" transform="matrix(0.7071 -0.7071 0.7071 0.7071 -8.068 28.3168)" clip-path="url(#SVGID_2_)" fill="#854C5A" width="33.5" height="0"/>
				
					<rect x="13.4" y="23.9" transform="matrix(0.7071 -0.7071 0.7071 0.7071 -8.0726 28.3278)" clip-path="url(#SVGID_2_)" fill="#864C5A" width="33.5" height="0"/>
				
					<rect x="13.4" y="23.9" transform="matrix(0.7071 -0.7071 0.7071 0.7071 -8.0772 28.3389)" clip-path="url(#SVGID_2_)" fill="#874C59" width="33.5" height="0"/>
				
					<rect x="13.4" y="23.9" transform="matrix(0.7071 -0.7071 0.7071 0.7071 -8.0818 28.35)" clip-path="url(#SVGID_2_)" fill="#884C59" width="33.5" height="0"/>
				
					<rect x="13.4" y="23.9" transform="matrix(0.7071 -0.7071 0.7071 0.7071 -8.0863 28.361)" clip-path="url(#SVGID_2_)" fill="#894C58" width="33.5" height="0"/>
				
					<rect x="13.5" y="23.9" transform="matrix(0.7071 -0.7071 0.7071 0.7071 -8.0909 28.3721)" clip-path="url(#SVGID_2_)" fill="#8B4C58" width="33.5" height="0"/>
				
					<rect x="13.5" y="24" transform="matrix(0.7071 -0.7071 0.7071 0.7071 -8.0955 28.3831)" clip-path="url(#SVGID_2_)" fill="#8C4C57" width="33.5" height="0"/>
				
					<rect x="13.5" y="24" transform="matrix(0.7071 -0.7071 0.7071 0.7071 -8.1001 28.3942)" clip-path="url(#SVGID_2_)" fill="#8D4C56" width="33.5" height="0"/>
				
					<rect x="13.5" y="24" transform="matrix(0.7071 -0.7071 0.7071 0.7071 -8.1047 28.4053)" clip-path="url(#SVGID_2_)" fill="#8E4C56" width="33.5" height="0"/>
				
					<rect x="13.5" y="24" transform="matrix(0.7071 -0.7071 0.7071 0.7071 -8.1093 28.4163)" clip-path="url(#SVGID_2_)" fill="#8F4C55" width="33.5" height="0"/>
				
					<rect x="13.5" y="24" transform="matrix(0.7071 -0.7071 0.7071 0.7071 -8.1138 28.4274)" clip-path="url(#SVGID_2_)" fill="#904C55" width="33.5" height="0"/>
				
					<rect x="13.5" y="24" transform="matrix(0.7071 -0.7071 0.7071 0.7071 -8.1184 28.4384)" clip-path="url(#SVGID_2_)" fill="#914C54" width="33.5" height="0"/>
				
					<rect x="13.5" y="24" transform="matrix(0.7071 -0.7071 0.7071 0.7071 -8.123 28.4495)" clip-path="url(#SVGID_2_)" fill="#924C54" width="33.5" height="0"/>
				
					<rect x="13.5" y="24" transform="matrix(0.7071 -0.7071 0.7071 0.7071 -8.1276 28.4606)" clip-path="url(#SVGID_2_)" fill="#934C53" width="33.5" height="0"/>
				
					<rect x="13.6" y="24" transform="matrix(0.7071 -0.7071 0.7071 0.7071 -8.1322 28.4716)" clip-path="url(#SVGID_2_)" fill="#944C53" width="33.5" height="0"/>
				
					<rect x="13.6" y="24.1" transform="matrix(0.7071 -0.7071 0.7071 0.7071 -8.1367 28.4827)" clip-path="url(#SVGID_2_)" fill="#954D52" width="33.5" height="0"/>
				
					<rect x="13.6" y="24.1" transform="matrix(0.7071 -0.7071 0.7071 0.7071 -8.1413 28.4937)" clip-path="url(#SVGID_2_)" fill="#964D52" width="33.5" height="0"/>
				
					<rect x="13.6" y="24.1" transform="matrix(0.7071 -0.7071 0.7071 0.7071 -8.1459 28.5048)" clip-path="url(#SVGID_2_)" fill="#974D51" width="33.5" height="0"/>
				
					<rect x="13.6" y="24.1" transform="matrix(0.7071 -0.7071 0.7071 0.7071 -8.1505 28.5159)" clip-path="url(#SVGID_2_)" fill="#984D51" width="33.5" height="0"/>
				
					<rect x="13.6" y="24.1" transform="matrix(0.7071 -0.7071 0.7071 0.7071 -8.1551 28.5269)" clip-path="url(#SVGID_2_)" fill="#994D50" width="33.5" height="0"/>
				
					<rect x="13.6" y="24.1" transform="matrix(0.7071 -0.7071 0.7071 0.7071 -8.1596 28.538)" clip-path="url(#SVGID_2_)" fill="#9A4D4F" width="33.5" height="0"/>
				
					<rect x="13.6" y="24.1" transform="matrix(0.7071 -0.7071 0.7071 0.7071 -8.1642 28.549)" clip-path="url(#SVGID_2_)" fill="#9B4D4F" width="33.5" height="0"/>
				
					<rect x="13.6" y="24.1" transform="matrix(0.7071 -0.7071 0.7071 0.7071 -8.1688 28.5601)" clip-path="url(#SVGID_2_)" fill="#9C4D4E" width="33.5" height="0"/>
				
					<rect x="13.7" y="24.1" transform="matrix(0.7071 -0.7071 0.7071 0.7071 -8.1734 28.5711)" clip-path="url(#SVGID_2_)" fill="#9D4D4E" width="33.5" height="0"/>
				
					<rect x="13.7" y="24.2" transform="matrix(0.7071 -0.7071 0.7071 0.7071 -8.178 28.5822)" clip-path="url(#SVGID_2_)" fill="#9E4D4D" width="33.5" height="0"/>
				
					<rect x="13.7" y="24.2" transform="matrix(0.7071 -0.7071 0.7071 0.7071 -8.1826 28.5933)" clip-path="url(#SVGID_2_)" fill="#9F4D4D" width="33.5" height="0"/>
				
					<rect x="13.7" y="24.2" transform="matrix(0.7071 -0.7071 0.7071 0.7071 -8.1871 28.6043)" clip-path="url(#SVGID_2_)" fill="#A04D4C" width="33.5" height="0"/>
				
					<rect x="13.7" y="24.2" transform="matrix(0.7071 -0.7071 0.7071 0.7071 -8.1917 28.6154)" clip-path="url(#SVGID_2_)" fill="#A14D4C" width="33.5" height="0"/>
				
					<rect x="13.7" y="24.2" transform="matrix(0.7071 -0.7071 0.7071 0.7071 -8.1963 28.6264)" clip-path="url(#SVGID_2_)" fill="#A24D4B" width="33.5" height="0"/>
				
					<rect x="13.7" y="24.2" transform="matrix(0.7071 -0.7071 0.7071 0.7071 -8.2009 28.6375)" clip-path="url(#SVGID_2_)" fill="#A34D4B" width="33.5" height="0"/>
				
					<rect x="13.7" y="24.2" transform="matrix(0.7071 -0.7071 0.7071 0.7071 -8.2055 28.6486)" clip-path="url(#SVGID_2_)" fill="#A44D4A" width="33.5" height="0"/>
				
					<rect x="13.7" y="24.2" transform="matrix(0.7071 -0.7071 0.7071 0.7071 -8.21 28.6596)" clip-path="url(#SVGID_2_)" fill="#A54D4A" width="33.5" height="0"/>
				
					<rect x="13.8" y="24.2" transform="matrix(0.7071 -0.7071 0.7071 0.7071 -8.2146 28.6707)" clip-path="url(#SVGID_2_)" fill="#A64D49" width="33.5" height="0"/>
				
					<rect x="13.8" y="24.3" transform="matrix(0.7071 -0.7071 0.7071 0.7071 -8.2192 28.6817)" clip-path="url(#SVGID_2_)" fill="#A74D48" width="33.5" height="0"/>
				
					<rect x="13.8" y="24.3" transform="matrix(0.7071 -0.7071 0.7071 0.7071 -8.2238 28.6928)" clip-path="url(#SVGID_2_)" fill="#A84E48" width="33.5" height="0"/>
				
					<rect x="13.8" y="24.3" transform="matrix(0.7071 -0.7071 0.7071 0.7071 -8.2284 28.7039)" clip-path="url(#SVGID_2_)" fill="#A94E47" width="33.5" height="0"/>
				
					<rect x="13.8" y="24.3" transform="matrix(0.7071 -0.7071 0.7071 0.7071 -8.2329 28.7149)" clip-path="url(#SVGID_2_)" fill="#AA4E47" width="33.5" height="0"/>
				
					<rect x="13.8" y="24.3" transform="matrix(0.7071 -0.7071 0.7071 0.7071 -8.2375 28.726)" clip-path="url(#SVGID_2_)" fill="#AB4E46" width="33.5" height="0"/>
				
					<rect x="13.8" y="24.3" transform="matrix(0.7071 -0.7071 0.7071 0.7071 -8.2421 28.737)" clip-path="url(#SVGID_2_)" fill="#AC4E46" width="33.5" height="0"/>
				
					<rect x="13.8" y="24.3" transform="matrix(0.7071 -0.7071 0.7071 0.7071 -8.2467 28.7481)" clip-path="url(#SVGID_2_)" fill="#AD4E45" width="33.5" height="0"/>
				
					<rect x="13.8" y="24.3" transform="matrix(0.7071 -0.7071 0.7071 0.7071 -8.2513 28.7592)" clip-path="url(#SVGID_2_)" fill="#AE4E45" width="33.5" height="0"/>
				
					<rect x="13.9" y="24.3" transform="matrix(0.7071 -0.7071 0.7071 0.7071 -8.2558 28.7702)" clip-path="url(#SVGID_2_)" fill="#AF4E44" width="33.5" height="0"/>
				
					<rect x="13.9" y="24.4" transform="matrix(0.7071 -0.7071 0.7071 0.7071 -8.2604 28.7813)" clip-path="url(#SVGID_2_)" fill="#B04E44" width="33.5" height="0"/>
				
					<rect x="13.9" y="24.4" transform="matrix(0.7071 -0.7071 0.7071 0.7071 -8.265 28.7923)" clip-path="url(#SVGID_2_)" fill="#B14E43" width="33.5" height="0"/>
				
					<rect x="13.9" y="24.4" transform="matrix(0.7071 -0.7071 0.7071 0.7071 -8.2696 28.8034)" clip-path="url(#SVGID_2_)" fill="#B24E43" width="33.5" height="0"/>
				
					<rect x="13.9" y="24.4" transform="matrix(0.7071 -0.7071 0.7071 0.7071 -8.2742 28.8145)" clip-path="url(#SVGID_2_)" fill="#B34E42" width="33.5" height="0"/>
				
					<rect x="13.9" y="24.4" transform="matrix(0.7071 -0.7071 0.7071 0.7071 -8.2788 28.8255)" clip-path="url(#SVGID_2_)" fill="#B44E41" width="33.5" height="0"/>
				
					<rect x="13.9" y="24.4" transform="matrix(0.7071 -0.7071 0.7071 0.7071 -8.2833 28.8366)" clip-path="url(#SVGID_2_)" fill="#B54E41" width="33.5" height="0"/>
				
					<rect x="13.9" y="24.4" transform="matrix(0.7071 -0.7071 0.7071 0.7071 -8.2879 28.8476)" clip-path="url(#SVGID_2_)" fill="#B64E40" width="33.5" height="0"/>
				
					<rect x="13.9" y="24.4" transform="matrix(0.7071 -0.7071 0.7071 0.7071 -8.2925 28.8587)" clip-path="url(#SVGID_2_)" fill="#B74E40" width="33.5" height="0"/>
				
					<rect x="14" y="24.4" transform="matrix(0.7071 -0.7071 0.7071 0.7071 -8.2971 28.8698)" clip-path="url(#SVGID_2_)" fill="#B84E3F" width="33.5" height="0"/>
				
					<rect x="14" y="24.5" transform="matrix(0.7071 -0.7071 0.7071 0.7071 -8.3017 28.8808)" clip-path="url(#SVGID_2_)" fill="#B94E3F" width="33.5" height="0"/>
				
					<rect x="14" y="24.5" transform="matrix(0.7071 -0.7071 0.7071 0.7071 -8.3062 28.8919)" clip-path="url(#SVGID_2_)" fill="#BA4F3E" width="33.5" height="0"/>
				
					<rect x="14" y="24.5" transform="matrix(0.7071 -0.7071 0.7071 0.7071 -8.3108 28.9029)" clip-path="url(#SVGID_2_)" fill="#BB4F3E" width="33.5" height="0"/>
				
					<rect x="14" y="24.5" transform="matrix(0.7071 -0.7071 0.7071 0.7071 -8.3154 28.914)" clip-path="url(#SVGID_2_)" fill="#BC4F3D" width="33.5" height="0"/>
				
					<rect x="14" y="24.5" transform="matrix(0.7071 -0.7071 0.7071 0.7071 -8.32 28.9251)" clip-path="url(#SVGID_2_)" fill="#BD4F3D" width="33.5" height="0"/>
				
					<rect x="14" y="24.5" transform="matrix(0.7071 -0.7071 0.7071 0.7071 -8.3246 28.9361)" clip-path="url(#SVGID_2_)" fill="#BE4F3C" width="33.5" height="0"/>
				
					<rect x="14" y="24.5" transform="matrix(0.7071 -0.7071 0.7071 0.7071 -8.3291 28.9472)" clip-path="url(#SVGID_2_)" fill="#BF4F3C" width="33.5" height="0"/>
				
					<rect x="14" y="24.5" transform="matrix(0.7071 -0.7071 0.7071 0.7071 -8.3337 28.9582)" clip-path="url(#SVGID_2_)" fill="#C04F3B" width="33.5" height="0"/>
				
					<rect x="14.1" y="24.5" transform="matrix(0.7071 -0.7071 0.7071 0.7071 -8.3383 28.9693)" clip-path="url(#SVGID_2_)" fill="#C14F3A" width="33.5" height="0"/>
				
					<rect x="14.1" y="24.6" transform="matrix(0.7071 -0.7071 0.7071 0.7071 -8.3429 28.9804)" clip-path="url(#SVGID_2_)" fill="#C24F3A" width="33.5" height="0"/>
				
					<rect x="14.1" y="24.6" transform="matrix(0.7071 -0.7071 0.7071 0.7071 -8.3475 28.9914)" clip-path="url(#SVGID_2_)" fill="#C34F39" width="33.5" height="0"/>
				
					<rect x="14.1" y="24.6" transform="matrix(0.7071 -0.7071 0.7071 0.7071 -8.3521 29.0025)" clip-path="url(#SVGID_2_)" fill="#C44F39" width="33.5" height="0"/>
				
					<rect x="14.1" y="24.6" transform="matrix(0.7071 -0.7071 0.7071 0.7071 -8.3566 29.0135)" clip-path="url(#SVGID_2_)" fill="#C54F38" width="33.5" height="0"/>
				
					<rect x="14.1" y="24.6" transform="matrix(0.7071 -0.7071 0.7071 0.7071 -8.3612 29.0246)" clip-path="url(#SVGID_2_)" fill="#C64F38" width="33.5" height="0"/>
				
					<rect x="14.1" y="24.6" transform="matrix(0.7071 -0.7071 0.7071 0.7071 -8.3658 29.0357)" clip-path="url(#SVGID_2_)" fill="#C74F37" width="33.5" height="0"/>
				
					<rect x="14.1" y="24.6" transform="matrix(0.7071 -0.7071 0.7071 0.7071 -8.3704 29.0467)" clip-path="url(#SVGID_2_)" fill="#C84F37" width="33.5" height="0"/>
				
					<rect x="14.1" y="24.6" transform="matrix(0.7071 -0.7071 0.7071 0.7071 -8.375 29.0578)" clip-path="url(#SVGID_2_)" fill="#C94F36" width="33.5" height="0"/>
				
					<rect x="14.2" y="24.6" transform="matrix(0.7071 -0.7071 0.7071 0.7071 -8.3795 29.0688)" clip-path="url(#SVGID_2_)" fill="#CA4F36" width="33.5" height="0"/>
				
					<rect x="14.2" y="24.7" transform="matrix(0.7071 -0.7071 0.7071 0.7071 -8.3841 29.0799)" clip-path="url(#SVGID_2_)" fill="#CB4F35" width="33.5" height="0"/>
				
					<rect x="14.2" y="24.7" transform="matrix(0.7071 -0.7071 0.7071 0.7071 -8.3887 29.091)" clip-path="url(#SVGID_2_)" fill="#CC4F35" width="33.5" height="0"/>
				
					<rect x="14.2" y="24.7" transform="matrix(0.7071 -0.7071 0.7071 0.7071 -8.3933 29.102)" clip-path="url(#SVGID_2_)" fill="#CD5034" width="33.5" height="0"/>
				
					<rect x="14.2" y="24.7" transform="matrix(0.7071 -0.7071 0.7071 0.7071 -8.3979 29.1131)" clip-path="url(#SVGID_2_)" fill="#CE5034" width="33.5" height="0"/>
				
					<rect x="14.2" y="24.7" transform="matrix(0.7071 -0.7071 0.7071 0.7071 -8.4024 29.1241)" clip-path="url(#SVGID_2_)" fill="#CF5033" width="33.5" height="0"/>
				
					<rect x="14.2" y="24.7" transform="matrix(0.7071 -0.7071 0.7071 0.7071 -8.407 29.1352)" clip-path="url(#SVGID_2_)" fill="#D05032" width="33.5" height="0"/>
				
					<rect x="14.2" y="24.7" transform="matrix(0.7071 -0.7071 0.7071 0.7071 -8.4116 29.1463)" clip-path="url(#SVGID_2_)" fill="#D15032" width="33.5" height="0"/>
				
					<rect x="14.2" y="24.7" transform="matrix(0.7071 -0.7071 0.7071 0.7071 -8.4162 29.1573)" clip-path="url(#SVGID_2_)" fill="#D25031" width="33.5" height="0"/>
				
					<rect x="14.3" y="24.7" transform="matrix(0.7071 -0.7071 0.7071 0.7071 -8.4208 29.1684)" clip-path="url(#SVGID_2_)" fill="#D35031" width="33.5" height="0"/>
				
					<rect x="14.3" y="24.8" transform="matrix(0.7071 -0.7071 0.7071 0.7071 -8.4254 29.1794)" clip-path="url(#SVGID_2_)" fill="#D45030" width="33.5" height="0"/>
				
					<rect x="14.3" y="24.8" transform="matrix(0.7071 -0.7071 0.7071 0.7071 -8.4299 29.1905)" clip-path="url(#SVGID_2_)" fill="#D55030" width="33.5" height="0"/>
				
					<rect x="14.3" y="24.8" transform="matrix(0.7071 -0.7071 0.7071 0.7071 -8.4345 29.2016)" clip-path="url(#SVGID_2_)" fill="#D6502F" width="33.5" height="0"/>
				
					<rect x="14.3" y="24.8" transform="matrix(0.7071 -0.7071 0.7071 0.7071 -8.4391 29.2126)" clip-path="url(#SVGID_2_)" fill="#D7502F" width="33.5" height="0"/>
				
					<rect x="14.3" y="24.8" transform="matrix(0.7071 -0.7071 0.7071 0.7071 -8.4437 29.2237)" clip-path="url(#SVGID_2_)" fill="#D8502E" width="33.5" height="0"/>
				
					<rect x="14.3" y="24.8" transform="matrix(0.7071 -0.7071 0.7071 0.7071 -8.4483 29.2347)" clip-path="url(#SVGID_2_)" fill="#D9502E" width="33.5" height="0"/>
				
					<rect x="14.3" y="24.8" transform="matrix(0.7071 -0.7071 0.7071 0.7071 -8.4528 29.2458)" clip-path="url(#SVGID_2_)" fill="#DA502D" width="33.5" height="0"/>
				
					<rect x="14.3" y="24.8" transform="matrix(0.7071 -0.7071 0.7071 0.7071 -8.4574 29.2569)" clip-path="url(#SVGID_2_)" fill="#DB502D" width="33.5" height="0"/>
				
					<rect x="14.4" y="24.8" transform="matrix(0.7071 -0.7071 0.7071 0.7071 -8.462 29.2679)" clip-path="url(#SVGID_2_)" fill="#DC502C" width="33.5" height="0"/>
				
					<rect x="14.4" y="24.9" transform="matrix(0.7071 -0.7071 0.7071 0.7071 -8.4666 29.279)" clip-path="url(#SVGID_2_)" fill="#DD502B" width="33.5" height="0"/>
				
					<rect x="14.4" y="24.9" transform="matrix(0.7071 -0.7071 0.7071 0.7071 -8.4712 29.29)" clip-path="url(#SVGID_2_)" fill="#DE502B" width="33.5" height="0"/>
				
					<rect x="14.4" y="24.9" transform="matrix(0.7071 -0.7071 0.7071 0.7071 -8.4757 29.3011)" clip-path="url(#SVGID_2_)" fill="#DF502A" width="33.5" height="0"/>
				
					<rect x="14.4" y="24.9" transform="matrix(0.7071 -0.7071 0.7071 0.7071 -8.4803 29.3122)" clip-path="url(#SVGID_2_)" fill="#E0512A" width="33.5" height="0"/>
				
					<rect x="14.4" y="24.9" transform="matrix(0.7071 -0.7071 0.7071 0.7071 -8.4849 29.3232)" clip-path="url(#SVGID_2_)" fill="#E15129" width="33.5" height="0"/>
				
					<rect x="14.4" y="24.9" transform="matrix(0.7071 -0.7071 0.7071 0.7071 -8.4895 29.3343)" clip-path="url(#SVGID_2_)" fill="#E25129" width="33.5" height="0"/>
				
					<rect x="14.4" y="24.9" transform="matrix(0.7071 -0.7071 0.7071 0.7071 -8.4941 29.3453)" clip-path="url(#SVGID_2_)" fill="#E35128" width="33.5" height="0"/>
				
					<rect x="14.4" y="24.9" transform="matrix(0.7071 -0.7071 0.7071 0.7071 -8.4987 29.3564)" clip-path="url(#SVGID_2_)" fill="#E45128" width="33.5" height="0"/>
				
					<rect x="14.5" y="24.9" transform="matrix(0.7071 -0.7071 0.7071 0.7071 -8.5032 29.3675)" clip-path="url(#SVGID_2_)" fill="#E55127" width="33.5" height="0"/>
				
					<rect x="14.5" y="25" transform="matrix(0.7071 -0.7071 0.7071 0.7071 -8.5078 29.3785)" clip-path="url(#SVGID_2_)" fill="#E65127" width="33.5" height="0"/>
				
					<rect x="14.5" y="25" transform="matrix(0.7071 -0.7071 0.7071 0.7071 -8.5124 29.3896)" clip-path="url(#SVGID_2_)" fill="#E75126" width="33.5" height="0"/>
				
					<rect x="14.5" y="25" transform="matrix(0.7071 -0.7071 0.7071 0.7071 -8.517 29.4006)" clip-path="url(#SVGID_2_)" fill="#E85126" width="33.5" height="0"/>
				
					<rect x="14.5" y="25" transform="matrix(0.7071 -0.7071 0.7071 0.7071 -8.5216 29.4117)" clip-path="url(#SVGID_2_)" fill="#E95125" width="33.5" height="0"/>
				<polygon clip-path="url(#SVGID_2_)" fill="#E95125" points="43.1,13.2 49.8,19.9 49.8,43.7 26.3,43.7 19.4,36.8 				"/>
			</g>
		</g>
		<g>
			<g>
				<path fill="#FEFEFE" d="M30.7,35.5c-1.8,0-3.5-0.4-5.1-1.2c-0.8-0.4-0.8-0.4-0.2-1c0.6-0.6,1.2-1.2,1.7-1.8
					c0.3-0.3,0.5-0.3,0.9-0.2c0.9,0.4,1.9,0.5,2.9,0.4c3.2-0.1,6.2-2.4,7.1-5.5c0-0.1,0.1-0.2,0.1-0.3c0-0.3,0.1-0.4,0.4-0.1
					c0.8,0.8,1.6,1.7,2.5,2.5c0.2,0.2,0.2,0.3,0.1,0.5c-1.5,3.1-3.9,5.2-7.2,6.2C32.9,35.4,31.8,35.5,30.7,35.5z"/>
			</g>
			<g>
				<path fill="#FEFEFE" d="M23,32.6c-0.4-0.3-0.3-0.5,0-0.8c5.2-5.1,10.3-10.3,15.5-15.5c0.3-0.3,0.5-0.4,0.7,0
					c0.2,0.3,0.4,0.6,0.7,0.8c0.2,0.2,0.1,0.3,0,0.5c-0.3,0.3-0.6,0.6-0.8,0.8c-4.9,4.9-9.7,9.7-14.6,14.6c-0.3,0.3-0.6,0.4-0.9,0
					c-0.1-0.1-0.3-0.2-0.4-0.3C23,32.6,23,32.6,23,32.6L23,32.6z"/>
			</g>
			<g>
				<path fill="#FEFEFE" d="M22,31.5c-1.2-1.4-2.1-2.9-2.5-4.7c-1-4.9,0.7-9.8,5.2-12.6c3.5-2.1,7.2-2.2,10.9-0.6
					c0.8,0.4,1.5,0.9,2.2,1.3c0.3,0.2,0.3,0.3,0,0.6C32.6,20.7,27.5,25.8,22.3,31C22.2,31.2,22.1,31.4,22,31.5z M31.1,16.2
					c-0.9,0-1.7,0.1-2.5,0.4c-4,1.3-6.3,6-4.8,10c0.1,0.2,0.1,0.4,0.4,0.1c3.2-3.2,6.4-6.4,9.6-9.6c0.2-0.2,0.2-0.3-0.1-0.4
					C32.8,16.4,32,16.2,31.1,16.2z"/>
			</g>
		</g>
	</g>
</g>
</svg>
