<?xml version="1.0" encoding="utf-8"?>
<!-- Generator: Adobe Illustrator 21.1.0, SVG Export Plug-In . SVG Version: 6.00 Build 0)  -->
<svg version="1.1" id="Слой_1" xmlns="http://www.w3.org/2000/svg" xmlns:xlink="http://www.w3.org/1999/xlink" x="0px" y="0px"
	 viewBox="0 0 46.9 85.9" enable-background="new 0 0 46.9 85.9" xml:space="preserve">
<g>
	<path fill="#F39026" d="M40.5,0h-34C2.9,0,0,3,0,6.7v72.5c0,3.7,2.9,6.7,6.5,6.7h33.9c3.6,0,6.5-3,6.5-6.7V6.8
		C47,3.1,44.1,0,40.5,0z M6.5,2h33.9c2.5,0,4.5,2.1,4.5,4.7V11H2V6.8C2,4.2,4,2,6.5,2z M45,13.1v56.4H2V13.1H45z M40.5,84h-34
		C4,84,2,81.9,2,79.3v-7.8h43v7.8C45,81.9,43,84,40.5,84z"/>
	<path fill="#F39026" d="M24.5,82c-2.5,0-4.6-2.1-4.6-4.6s2.1-4.6,4.6-4.6s4.6,2.1,4.6,4.6S27,82,24.5,82z M24.5,74.8
		c-1.4,0-2.6,1.2-2.6,2.6s1.2,2.6,2.6,2.6s2.5-1.2,2.5-2.6S25.9,74.8,24.5,74.8z"/>
	<path fill="#F39026" d="M25.7,8.7h-4.3c-1.3,0-2.4-1-2.4-2.2s1.1-2.2,2.4-2.2h4.3c1.3,0,2.4,1,2.4,2.2S27,8.7,25.7,8.7z M21.3,6.3
		c-0.3,0-0.4,0.2-0.4,0.2s0.1,0.2,0.4,0.2h4.3c0.3,0,0.4-0.2,0.4-0.2s-0.1-0.2-0.4-0.2H21.3z"/>
	<path fill="#F39026" d="M12.7,8.7c-1.2,0-2.2-1-2.2-2.2s1-2.2,2.2-2.2s2.2,1,2.2,2.2S13.9,8.7,12.7,8.7z M12.7,6.3
		c-0.1,0-0.2,0.1-0.2,0.2c0,0.2,0.4,0.2,0.4,0C12.9,6.4,12.8,6.3,12.7,6.3z"/>
</g>
<path fill="#F39026" d="M34,59.4H12.9c-4.1,0-7.5-3.4-7.5-7.5V30.8c0-4.1,3.4-7.5,7.5-7.5H34c4.1,0,7.5,3.4,7.5,7.5v21.1
	C41.5,56,38.1,59.4,34,59.4z M12.9,24.3c-3.6,0-6.5,2.9-6.5,6.5v21.1c0,3.6,2.9,6.5,6.5,6.5H34c3.6,0,6.5-2.9,6.5-6.5V30.8
	c0-3.6-2.9-6.5-6.5-6.5H12.9z"/>
<g>
	<g>
		<path fill="#2C478A" d="M19.2,54.1c0-0.8,0-1.6,0-2.3c0-0.6,0.3-0.9,0.9-0.9c0.5,0,1-0.1,1.5,0c1,0.2,1.7,1.1,1.6,2.1
			s-0.9,1.8-2,1.8l0,0c-0.7,0-0.7,0-0.7-0.7c0-0.1,0.1-0.2,0.2-0.2c0.2,0,0.3,0,0.5,0c0.6,0,1.1-0.5,1.1-1.1s-0.4-1.1-1.1-1.1
			c-0.3,0-0.6,0-0.9,0c-0.2,0-0.3,0.1-0.3,0.3c0,1.4,0,2.9,0,4.3c0,0.4,0,0.4-0.4,0.4c-0.5,0-0.5,0-0.5-0.5
			C19.2,55.6,19.2,54.9,19.2,54.1z"/>
		<path fill="#2C478A" d="M17.1,53.2c-0.4,0-0.8,0-1.2,0c-0.2,0-0.3-0.1-0.2-0.2c0-0.1,0-0.2,0-0.2c0-0.2,0.1-0.2,0.2-0.2
			c0.5,0,1,0,1.5,0c0.2,0,0.3,0,0.2-0.3c-0.3-0.5-0.8-0.8-1.3-0.7c-0.5,0.1-1,0.6-1,1.1c0,0.6,0.3,1.1,0.8,1.3
			c0.2,0.1,0.5,0.1,0.8,0.1c0.6,0,1.2,0,1.7,0c0.2,0,0.2,0.1,0.2,0.2c0,0.6,0,0.6-0.6,0.6s-1.2,0-1.8,0c-1.1,0-2-0.9-2-1.9
			c-0.1-1.1,0.7-2,1.8-2.2c1.1-0.2,2.1,0.5,2.3,1.6v0.1c0.1,0.7,0.1,0.8-0.6,0.8C17.7,53.2,17.4,53.2,17.1,53.2z"/>
		<path fill="#2C478A" d="M27.6,53.2c0,0.5,0,1,0,1.5c0,0.2,0,0.3-0.2,0.3c-0.7,0-0.7,0-0.7-0.7s0-1.4,0-2.2c0-0.2-0.1-0.3-0.3-0.3
			c-0.3,0-0.5,0-0.8,0c-0.6,0-1.1,0.5-1.1,1.1S25,54,25.6,54c0,0,0,0,0.1,0c0.7,0,0.7,0.1,0.6,0.7c0,0.1-0.1,0.2-0.2,0.2
			c-0.5,0-0.9,0-1.4-0.2c-1.2-0.6-1.4-1.9-0.8-2.8c0.4-0.6,0.9-0.9,1.7-1c0.4,0,0.8,0,1.2,0c0.5,0,0.8,0.3,0.8,0.8
			C27.6,52.2,27.6,52.7,27.6,53.2z"/>
		<path fill="#2C478A" d="M31.2,53.1c0-0.6,0-1.2,0-1.8c0-0.2,0-0.3,0.2-0.3c0.7,0,0.7,0,0.7,0.7c0,1,0,2.1,0,3.1
			c0,1.3-1.1,2.3-2.2,2.2c-0.4,0-0.9,0-1.3,0c-0.2,0-0.2,0-0.2-0.2c0-0.7,0-0.7,0.7-0.7c0.3,0,0.6,0,0.9,0c0.7,0,1.2-0.5,1.2-1.2
			C31.2,54.3,31.2,53.7,31.2,53.1z"/>
		<path fill="#2C478A" d="M29,52.1c0,0.3,0,0.5,0,0.8c0,0.6,0.5,1.1,1.1,1.1h0.1c0.2,0,0.5-0.1,0.5,0.1c0.1,0.2,0,0.5,0,0.7
			c0,0.1,0,0.1-0.1,0.1c-0.9,0.2-2-0.3-2.4-1.2C28.1,53.5,28,53.2,28,53c0-0.6,0-1.2,0-1.8c0-0.2,0.1-0.2,0.2-0.2
			c0.7,0,0.7,0,0.7,0.6C29,51.8,29,52,29,52.1z"/>
	</g>
	
		<linearGradient id="SVGID_1_" gradientUnits="userSpaceOnUse" x1="16.875" y1="104.375" x2="29.4624" y2="91.7876" gradientTransform="matrix(1 0 0 -1 0 135.6)">
		<stop  offset="0.45" style="stop-color:#2C478A"/>
		<stop  offset="0.55" style="stop-color:#E95125"/>
	</linearGradient>
	<path fill="url(#SVGID_1_)" d="M34.8,36.7c-0.1-0.3-0.3-0.6-0.6-0.9c-1-1-2-2-3-3l0,0L31,32.6c-0.4-0.4-0.8-0.8-1.2-1.1
		c-1.7-1.7-3.4-3.4-5.1-5.1c-0.9-0.9-2.2-0.9-3.1,0c-0.3,0.3-0.5,0.5-0.8,0.8c-2.9,2.9-5.8,5.8-8.7,8.7c-0.9,0.9-0.9,2.3-0.1,3.1
		c1.7,1.7,3.5,3.5,5.2,5.2c1.4,1.5,2.9,2.9,4.3,4.4c0.9,0.9,2.2,0.9,3,0c1.2-1.1,2.2-2.2,3.4-3.3l0.1-0.1l0,0c2-2,4.1-4.1,6.1-6.1
		C34.9,38.3,35.1,37.6,34.8,36.7z"/>
	<g>
		<path fill="#FEFEFE" d="M23.6,44.4c-1.1,0-2.1-0.2-3.1-0.7c-0.5-0.2-0.5-0.2-0.1-0.6c0.4-0.4,0.7-0.7,1.1-1.1
			c0.2-0.2,0.3-0.2,0.5-0.1c0.6,0.2,1.1,0.3,1.8,0.3c1.9,0,3.7-1.5,4.3-3.3c0-0.1,0-0.1,0.1-0.2c0-0.2,0.1-0.2,0.2-0.1
			c0.5,0.5,1,1,1.5,1.5c0.1,0.1,0.1,0.2,0.1,0.3c-0.9,1.9-2.3,3.1-4.3,3.7C24.9,44.3,24.2,44.3,23.6,44.4z"/>
		<path fill="#FEFEFE" d="M18.9,42.6c-0.2-0.2-0.2-0.3,0-0.5c3.1-3.1,6.2-6.2,9.3-9.3c0.2-0.2,0.3-0.2,0.4,0s0.3,0.3,0.4,0.5
			c0.1,0.1,0.1,0.2,0,0.3c-0.2,0.2-0.3,0.3-0.5,0.5c-2.9,2.9-5.9,5.9-8.8,8.8c-0.2,0.2-0.3,0.3-0.5,0C19.2,42.8,19.1,42.7,18.9,42.6
			C19,42.6,18.9,42.6,18.9,42.6L18.9,42.6z"/>
		<path fill="#FEFEFE" d="M18.3,41.9c-0.7-0.8-1.3-1.8-1.5-2.8c-0.6-3,0.4-5.9,3.1-7.6c2.1-1.3,4.3-1.4,6.6-0.3
			c0.5,0.2,0.9,0.5,1.3,0.8c0.2,0.1,0.2,0.2,0,0.4c-3.1,3.1-6.2,6.2-9.3,9.3C18.5,41.8,18.4,41.9,18.3,41.9z M23.8,32.8
			c-0.5,0-1,0.1-1.5,0.2c-2.4,0.8-3.8,3.6-2.9,6c0.1,0.1,0.1,0.3,0.3,0.1c1.9-1.9,3.9-3.9,5.8-5.8c0.1-0.1,0.1-0.2-0.1-0.2
			C24.9,32.9,24.3,32.8,23.8,32.8z"/>
	</g>
</g>
</svg>
