<?xml version="1.0" encoding="utf-8"?>
<!-- Generator: Adobe Illustrator 21.1.0, SVG Export Plug-In . SVG Version: 6.00 Build 0)  -->
<svg version="1.1" id="Слой_1" xmlns="http://www.w3.org/2000/svg" xmlns:xlink="http://www.w3.org/1999/xlink" x="0px" y="0px"
	 viewBox="0 0 418.6 79.2" enable-background="new 0 0 418.6 79.2" xml:space="preserve">
<g>
	<defs>
		<rect id="SVGID_1_" x="0.3" y="0.2" width="418" height="78.9"/>
	</defs>
	<clipPath id="SVGID_2_">
		<use xlink:href="#SVGID_1_"  overflow="visible"/>
	</clipPath>
	<path clip-path="url(#SVGID_2_)" fill="#2b2b2b" d="M116,16.8h37.4v9.4h-27.5v14.9c1.7-1.7,4.6-2.2,6.9-2.2h20.6v9.2h-20.6
		c-4,0-6.9,2.9-6.9,6.9v5.8h27.5v9.4H116V16.8z"/>
	<polygon clip-path="url(#SVGID_2_)" fill="#2b2b2b" points="160.5,16.8 170.4,16.8 170.4,60.9 198.3,60.9 198.3,70.2 160.5,70.2 	
		"/>
	<path clip-path="url(#SVGID_2_)" fill="#2b2b2b" d="M203.8,16.8h37.4v9.4h-27.5v14.9c1.7-1.7,4.6-2.2,6.9-2.2h20.6v9.2h-20.6
		c-4,0-6.9,2.9-6.9,6.9v5.8h27.5v9.4h-37.4V16.8z"/>
	<path clip-path="url(#SVGID_2_)" fill="#2b2b2b" d="M273,70.2c-6.6,0-10.8-3.7-12.9-9.9l-14.9-43.5h10.5l13.8,40.8
		c0.7,2.1,1.3,2.9,2.5,3.2l14.8-43.9h10.5l-18.3,53.4H273z"/>
	<path clip-path="url(#SVGID_2_)" fill="#2b2b2b" d="M349.4,32.5c0-2.1,0.3-4.7,1.8-6.3h-18.1v-9.4h43v9.4H365c-3.6,0-5.6,2.5-5.6,6
		v38.1h-9.9V32.5z"/>
	<path clip-path="url(#SVGID_2_)" fill="#2b2b2b" d="M380.9,16.8h37.4v9.4h-27.5v14.9c1.7-1.7,4.6-2.2,6.9-2.2h20.6v9.2h-20.6
		c-4,0-6.9,2.9-6.9,6.9v5.8h27.5v9.4h-37.4V16.8z"/>
	<path clip-path="url(#SVGID_2_)" fill="#2b2b2b" d="M319.1,16.8h-10.3l-20.4,53.4H299l1.7-4.6l0.5-1.4c1.5-4.1,3.9-5.6,10.3-5.6
		h0.1v-9.1h-0.1c-1.9,0-3.4,0.1-5.1,1.1l7.6-20.3l7.2,19.2h-4.6v9.1h8.1l4.4,11.6h10.5L319.1,16.8z"/>
	<path clip-path="url(#SVGID_2_)" fill="#F7901E" d="M92.2,15.9c2.5,0.5,4.8,1.7,6.7,3.6c5,5.2,5,13.5,0,18.7L75.2,62.5
		c-1.6,1.6-3.5,2.4-5.5,2.7l14.1,14.1l-73-15.6C8.3,63.1,6,61.9,4.1,60c-5-5.2-5-13.5,0-18.7L27.8,17c1.6-1.6,3.5-2.4,5.5-2.7
		L19.2,0.2L92.2,15.9z M67.8,63.3c0.2-0.2,0.5-0.4,0.7-0.6c3.6-3.6,3.6-9.5,0-13.2L35.2,16.2c-0.2,0.2-0.5,0.4-0.7,0.6
		c-3.6,3.6-3.6,9.5,0,13.2L67.8,63.3z"/>
</g>
</svg>
