<svg xmlns="http://www.w3.org/2000/svg" viewBox="0 0 46.9 85.9">
    <g fill="#F39026">
        <path d="M40.5 0h-34C2.9 0 0 3 0 6.7v72.5c0 3.7 2.9 6.7 6.5 6.7h33.9c3.6 0 6.5-3 6.5-6.7V6.8C47 3.1 44.1 0 40.5 0zm-34 2h33.9c2.5 0 4.5 2.1 4.5 4.7V11H2V6.8C2 4.2 4 2 6.5 2zM45 13.1v56.4H2V13.1h43zM40.5 84h-34C4 84 2 81.9 2 79.3v-7.8h43v7.8c0 2.6-2 4.7-4.5 4.7z"/>
        <path d="M24.5 82c-2.5 0-4.6-2.1-4.6-4.6s2.1-4.6 4.6-4.6 4.6 2.1 4.6 4.6S27 82 24.5 82zm0-7.2c-1.4 0-2.6 1.2-2.6 2.6s1.2 2.6 2.6 2.6 2.5-1.2 2.5-2.6-1.1-2.6-2.5-2.6z"/>
        <path d="M25.7 8.7h-4.3c-1.3 0-2.4-1-2.4-2.2s1.1-2.2 2.4-2.2h4.3c1.3 0 2.4 1 2.4 2.2S27 8.7 25.7 8.7zm-4.4-2.4c-.3 0-.4.2-.4.2s.1.2.4.2h4.3c.3 0 .4-.2.4-.2s-.1-.2-.4-.2h-4.3z"/>
        <path d="M12.7 8.7c-1.2 0-2.2-1-2.2-2.2s1-2.2 2.2-2.2 2.2 1 2.2 2.2-1 2.2-2.2 2.2zm0-2.4c-.1 0-.2.1-.2.2 0 .2.4.2.4 0 0-.1-.1-.2-.2-.2z"/>
    </g>
    <path fill="#F39026" d="M34 59.4H12.9c-4.1 0-7.5-3.4-7.5-7.5V30.8c0-4.1 3.4-7.5 7.5-7.5H34c4.1 0 7.5 3.4 7.5 7.5v21.1c0 4.1-3.4 7.5-7.5 7.5zM12.9 24.3c-3.6 0-6.5 2.9-6.5 6.5v21.1c0 3.6 2.9 6.5 6.5 6.5H34c3.6 0 6.5-2.9 6.5-6.5V30.8c0-3.6-2.9-6.5-6.5-6.5H12.9z"/>
    <g fill="#2C478A">
        <path d="M19.2 54.1v-2.3c0-.6.3-.9.9-.9.5 0 1-.1 1.5 0 1 .2 1.7 1.1 1.6 2.1s-.9 1.8-2 1.8c-.7 0-.7 0-.7-.7 0-.1.1-.2.2-.2h.5c.6 0 1.1-.5 1.1-1.1s-.4-1.1-1.1-1.1h-.9c-.2 0-.3.1-.3.3v4.3c0 .4 0 .4-.4.4-.5 0-.5 0-.5-.5.1-.6.1-1.3.1-2.1z"/>
        <path d="M17.1 53.2h-1.2c-.2 0-.3-.1-.2-.2v-.2c0-.2.1-.2.2-.2h1.5c.2 0 .3 0 .2-.3-.3-.5-.8-.8-1.3-.7-.5.1-1 .6-1 1.1 0 .6.3 1.1.8 1.3.2.1.5.1.8.1h1.7c.2 0 .2.1.2.2 0 .6 0 .6-.6.6h-1.8c-1.1 0-2-.9-2-1.9-.1-1.1.7-2 1.8-2.2 1.1-.2 2.1.5 2.3 1.6v.1c.1.7.1.8-.6.8-.2-.1-.5-.1-.8-.1z"/>
        <path d="M27.6 53.2v1.5c0 .2 0 .3-.2.3-.7 0-.7 0-.7-.7v-2.2c0-.2-.1-.3-.3-.3h-.8c-.6 0-1.1.5-1.1 1.1S25 54 25.6 54h.1c.7 0 .7.1.6.7 0 .1-.1.2-.2.2-.5 0-.9 0-1.4-.2-1.2-.6-1.4-1.9-.8-2.8.4-.6.9-.9 1.7-1h1.2c.5 0 .8.3.8.8v1.5z"/>
        <path d="M31.2 53.1v-1.8c0-.2 0-.3.2-.3.7 0 .7 0 .7.7v3.1c0 1.3-1.1 2.3-2.2 2.2h-1.3c-.2 0-.2 0-.2-.2 0-.7 0-.7.7-.7h.9c.7 0 1.2-.5 1.2-1.2v-1.8z"/>
        <path d="M29 52.1v.8c0 .6.5 1.1 1.1 1.1h.1c.2 0 .5-.1.5.1.1.2 0 .5 0 .7 0 .1 0 .1-.1.1-.9.2-2-.3-2.4-1.2-.1-.2-.2-.5-.2-.7v-1.8c0-.2.1-.2.2-.2.7 0 .7 0 .7.6.1.2.1.4.1.5z"/>
    </g>
    <linearGradient id="a" gradientUnits="userSpaceOnUse" x1="16.875" y1="104.375" x2="29.462" y2="91.788" gradientTransform="matrix(1 0 0 -1 0 135.6)">
        <stop offset=".45" stop-color="#2c478a"/>
        <stop offset=".55" stop-color="#e95125"/>
    </linearGradient>
    <path fill="url(#a)" d="M34.8 36.7c-.1-.3-.3-.6-.6-.9l-3-3-.2-.2c-.4-.4-.8-.8-1.2-1.1l-5.1-5.1c-.9-.9-2.2-.9-3.1 0l-.8.8-8.7 8.7c-.9.9-.9 2.3-.1 3.1l5.2 5.2c1.4 1.5 2.9 2.9 4.3 4.4.9.9 2.2.9 3 0 1.2-1.1 2.2-2.2 3.4-3.3l.1-.1 6.1-6.1c.8-.8 1-1.5.7-2.4z"/>
    <g fill="#FEFEFE">
        <path d="M23.6 44.4c-1.1 0-2.1-.2-3.1-.7-.5-.2-.5-.2-.1-.6l1.1-1.1c.2-.2.3-.2.5-.1.6.2 1.1.3 1.8.3 1.9 0 3.7-1.5 4.3-3.3 0-.1 0-.1.1-.2 0-.2.1-.2.2-.1l1.5 1.5c.1.1.1.2.1.3-.9 1.9-2.3 3.1-4.3 3.7-.8.2-1.5.2-2.1.3z"/>
        <path d="M18.9 42.6c-.2-.2-.2-.3 0-.5l9.3-9.3c.2-.2.3-.2.4 0s.3.3.4.5c.1.1.1.2 0 .3l-.5.5-8.8 8.8c-.2.2-.3.3-.5 0 0-.1-.1-.2-.3-.3.1 0 0 0 0 0z"/>
        <path d="M18.3 41.9c-.7-.8-1.3-1.8-1.5-2.8-.6-3 .4-5.9 3.1-7.6 2.1-1.3 4.3-1.4 6.6-.3.5.2.9.5 1.3.8.2.1.2.2 0 .4l-9.3 9.3c0 .1-.1.2-.2.2zm5.5-9.1c-.5 0-1 .1-1.5.2-2.4.8-3.8 3.6-2.9 6 .1.1.1.3.3.1l5.8-5.8c.1-.1.1-.2-.1-.2-.5-.2-1.1-.3-1.6-.3z"/>
    </g>
</svg>
