<svg xmlns="http://www.w3.org/2000/svg" xmlns:xlink="http://www.w3.org/1999/xlink" viewBox="0 0 61 61">
    <path fill="#F39026" d="M48 60.5H13C6.1 60.5.5 54.9.5 48V13C.5 6.1 6.1.5 13 .5h35C54.9.5 60.5 6.1 60.5 13v35c0 6.9-5.6 12.5-12.5 12.5zM13 2.2C7.1 2.2 2.2 7.1 2.2 13v35C2.2 54 7 58.8 13 58.8h35c6 0 10.8-4.8 10.8-10.8V13C58.8 7 54 2.2 48 2.2H13z"/>
    <path fill="#2C478A" d="M23.5 51.7v-3.9c0-1 .5-1.4 1.4-1.4.8 0 1.7-.1 2.5.1 1.7.3 2.8 1.8 2.6 3.5-.2 1.7-1.5 3-3.2 3-1.2 0-1.2 0-1.1-1.1 0-.2.1-.3.3-.3h.8c1-.1 1.8-.8 1.8-1.8s-.7-1.8-1.8-1.8h-1.4c-.4 0-.4.1-.4.5v7.2c0 .6 0 .6-.6.6-.9 0-.9 0-.9-.9v-3.7z"/>
    <path fill="#2C478A" d="M19.9 50.2h-2c-.3 0-.4-.1-.4-.4v-.4c0-.3.1-.4.4-.4h2.5c.4 0 .5-.1.3-.4-.4-.8-1.3-1.3-2.2-1.1-.9.2-1.6 1-1.6 1.9-.1.9.5 1.8 1.4 2.1.4.1.8.2 1.3.2h2.9c.3 0 .4.1.4.4 0 1 0 1-1 1h-3c-1.8-.1-3.3-1.4-3.4-3.2-.1-1.8 1.2-3.4 2.9-3.7 1.8-.3 3.4.8 3.9 2.6v.1c.2 1.1.1 1.3-1 1.3h-1.4z"/>
    <path fill="#2C478A" d="M37.3 50.2v2.4c0 .3-.1.4-.4.4-1.1 0-1.1 0-1.1-1.1v-3.6c0-.4-.1-.5-.5-.5H34c-1 0-1.8.8-1.8 1.8s.8 1.8 1.8 1.8h.1c1.1 0 1.2.1 1 1.2 0 .2-.1.3-.3.3-.8 0-1.5 0-2.3-.3-1.9-1-2.3-3.2-1.4-4.7.6-1 1.6-1.6 2.8-1.6h2c.8 0 1.3.5 1.3 1.4.1.9.1 1.7.1 2.5z"/>
    <path fill="#2C478A" d="M43.4 50v-3.1c0-.3.1-.4.4-.4 1.1 0 1.1 0 1.1 1.1v5.2c0 2.2-1.8 3.8-3.6 3.6h-2.1c-.3 0-.4-.1-.4-.3 0-1.1 0-1.1 1.1-1.1h1.6c1.2 0 2-.9 2-2-.1-1-.1-2-.1-3z"/>
    <path fill="#2C478A" d="M39.8 48.4v1.3c0 1.1.8 1.8 1.8 1.9h.1c.3 0 .7-.2.9.1s0 .8.1 1.2c0 .1-.1.2-.2.2-1.5.4-3.3-.5-3.9-2-.2-.4-.3-.8-.3-1.2V47c0-.3.1-.4.4-.4 1.1 0 1.1 0 1.1 1.1v.7z"/>
    <g>
        <defs>
            <path id="a" d="M49.4 22.8c-.2-.6-.5-1-1-1.5l-4.9-4.9-.3-.3-1.9-1.9-8.5-8.5c-1.5-1.5-3.6-1.5-5.1-.1l-1.3 1.3L12 21.3c-1.4 1.4-1.5 3.8-.1 5.1l8.6 8.6 7.2 7.2c1.4 1.4 3.6 1.5 5.1 0l5.6-5.6.2-.2 10.1-10.1c.8-.8 1.1-2.1.7-3.5z"/>
        </defs>
        <clipPath id="b">
            <use xlink:href="#a" overflow="visible"/>
        </clipPath>
        <path clip-path="url(#b)" fill="#2C478A" d="M34.1 4.2l6.9 6.9-23.7 23.6-6.8-6.8V4.2z"/>
        <path clip-path="url(#b)" fill="#E95125" d="M43.1 13.2l6.7 6.7v23.8H26.3l-6.9-6.9z"/>
    </g>
    <g>
        <path fill="#FEFEFE" d="M30.7 35.5c-1.8 0-3.5-.4-5.1-1.2-.8-.4-.8-.4-.2-1 .6-.6 1.2-1.2 1.7-1.8.3-.3.5-.3.9-.2.9.4 1.9.5 2.9.4 3.2-.1 6.2-2.4 7.1-5.5 0-.1.1-.2.1-.3 0-.3.1-.4.4-.1.8.8 1.6 1.7 2.5 2.5.2.2.2.3.1.5-1.5 3.1-3.9 5.2-7.2 6.2-1 .4-2.1.5-3.2.5z"/>
        <path fill="#FEFEFE" d="M23 32.6c-.4-.3-.3-.5 0-.8 5.2-5.1 10.3-10.3 15.5-15.5.3-.3.5-.4.7 0 .2.3.4.6.7.8.2.2.1.3 0 .5l-.8.8L24.5 33c-.3.3-.6.4-.9 0-.1-.1-.3-.2-.4-.3l-.2-.1z"/>
        <path fill="#FEFEFE" d="M22 31.5c-1.2-1.4-2.1-2.9-2.5-4.7-1-4.9.7-9.8 5.2-12.6 3.5-2.1 7.2-2.2 10.9-.6.8.4 1.5.9 2.2 1.3.3.2.3.3 0 .6L22.3 31c-.1.2-.2.4-.3.5zm9.1-15.3c-.9 0-1.7.1-2.5.4-4 1.3-6.3 6-4.8 10 .1.2.1.4.4.1l9.6-9.6c.2-.2.2-.3-.1-.4-.9-.3-1.7-.5-2.6-.5z"/>
    </g>
</svg>
