<?xml version="1.0" encoding="UTF-8"?><!DOCTYPE svg PUBLIC "-//W3C//DTD SVG 1.1//EN" "http://www.w3.org/Graphics/SVG/1.1/DTD/svg11.dtd"><svg xmlns="http://www.w3.org/2000/svg" xmlns:xlink="http://www.w3.org/1999/xlink"><defs>
            <path data-clear="not" id="a" d="M34.8 36.7c-.1-.3-.3-.6-.6-.9l-3-3-.2-.2c-.4-.4-.8-.8-1.2-1.1l-5.1-5.1c-.9-.9-2.2-.9-3.1 0l-.8.8-8.7 8.7c-.9.9-.9 2.3-.1 3.1l5.2 5.2c1.4 1.5 2.9 2.9 4.3 4.4.9.9 2.2.9 3 0 1.2-1.1 2.2-2.2 3.4-3.3l.1-.1 6.1-6.1c.8-.8 1-1.5.7-2.4z"/>
        </defs><symbol id="icon-account-maintenance" viewBox="0 0 59.8 64.5">
    <path fill="currentColor" d="M59.7 11.2c-.1-1-1.2-.7-1.8-.8-2-.4-2.4-1.4-1.2-3.1.3-.5.6-.9 1-1.4-.4-1.1-1.3-1.7-1.9-2.5-.9-1.1-1.6-1.1-2.6-.1-.5.4-.8 1.2-1.9.8-1.1-.4-1-1.3-1.1-2.1-.1-.6.1-1.5-.6-1.7-1.2-.4-2.5-.3-3.7 0-1 .2-.8 1.4-.9 2.2-.1.7-.2 1.3-1 1.6-.9.4-1.2-.3-1.7-.6s-.9-1.2-1.6-.9c-1.3.5-2.1 1.7-2.9 2.8-.6.8.3 1.3.7 1.9 1.3 1.9 1 2.8-1.3 3.1-1.6.2-2 .9-1.9 2.4.1 1.4-.5 3 1.9 3.2 2.1.1 2.5 1.4 1.2 3.1-1.2 1.7-1.1 1.7 1.2 4.2 1.2 1.2 1.7.2 2.5-.3.5-.3.8-1.1 1.7-.7.8.4.9 1 1 1.8.1.7-.1 1.8.7 2 1.2.3 2.5.3 3.7 0 1-.2.7-1.4.8-2.2.1-.7.3-1.2 1.1-1.6.9-.4 1.1.3 1.6.6.6.3 1 1.3 1.7 1 1.3-.5 2.1-1.8 2.9-2.9.6-.8-.3-1.3-.7-1.9-1.3-1.8-.9-2.6 1.3-3.1.5-.1 1.3.1 1.6-.5.5-1.5.3-2.9.2-4.3zm-12.2 7.1c-2.6 0-4.8-2.4-4.7-5.3 0-3 2.1-5.1 4.9-5.1 2.7 0 4.8 2.4 4.8 5.2-.1 2.9-2.4 5.2-5 5.2z"/>
    <path d="M50.6 42.9c-1.2-.9-2.3-1.9-3.5-2.8-1.2-.9-2.6-1.6-3.8-2.5 1.5-1.5 2.7-3.1 3.6-4.9-1.5-.4-2.9-.9-4.2-1.6-2.5 4.5-7.4 7.6-12.9 7.7-8.2-.1-14.9-6.8-14.9-15S21.6 9 29.8 8.9c.5 0 1 0 1.5.1.2-1.4.5-2.8.9-4.2-.2 0-.5-.1-.7-.1H28.1c-.4 0-.7.1-1.1.1-.2 0-.4.1-.6.1-.4.1-.8.2-1.3.3-.1 0-.2.1-.4.1-.5.1-1 .3-1.5.5-2.5.9-4.8 2.3-6.9 4.2C9 17 8 29.6 16.2 37.7c-1.3.8-2.6 1.6-3.8 2.5s-2.3 1.9-3.5 2.8c0 .1.1.1.1.2C2.5 49.6-.1 58 0 64.5H59.6c.2-6.5-2.5-15-9-21.3v-.3zM54.9 60v.2H4.7V60c1.7-8.9 6.7-15.1 14.9-18.9.8-.1 1.6 0 2.5.4.3.1.6.2.9.4h.1c1.3.5 2.6.9 3.9 1.1h.3c.5.1 1 .1 1.5.1h1.8c.5 0 1-.1 1.5-.1h.3c1.3-.2 2.6-.6 3.9-1.1h.1c.3-.1.6-.2.9-.4.9-.4 1.7-.6 2.5-.4 8.2 3.8 13.3 10 15.1 18.9z"/>
</symbol><symbol id="icon-activation-add-a-line" viewBox="0 0 75.8 85.9">
    <path d="M38.8 81.9c-2.5 0-4.6-2.1-4.6-4.6s2.1-4.6 4.6-4.6 4.6 2.1 4.6 4.6-2 4.6-4.6 4.6zm0-7.2c-1.4 0-2.6 1.2-2.6 2.6s1.2 2.6 2.6 2.6 2.6-1.2 2.6-2.6-1.2-2.6-2.6-2.6z"/>
    <path d="M40 8.6h-4.3c-1.3 0-2.4-1-2.4-2.2s1.1-2.2 2.4-2.2H40c1.3 0 2.4 1 2.4 2.2s-1 2.2-2.4 2.2zm-4.3-2.3c-.3 0-.4.2-.4.2s.1.2.4.2H40c.3 0 .4-.2.4-.2s-.1-.2-.4-.2h-4.3z"/>
    <path d="M27.1 8.6c-1.2 0-2.2-1-2.2-2.2s1-2.2 2.2-2.2 2.2 1 2.2 2.2-1 2.2-2.2 2.2zm0-2.3c-.1 0-.2.1-.2.2 0 .2.4.2.4 0s-.1-.2-.2-.2z"/>
    <path d="M59.4 52.7v16.7h-43V13h43v4.9c.7-.1 1.3-.2 2-.2v-11C61.4 3 58.5 0 54.9 0h-34c-3.6 0-6.5 3-6.5 6.7v72.5c0 3.7 2.9 6.7 6.5 6.7h33.9c3.6 0 6.5-3 6.5-6.7V52.9c-.6 0-1.3-.1-1.9-.2zm-43-46c0-2.6 2-4.7 4.5-4.7h33.9c2.5 0 4.5 2.1 4.5 4.7V11h-43l.1-4.3zm43 72.5c0 2.6-2 4.7-4.5 4.7h-34c-2.5 0-4.5-2.1-4.5-4.7v-7.8h43v7.8z"/>
    <path fill="currentColor" d="M61 20.7c-.5 0-1.1 0-1.6.1-4.4.5-8.1 2.7-10.6 6.2-2.5 3.4-3.3 7.7-2.3 11.9.9 4.2 3.3 7.4 7.1 9.6v-2.1c0-.2 0-.2-.3-.4-4-3.1-5.8-7.3-5.2-12.3.8-6.2 6.3-11 12.7-11h.7c6.7.4 12 5.7 12.2 12.4.2 5.4-3.1 10.6-8.1 12.5h-.1c-.2.1-.5.2-.8.2s-.6-.1-.9-.4c-.3-.3-.3-.8-.3-1.1v-8.5c0-.4.1-.5.5-.4h1.5c.2 0 .4 0 .5-.2s-.1-.3-.2-.5l-4.3-4.3c-.3-.3-.6-.4-.9-.1l-4.5 4.5c-.1.1-.2.3-.1.4.1.2.2.2.4.2h1.4c.5 0 .7.1.6.6v7.9c0 1.5-.2 3.8.3 4.2.7.6 1.5.5 2.3.5.5 0 1 0 1.5-.1 7.9-.9 13.3-7.1 13.3-15-.1-8.1-6.9-14.8-14.8-14.8z"/>
    <path fill="currentColor" d="M30.7 36.4h-4.8v-3.2h4.8v-4.8h3.2v4.8h4.8v3.2h-4.8v4.8h-3.2v-4.8z"/>
</symbol><symbol id="icon-activation" viewBox="0 0 75.5 85.9">
    <path d="M38.7 81.9c-2.5 0-4.6-2.1-4.6-4.6s2.1-4.6 4.6-4.6 4.6 2.1 4.6 4.6-2.1 4.6-4.6 4.6zm0-7.2c-1.4 0-2.6 1.2-2.6 2.6s1.2 2.6 2.6 2.6 2.6-1.2 2.6-2.6-1.2-2.6-2.6-2.6z"/>
    <path d="M39.9 8.6h-4.3c-1.3 0-2.4-1-2.4-2.2s1.1-2.2 2.4-2.2h4.3c1.3 0 2.4 1 2.4 2.2s-1.1 2.2-2.4 2.2zm-4.3-2.4c-.3 0-.4.2-.4.2s.1.2.4.2h4.3c.3 0 .4-.2.4-.2s-.1-.2-.4-.2h-4.3z"/>
    <path d="M27 8.6c-1.2 0-2.2-1-2.2-2.2s1-2.2 2.2-2.2 2.2 1 2.2 2.2-1 2.2-2.2 2.2zm0-2.4c-.1 0-.2.1-.2.2 0 .2.4.2.4 0 0-.1-.1-.2-.2-.2z"/>
    <path d="M59.2 52.7v16.7h-43V13h43v4.9c.7-.1 1.3-.2 2-.2v-11C61.2 3 58.3 0 54.7 0H20.8c-3.6 0-6.5 3-6.5 6.7v72.5c0 3.7 2.9 6.7 6.5 6.7h33.9c3.6 0 6.5-3 6.5-6.7V52.9c-.6 0-1.3-.1-2-.2zm-43-46c0-2.6 2-4.7 4.5-4.7h34c2.5 0 4.5 2.1 4.5 4.7V11h-43V6.7zm43 72.5c0 2.6-2 4.7-4.5 4.7H20.8c-2.5 0-4.5-2.1-4.5-4.7v-7.8h43l-.1 7.8z"/>
    <path fill="currentColor" d="M60.8 20.7c-.5 0-1.1 0-1.6.1-4.4.5-8.1 2.7-10.6 6.2-2.5 3.4-3.3 7.7-2.3 11.9.9 4.2 3.3 7.4 7.1 9.6v-2.1c0-.2 0-.2-.3-.4-4-3.1-5.8-7.3-5.2-12.3.8-6.2 6.3-11 12.7-11h.7C68 23 73.2 28.4 73.5 35c.2 5.4-3.1 10.6-8.1 12.5h-.1c-.2.1-.5.2-.8.2s-.6-.1-.9-.4c-.4-.4-.4-.9-.4-1.2v-8.5c0-.4.1-.5.5-.4h1.5c.2 0 .4 0 .5-.2s-.1-.3-.2-.5l-4.3-4.3c-.3-.3-.6-.4-.9-.1l-4.5 4.5c-.1.1-.2.3-.1.4.1.2.2.2.4.2h1.4c.5 0 .7.1.6.6v7.9c0 1.5-.2 3.8.3 4.2.7.6 1.5.5 2.3.5.5 0 1 0 1.5-.1 7.9-.9 13.3-7.1 13.3-15 .1-7.9-6.7-14.6-14.7-14.6z"/>
</symbol><symbol id="icon-additional-line" viewBox="0 0 170.1 180.6">
    <path d="M28.4 45.1h.8c9.2.2 9.3.3 13.2 8.8 3.1 6.8 6 13.8 8.8 20.9l1.9 4.7c.5 1.3.8 2.6.7 3.9-.1 1.4-.5 2.7-1.3 4-1.4 2.3-2.9 4.6-4.5 6.8-1.7 2.3-3.5 4.5-5.6 6.5l-.4.4.2.5c.8 2 1.9 3.8 3.1 5.5 1.3 1.8 2.7 3.6 4.1 5.3 5.1 6.4 10.7 12.3 17 17.3 6.2 5 13 9.1 20.7 12.1l.8.3c.7.2 1.3.4 2 .8l.6.2c.1 0 .4-.3.7-.8 1.7-2.4 3.5-4.8 5.3-7.2 1.7-2.3 3.6-4.6 5.6-6.9 1.4-1.6 2.8-2.6 4.6-3.1 1.8-.4 3.5-.2 5.5.7 4.8 2.1 9.6 4.4 14.6 6.8 4.8 2.4 9.6 4.8 14.3 7.4 1.7.9 2.9 2.1 3.7 3.6.8 1.5 1 3.3.6 5.3-.2 1-.3 2-.4 3l-.2 3.1c-.1 2.6-.8 4.8-1.9 6.8-1 1.9-2.4 3.6-3.9 5.2-5.2 5.5-11.1 9.1-17.5 11.2-6.4 2.1-13.2 2.6-20.4 1.8-7.7-.8-15-2.9-21.9-5.8-6.8-2.9-13.3-6.6-19.5-10.9-11.3-7.6-21.3-16.4-30.1-26.2s-16.4-20.6-22.8-32.6c-1.8-3.4-3.3-6.8-4.4-10.3C1.3 90.7.5 86.9.1 83.1c-.5-5.7.2-11.1 2-16.2 1.8-5 4.6-9.7 8.3-14l.3-.3c4.4-5.2 8.9-10.5 17.7-7.5zm.5 6.8l-1.9-.1-.5-.2c-4.7-1.7-7.7 1.8-10.7 5.3l-.3.3c-3.2 3.7-5.6 7.7-7.1 11.9s-2 8.7-1.6 13.5c.3 3.3 1 6.6 2 9.7 1 3.2 2.3 6.3 3.9 9.2 6.1 11.4 13.4 21.9 21.8 31.3 8.5 9.4 18.1 17.8 28.9 25.1 5.9 4 12 7.5 18.4 10.2 6.3 2.7 13 4.6 20 5.3 6.3.7 12.2.2 17.6-1.5 5.4-1.8 10.3-4.9 14.7-9.5 1.1-1.2 2.1-2.4 2.8-3.7.6-1.2 1-2.5 1.1-3.9l.2-3.5c.1-1.2.3-2.4.5-3.5.1-.5.1-.8 0-1-.1-.2-.5-.5-1-.8-4.6-2.6-9.3-5-14-7.3-4.6-2.2-9.4-4.5-14.4-6.7-.6-.3-1-.4-1.2-.3-.2.1-.6.3-1 .8-1.8 2.1-3.6 4.4-5.4 6.7-1.7 2.2-3.5 4.5-5.1 6.9-1.2 1.7-2.5 2.8-4.2 3.3-1.8.6-3.6.4-5.7-.6l-2.3-.8c-8.3-3.3-15.7-7.7-22.4-13.1-6.6-5.3-12.5-11.5-18-18.3-1.5-1.9-3-3.7-4.4-5.7-1.4-2.1-2.7-4.3-3.7-6.6-.7-1.6-.9-3-.6-4.5.3-1.5 1.1-2.7 2.3-3.9 1.8-1.7 3.3-3.5 4.7-5.5 1.5-2.1 2.9-4.3 4.2-6.5.2-.3.3-.6.3-.8 0-.3-.1-.6-.2-1l-1.9-4.7c-2.7-6.9-5.5-13.8-8.6-20.6-2-4.8-2-4.8-7.2-4.9z"/>
    <path fill="currentColor" d="M143.8 0l26.3 67.4h-9.9l-7.5-20.6h-28.3l-7.7 20.6h-9.5L133.7 0h10.1zm6.2 39.7L138.6 8.5 127 39.6c-.1.1 23 .1 23 .1z"/>
</symbol><symbol id="icon-boost-portal" viewBox="0 0 88.3 58">
    <path d="M29.6 30.9c-.4-.1-.8-.2-1.2-.2-2.4-.5-4.7-1-7.1-1.5-1.2-.3-2.4-.5-3.6-.8-.8-.2-1.4-.7-1.6-1.5-.3-.8-.1-1.5.5-2.1 1.3-1.3 2.5-2.6 3.8-3.9.2-.3.5-.4 1-.5-.8-.8-1.5-1.5-2.3-2.2.6.1 1.2.3 1.8.4 2.5.5 5 1.1 7.6 1.6.8.2 1.6.4 2.4.5.8.2 1.4.7 1.7 1.5.2.8.1 1.6-.6 2.2-1.3 1.3-2.5 2.6-3.8 3.9-.2.2-.4.4-.7.4-.2.1-.2.1 0 .2l1.9 1.9c.1 0 .2 0 .2.1zm-8.4-9.1c0 .2 0 .4.1.6.1.3.4.6.7.8l4.9 4.9c.1.1.2.2.4 0 .5-.6.5-1.5-.1-2.1l-2.5-2.5-2.7-2.7c-.1-.1-.2-.1-.3 0-.3.3-.5.6-.5 1z"/>
    <g fill="currentColor">
        <path d="M42.6 25.3c-.2.4-.3.8-.6 1.1-.7.8-1.5 1.1-2.5 1.1H37c-1.1 0-2.1-.9-2.1-2.1v-6.1c0-.1 0-.2.2-.2h1.2c.2 0 .2.1.2.2v1.4c0 .2 0 .2.2.2h2.6c1.4 0 2.8.8 3.2 2.2v.1s0-.1.1-.1c.5-1.3 1.6-2.1 3-2.1h2.1c1.3.1 2.3.8 2.8 2l.1.1c.2-.6.6-1.1 1.1-1.5.6-.4 1.3-.7 2-.7h1.6c1.3 0 2.3.5 3 1.6l.1.1c.1-.5.3-.9.7-1.2.4-.3.8-.5 1.3-.5h5.9c.2 0 .2-.1.2-.2v-1.4c0-.1 0-.2.2-.2H68c.1 0 .2 0 .2.2v1.5c0 .2 0 .2.2.2h2.1c.2 0 .2 0 .2.2v1.1c0 .2 0 .2-.2.2h-2.1c-.2 0-.2 0-.2.2v2.6c0 .5.2.7.7.7h1.6c.1 0 .2 0 .2.2v1.2c0 .1 0 .2-.1.2-.7 0-1.5.1-2.2 0-.9-.1-1.7-1-1.8-1.9v-2.8c0-.2 0-.2-.2-.2h-5.8c-.5 0-.7.3-.6.7.1.2.3.3.5.3h3.1c1.1 0 1.9.7 2.1 1.8.1 1.2-.8 2.2-2 2.2H59c-.1 0-.2 0-.2-.2v-1.1c0-.2.1-.2.2-.2h4.5c.3-.1.4-.3.4-.5 0-.3-.2-.5-.5-.5H60.3c-.7 0-1.2-.2-1.7-.7l-.1-.1c0 .4-.1.8-.2 1.2-.5 1.3-1.5 2-2.8 2.1-.7.1-1.4.1-2.1 0-1.4-.1-2.4-.8-3-2.1 0 0 0 .1-.1.1-.6 1.3-1.6 1.9-2.9 2h-2.1c-1.3-.1-2.3-.8-2.8-2.1.2-.1.2-.2.1-.3zm12 .8h.8c1.1 0 1.8-.8 1.8-1.7 0-.9-.7-1.8-1.6-1.8h-1.9c-.9 0-1.6.8-1.6 1.7 0 .9.6 1.7 1.5 1.8h1zm-7.9 0h1.1c.9-.1 1.5-.9 1.4-1.8 0-.9-.7-1.6-1.6-1.6h-1.9c-.8 0-1.5.7-1.6 1.6s.4 1.6 1.2 1.9c.5-.1.9-.1 1.4-.1zm-8.5-3.5h-1.5c-.1 0-.2 0-.2.2v2.6c0 .4.3.7.7.7h2.3c.9 0 1.6-.7 1.7-1.6 0-1-.6-1.8-1.5-1.9-.6-.1-1.1 0-1.5 0z"/>
        <path d="M35.7 29.5c.8-.5 1.4-.5 2 .2.1.1.1 0 .2 0 .6-.7 1.7-.6 2.2.1.2.2.2.5.2.8V32c0 .2-.1.2-.2.2s-.3.1-.3-.2v-1.4c0-.6-.4-1-.9-1s-.9.4-.9 1V32c0 .2-.1.2-.2.2s-.2 0-.2-.2v-1.4c0-.5-.4-1-.9-1s-.9.4-.9 1V32c0 .2-.1.2-.3.2-.1 0-.2 0-.2-.2v-2.6c0-.2 0-.2.2-.2s.3 0 .2.3z"/>
        <path d="M52.5 30.9h-1.3c-.2 0-.2 0-.1.2.2.3.4.5.8.6h1c.2 0 .4-.1.5-.3.1-.1.4-.2.5-.1s0 .1 0 .2c-.2.4-.6.6-1.1.7h-1c-.7-.1-1.2-.7-1.2-1.5 0-.7.6-1.3 1.3-1.3h.9c.8.1 1.4.7 1.4 1.5 0 .1 0 .1-.1.1-.6-.1-1.1-.1-1.6-.1zm-.2-.4h1.1c.1 0 .2 0 .1-.2-.1-.3-.4-.5-.7-.6-.3-.1-.7-.1-1 0-.3 0-.6.2-.7.5-.1.2-.1.2.1.2.4.1.7.1 1.1.1z"/>
        <path d="M44.6 29.9v-1.4c0-.2.1-.2.2-.2s.2 0 .2.2v.5c0 .2.1.2.2.2h1.3c.8.1 1.4.7 1.4 1.4 0 .8-.6 1.4-1.4 1.5h-1.2c-.5 0-.8-.4-.8-.9v-.7c.1-.1.1-.3.1-.6zm1.3-.2h-.7c-.1 0-.1 0-.1.1v1.5c0 .3.1.4.4.4h1.1c.6 0 1-.5 1-1.1 0-.5-.5-1-1.1-1-.2.1-.4.1-.6.1z"/>
        <path d="M42.5 32.2c-.4 0-.7 0-1-.1-.6-.3-.9-1-.8-1.6s.7-1.1 1.3-1.2h1c.8.1 1.3.7 1.3 1.5s-.6 1.4-1.3 1.5c-.2-.1-.4-.1-.5-.1zm-.1-2.5H42c-.5 0-.9.4-1 .9 0 .5.3 1 .8 1.1.4.1.7.1 1.1 0 .5-.1.8-.5.8-1s-.4-.9-.8-1h-.5z"/>
        <path d="M50 30.3V32c0 .2-.1.2-.2.2s-.2 0-.2-.2v-3.4c0-.2.1-.2.2-.2.2 0 .2 0 .2.2v1.7z"/>
        <path d="M48.9 30.7V32c0 .2-.1.2-.2.2s-.2.1-.2-.2v-2.6c0-.2.1-.2.2-.2s.2 0 .2.2v1.3z"/>
        <path d="M54.2 29.4c-.2-.1.1-.5-.3-.5.2-.1.3 0 .5-.1.3 0 .3.2.4.4.1-.1.1-.2.2-.3 0-.1.1-.1.1-.1.1 0 .1.1 0 .1v.5c-.1-.1 0-.2-.1-.3 0 0-.1 0-.1.1-.1.1 0 .2-.2.2-.1 0-.1-.2-.2-.2l-.1-.1c-.1.1 0 .2-.1.3-.1-.1 0-.3-.1-.4 0-.1 0-.1-.1-.1s-.2 0-.2.1c.3.2.4.3.3.4z"/>
        <path d="M48.7 28.8c-.2.1-.2-.1-.2-.2 0-.2.1-.2.3-.2.2 0 .2.1.2.2-.1.3-.2.3-.3.2z"/>
    </g>
    <path fill="currentColor" d="M7.8 47.5H80.5v-.2V4c0-2.7-1.3-4-4-4h-65c-2.7 0-4 1.4-4 4V47.6c.1-.1.2-.1.3-.1M11.6 4h64.7v39.4H11.6V4z"/>
    <path fill="currentColor" d="M84.3 52.7H53.2l-.1.1c-.6 1.3-1.8 2-3.4 2H38.4c-1.6 0-2.8-.7-3.4-1.9-.1-.2-.1-.2-.6-.2H0V54c0 2.7 1.3 4 4 4h80.6c2.2 0 3.6-1.4 3.7-3.7v-.5-1.2c-1.5.1-2.7.1-4 .1z"/>
</symbol><symbol id="icon-boost-up" viewBox="0 0 46.9 85.9">
    <path d="M40.5 0h-34C2.9 0 0 3 0 6.7v72.5c0 3.7 2.9 6.7 6.5 6.7h33.9c3.6 0 6.5-3 6.5-6.7V6.7C47 3 44.1 0 40.5 0zm-34 2h33.9C43 2 45 4.1 45 6.7V11H2V6.7C2 4.1 4 2 6.5 2zM45 13.1v56.4H2V13.1h43zM40.5 84h-34C4 84 2 81.9 2 79.3v-7.8h43v7.8c0 2.6-2 4.7-4.5 4.7z"/>
    <path d="M24.5 81.9c-2.5 0-4.6-2.1-4.6-4.6s2.1-4.6 4.6-4.6 4.6 2.1 4.6 4.6-2.1 4.6-4.6 4.6zm0-7.1c-1.4 0-2.6 1.2-2.6 2.6s1.2 2.6 2.6 2.6 2.6-1.2 2.6-2.6-1.2-2.6-2.6-2.6z"/>
    <path d="M25.7 8.7h-4.3c-1.3 0-2.4-1-2.4-2.2s1.1-2.2 2.4-2.2h4.3c1.3 0 2.4 1 2.4 2.2S27 8.7 25.7 8.7zm-4.4-2.4c-.3 0-.4.2-.4.2s.1.2.4.2h4.3c.3 0 .4-.2.4-.2s-.1-.2-.4-.2h-4.3z"/>
    <path d="M12.7 8.7c-1.2 0-2.2-1-2.2-2.2s1-2.2 2.2-2.2 2.2 1 2.2 2.2-1 2.2-2.2 2.2zm0-2.4c-.1 0-.2.1-.2.2 0 .2.4.2.4 0 0-.1-.1-.2-.2-.2z"/>
    <path fill="currentColor" d="M23.5 26.5z"/>
    <path fill="currentColor" d="M23.5 53.9v-.5c3.9 0 7.5-1.5 10.2-4.3s4.2-6.4 4.2-10.3c0-8-6.5-14.4-14.4-14.4-4 0-7.7 1.5-10.4 4.3-2.7 2.7-4.2 6.5-4.2 10.3.1 8 6.6 14.4 14.5 14.4l.1.5zm0-2.2c-7.1 0-12.8-5.8-12.8-12.9 0-7 5.7-12.8 12.8-12.8h.1c6.9 0 12.8 5.9 12.9 12.8 0 3.4-1.3 6.6-3.7 9-2.6 2.6-5.9 3.9-9.3 3.9z"/>
    <path fill="currentColor" d="M24.6 45.2c0 .3 0 .6-.1.9h-2.4c0-.2 0-.5-.1-.7 0-.6.1-1.1-.9-.6-.6.3-1.4.1-2.2.1v-3.6c1.2 0 2.3-.3 3.3.7.7.7 1.7.8 2.6.5.3-.1.7-.5.8-.8.1-.3-.2-.8-.5-.9-.7-.3-1.4-.5-2.1-.7-.9-.3-1.8-.5-2.6-1-1.3-.7-1.8-1.9-1.7-3.3.2-1.4 1-2.3 2.2-2.8.3-.1.6-.2 1-.3 0-.3.1-.7.1-1h2.4c0 .3-.1.7.1.9s.6.5.8.5c.8 0 1.6-.2 2.5-.4v3.7c-1.2 0-2.2.3-3.3-.6-.5-.5-1.6-.5-2.4-.5-.3 0-.8.5-.9.8s.3.9.6 1.1c.7.3 1.5.4 2.2.7.9.3 1.8.6 2.6 1.1 1.2.8 1.7 1.9 1.5 3.3-.2 1.4-1.2 2.3-2.5 2.7-.2.1-.6.1-1 .2"/>
</symbol><symbol id="icon-byod-add-a-line" viewBox="0 0 69.9 80.2">
    <path fill="currentColor" d="M39.1 37.9c-1.5-.6-2.9-1.2-4.4-1.9.4-1 .8-1.9 1.3-2.9 1.5.6 2.9 1.2 4.4 1.9.6-1.5 1.2-2.9 1.9-4.4 1 .4 1.9.8 3 1.3-.6 1.4-1.2 2.9-1.9 4.4 1.5.6 2.9 1.2 4.4 1.9-.4 1-.8 2-1.3 3-1.5-.6-2.9-1.2-4.4-1.9-.6 1.5-1.2 2.9-1.9 4.4-1-.4-1.9-.8-3-1.3.7-1.5 1.3-3 1.9-4.5z"/>
    <path d="M66.3 10.3L41.2.4c-2.7-1.1-5.7.3-6.8 3.1L13.3 57c-1.1 2.7.2 5.8 2.9 6.9l25.1 9.9c2.7 1.1 5.7-.3 6.8-3.1l1-2.6c-.5-.4-.6-1-1.3-1.3L46.5 70c-.7 2-2.8 3-4.7 2.2l-25.1-9.9c-1.8-.7-2.7-2.9-2-4.8l2.3-5.8 30 11.8c0-.5.2-1 .2-1.6L17.7 50.4 34.1 8.7l31.8 12.5-4.2 10.5h1.8l5.8-14.6c1-2.7-.3-5.8-3-6.8zm1.4 6.2l-1.3 3.2L34.7 7.2 36 4c.7-1.9 2.8-2.9 4.7-2.2l25 9.9c1.8.7 2.7 2.9 2 4.8z"/>
    <path d="M30.6 66.1c-1.9-.7-2.8-2.9-2.1-4.7.7-1.9 2.9-2.8 4.7-2.1 1.9.7 2.8 2.9 2.1 4.7-.7 2-2.8 2.9-4.7 2.1zm2.1-5.3c-1.1-.4-2.3.1-2.7 1.2-.4 1.1.1 2.3 1.2 2.7s2.3-.1 2.7-1.2c.4-1.1-.1-2.3-1.2-2.7z"/>
    <path d="M52.9 12.4l-3.2-1.3c-1-.4-1.5-1.4-1.2-2.3.4-.9 1.4-1.3 2.4-.9l3.2 1.3c1 .4 1.5 1.4 1.2 2.3-.4.8-1.5 1.3-2.4.9zm-2.5-3.1c-.2-.1-.4 0-.4 0s.1.2.3.3l3.2 1.3c.2.1.4 0 .4 0s-.1-.2-.3-.3l-3.2-1.3z"/>
    <path d="M43.3 8.6c-.9-.4-1.3-1.4-1-2.3.4-.9 1.4-1.3 2.3-1 .9.4 1.3 1.4 1 2.3-.4.9-1.4 1.4-2.3 1zm.7-1.8c-.1 0-.2 0-.2.1-.1.2.2.3.3.1 0 0 0-.1-.1-.2z"/>
    <path fill="currentColor" d="M16.4 80.2c-1.9 0-3.8-.8-5.9-2.5-4.9-4-8.3-9-10-14.9-1.2-4-.4-5.7 3.6-7.2 3.5-1.3 4.2-2.5 3.6-5.9-.6-4.5.9-8.4 2.4-11.7 2.2-4.9 4.6-10.7 5.4-17 .4-3 1.5-4.2 4.2-4.4 2-.2 4.2 1.3 5.1 3.4.8 1.9 1.2 3.9 1 6.1l1-.9-1.4 3.8-11.5 29.9-.1.8c-.5 1.8 0 2.8 1.9 3.5 5.5 2.2 10.9 4.3 16.4 6.5l11 4.3-2.1 1c-3.3 1.6-6.2 2.5-9.1 2.7-1.4.1-2.8.1-4.2.2h-2c-2.3.1-4.2.5-5.9 1.5-1.1.5-2.3.8-3.4.8zm3.7-61.7c-1.7.1-2.2.4-2.5 2.7-.9 6.5-3.4 12.5-5.6 17.6-1.4 3.1-2.8 6.7-2.2 10.6.6 4.4-.6 6.4-4.9 8.1-3 1.2-3.3 1.7-2.4 4.8 1.6 5.5 4.8 10.2 9.4 13.9 2.7 2.2 4.8 2.6 7 1.4 2-1.1 4.2-1.6 6.8-1.7.7 0 1.4 0 2.1-.1 1.4 0 2.8-.1 4.1-.2 2-.1 4-.6 6.2-1.5l-6.7-2.6c-5.5-2.2-11-4.3-16.4-6.5-2.5-1-3.6-2.7-3.2-5.1l-.2-.1L23.4 29l.1-.5c.8-3 .7-5.5-.3-7.8-.8-1.4-2.2-2.2-3.1-2.2z"/>
    <path fill="currentColor" d="M52.3 68.9c-4.1 0-5.2-2.5-5.4-3.3-.6-2.5.2-4.5 2.4-6 .8-.5 1.1-1.2.9-2.2-.7-3-.1-4.6 2.6-6.5 1-.7 1-1.4.7-2.1-1.2-3.1-.2-5.5 2.7-7 .5-.3.8-.5.9-.8s-.1-.7-.2-.9c-.8-1.5-1-3.2-.4-4.6.5-1.4 1.7-2.4 3.3-2.9.2-.1.3-.1.4-.2.4-.3.7-.6 1.7-.8h.2l1.5-.2c4.8 0 6 2.6 6.2 4.1.6 3.3-1.1 4.7-4.8 6.3 1.4 1.2 1.9 2.7 1.7 4.4-.4 3.1-2.4 4.2-4.7 4.8 1.1 1.1 2 2.8 1.3 5.2-.7 2.3-2.4 3.2-4.2 3.7 1.4 1.9 1.5 3.5 1.2 4.6-.5 1.8-2.1 3.2-4.7 4 0 0-.1 0-.1.1h-.1c-1.2.2-2.2.3-3.1.3zm10-35.4c-.6.2-.7.3-.9.5-.2.2-.5.4-1 .6-1 .3-1.7 1-2 1.8-.3.9-.2 1.9.3 2.9.5.9.6 1.7.4 2.5-.3.8-.9 1.4-1.9 1.9-2 1-2.6 2.4-1.8 4.5.7 1.7.2 3.3-1.5 4.5-2 1.4-2.3 2.1-1.8 4.4.4 1.8-.2 3.3-1.7 4.3s-2 2.2-1.6 3.8c.2.5.9 1.8 3.5 1.8.7 0 1.6-.1 2.5-.3.1 0 .1 0 .2-.1 1.9-.6 3.1-1.5 3.4-2.6.3-1.1-.4-2.5-1.8-4l-1.4-1.3 2-.5c2.2-.5 3.6-.9 4.1-2.6s-.1-2.9-2.2-4.3l-2-1.3 2.6-.6c2.9-.7 4.6-1.1 4.9-3.5.2-1.4-.5-2.5-2.3-3.5l-1.8-1 2-.8c5.6-2.1 5.6-3 5.3-4.8-.3-1.6-1.7-2.4-4.2-2.5l-1.3.2z"/>
</symbol><symbol id="icon-byod" viewBox="0 0 70 80.2">
    <path d="M66.3 10.3L41.2.4c-2.7-1.1-5.7.3-6.8 3.1L13.3 57.1c-1.1 2.7.2 5.8 2.9 6.9l25.1 9.9c2.7 1.1 5.7-.3 6.8-3.1l1-2.6c-.4-.4-.9-.8-1.4-1.1l-1.3 3.2c-.7 1.9-2.8 2.9-4.7 2.2l-25.1-9.9c-1.8-.7-2.7-2.9-2-4.8l2.3-5.8 30 11.8c0-.6.1-1.1.1-1.7L17.7 50.4 34.1 8.7l31.8 12.6-4.1 10.3v.1h1.8l.1-.3 5.6-14.2c1-2.8-.3-5.8-3-6.9zm1.5 6.3l-1.3 3.2L34.7 7.3 36 4.1c.7-2 2.8-2.9 4.7-2.2l25.1 9.9c1.8.7 2.7 2.9 2 4.8z"/>
    <path d="M30.6 66.2c-1.9-.7-2.8-2.9-2.1-4.7.7-1.9 2.9-2.8 4.7-2.1 1.9.7 2.8 2.9 2.1 4.7-.7 1.9-2.8 2.8-4.7 2.1zm2.1-5.3c-1.1-.4-2.3.1-2.7 1.2-.4 1.1.1 2.3 1.2 2.7s2.3-.1 2.7-1.2c.4-1.1-.1-2.3-1.2-2.7z"/>
    <path d="M52.9 12.4l-3.2-1.3c-1-.4-1.5-1.4-1.2-2.3.4-.9 1.4-1.3 2.4-.9l3.2 1.3c1 .4 1.5 1.4 1.2 2.3-.4.9-1.5 1.3-2.4.9zm-2.5-3c-.2-.1-.4 0-.4 0s.1.2.3.3l3.2 1.3c.2.1.4 0 .4 0s-.1-.2-.3-.3l-3.2-1.3z"/>
    <path d="M43.3 8.6c-.9-.4-1.3-1.4-1-2.3.4-.9 1.4-1.3 2.3-1 .9.4 1.3 1.4 1 2.3-.4 1-1.4 1.4-2.3 1zm.7-1.7c-.1 0-.2 0-.2.1-.1.2.2.3.3.1 0-.1 0-.2-.1-.2z"/>
    <path fill="currentColor" d="M16.4 80.2c-1.9 0-3.8-.8-5.9-2.5-4.9-4-8.3-9-10-14.9-1.2-4-.4-5.7 3.6-7.2 3.5-1.3 4.2-2.5 3.6-5.9-.7-4.5.9-8.4 2.4-11.7 2.2-4.9 4.6-10.7 5.4-17 .4-3 1.5-4.2 4.2-4.4 2-.2 4.2 1.3 5.1 3.4.8 1.9 1.2 3.9 1 6.1l1-.9-1.5 3.9-11.4 29.8-.1.8c-.5 1.8 0 2.8 1.9 3.5 5.7 2.3 11.3 4.5 17 6.7L43 74l-2.1 1c-3.3 1.6-6.2 2.5-9.1 2.7-1.4.1-2.9.1-4.3.2h-2c-2.3.1-4.2.5-5.9 1.5-.9.5-2.1.8-3.2.8zm3.7-61.7c-1.7.1-2.2.4-2.5 2.7-.8 6.5-3.2 12.6-5.5 17.6-1.4 3.1-2.8 6.7-2.2 10.6.6 4.4-.5 6.4-4.9 8.1-3 1.2-3.3 1.7-2.4 4.8 1.6 5.5 4.8 10.2 9.4 13.9 1.7 1.4 3.2 2.1 4.6 2.1.8 0 1.6-.2 2.4-.6 2-1.1 4.2-1.6 6.8-1.7h2c1.4 0 2.8-.1 4.2-.2 2-.1 4-.6 6.2-1.5l-6.1-2.4c-5.7-2.2-11.3-4.5-17-6.7-2.5-1-3.6-2.7-3.2-5.1l-.2-.1 11.8-30.8.1-.5c.8-3 .7-5.5-.3-7.8-.9-1.5-2.3-2.4-3.2-2.4z"/>
    <path fill="currentColor" d="M52.3 68.9c-4.1 0-5.2-2.5-5.4-3.3-.6-2.5.2-4.5 2.4-6 .8-.5 1.1-1.2.9-2.2-.7-3-.1-4.6 2.6-6.5 1-.7 1-1.4.7-2.1-1.2-3.1-.2-5.5 2.7-7 .5-.3.8-.5.9-.8s-.1-.7-.2-.9c-.8-1.5-1-3.2-.4-4.6.5-1.4 1.7-2.4 3.3-2.9.2-.1.3-.1.4-.2.4-.3.7-.6 1.7-.8h.2l1.5-.2h.1c4.8 0 6 2.6 6.2 4.1.6 3.3-1.1 4.7-4.8 6.3 1.4 1.2 1.9 2.7 1.7 4.4-.4 3.1-2.4 4.2-4.7 4.8 1.1 1.1 2 2.8 1.3 5.2-.7 2.3-2.4 3.2-4.2 3.7 1.4 1.9 1.5 3.5 1.2 4.6-.5 1.8-2.1 3.2-4.7 4 0 0-.1 0-.1.1h-.1c-1.3.2-2.3.3-3.2.3zm10-35.4c-.6.2-.7.3-.9.5-.2.2-.5.4-1 .6-1 .3-1.7 1-2 1.8-.3.9-.2 1.9.3 2.9.5.9.6 1.7.4 2.5-.3.8-.9 1.4-1.9 1.9-2 1-2.6 2.4-1.8 4.5.7 1.7.2 3.3-1.5 4.5-2 1.4-2.3 2.1-1.8 4.4.4 1.8-.2 3.3-1.7 4.3s-2 2.2-1.6 3.8c.2.5.9 1.8 3.5 1.8.7 0 1.6-.1 2.5-.3 0 0 .1 0 .1-.1 1.9-.6 3.1-1.5 3.4-2.6.3-1.1-.4-2.5-1.8-4l-1.3-1.3 2-.5c2.2-.5 3.6-.9 4.1-2.6s-.1-2.9-2.2-4.3l-2-1.3 2.6-.6c2.9-.7 4.6-1.1 4.9-3.5.2-1.4-.5-2.5-2.3-3.5l-1.8-1 2-.8c5.6-2.1 5.6-3 5.3-4.8-.3-1.6-1.7-2.4-4.2-2.5l-1.3.2z"/>
</symbol><symbol id="icon-check-mark" viewBox="0 0 70 70">
    <path d="M61.5 1c-.1.2.2.3.3.5l8.1 10.2c.3.3.2.5 0 .8C55 31.2 40.3 49.9 25.5 68.6c-.5.6-.5.6-1 0L.5 41.3c-.2-.2-.3-.5-.6-.5v-.2c.4-.2.6-.6.8-.9 3-3.7 5.9-7.5 8.9-11.2.1-.1.2-.2.3-.4 5 6.3 10 12.7 15 19 3-3.7 5.9-7.4 8.8-11.1 9-11.4 18.1-22.9 27.1-34.3.1-.2.4-.3.3-.5.2-.2.3-.2.4-.2z"/>
</symbol><symbol id="icon-check" viewBox="0 0 13.4 12.1">
    <path d="M5.6 9.6c.1-.1.1-.2.2-.3C7.7 6.4 9.7 3.4 11.6.5c.3-.4.7-.6 1.1-.5.6.2.9.8.5 1.4-.3.4-.6.9-.9 1.3-1.9 2.9-3.8 5.9-5.8 8.8-.3.5-.7.6-1.2.5-.1-.1-.3-.1-.3-.2C3.4 9.9 1.8 8.1.2 6.3c-.5-.5-.2-1.4.5-1.5.4-.1.7.1.9.4.6.7 1.3 1.4 1.9 2.1.7.7 1.3 1.4 1.9 2.1l.2.2z"/>
</symbol><symbol id="icon-checkbox" viewBox="0 0 448.8 448.8">
    <path d="M142.8 323.85L35.7 216.75 0 252.45l142.8 142.8 306-306-35.7-35.7z"/>
</symbol><symbol id="icon-close" viewBox="0 0 357 357">
    <path d="M357 35.7L321.3 0 178.5 142.8 35.7 0 0 35.7l142.8 142.8L0 321.3 35.7 357l142.8-142.8L321.3 357l35.7-35.7-142.8-142.8z"/>
</symbol><symbol id="icon-epay-payment" viewBox="0 0 46.9 85.9">
    <path d="M40.5 0h-34C2.9 0 0 3 0 6.7v72.5c0 3.7 2.9 6.7 6.5 6.7h33.9c3.6 0 6.5-3 6.5-6.7V6.8C47 3.1 44.1 0 40.5 0zm-34 2h33.9c2.5 0 4.5 2.1 4.5 4.7V11H2V6.8C2 4.2 4 2 6.5 2zM45 13.1v56.4H2V13.1h43zM40.5 84h-34C4 84 2 81.9 2 79.3v-7.8h43v7.8c0 2.6-2 4.7-4.5 4.7z"/>
    <path d="M24.5 82c-2.5 0-4.6-2.1-4.6-4.6s2.1-4.6 4.6-4.6 4.6 2.1 4.6 4.6S27 82 24.5 82zm0-7.2c-1.4 0-2.6 1.2-2.6 2.6s1.2 2.6 2.6 2.6 2.5-1.2 2.5-2.6-1.1-2.6-2.5-2.6z"/>
    <path d="M25.7 8.7h-4.3c-1.3 0-2.4-1-2.4-2.2s1.1-2.2 2.4-2.2h4.3c1.3 0 2.4 1 2.4 2.2S27 8.7 25.7 8.7zm-4.4-2.4c-.3 0-.4.2-.4.2s.1.2.4.2h4.3c.3 0 .4-.2.4-.2s-.1-.2-.4-.2h-4.3z"/>
    <path d="M12.7 8.7c-1.2 0-2.2-1-2.2-2.2s1-2.2 2.2-2.2 2.2 1 2.2 2.2-1 2.2-2.2 2.2zm0-2.4c-.1 0-.2.1-.2.2 0 .2.4.2.4 0 0-.1-.1-.2-.2-.2z"/>
    <path d="M34 59.4H12.9c-4.1 0-7.5-3.4-7.5-7.5V30.8c0-4.1 3.4-7.5 7.5-7.5H34c4.1 0 7.5 3.4 7.5 7.5v21.1c0 4.1-3.4 7.5-7.5 7.5zM12.9 24.3c-3.6 0-6.5 2.9-6.5 6.5v21.1c0 3.6 2.9 6.5 6.5 6.5H34c3.6 0 6.5-2.9 6.5-6.5V30.8c0-3.6-2.9-6.5-6.5-6.5H12.9z"/>
    <g fill="#2C478A" data-clear="not">
        <path d="M19.2 54.1v-2.3c0-.6.3-.9.9-.9.5 0 1-.1 1.5 0 1 .2 1.7 1.1 1.6 2.1s-.9 1.8-2 1.8c-.7 0-.7 0-.7-.7 0-.1.1-.2.2-.2h.5c.6 0 1.1-.5 1.1-1.1s-.4-1.1-1.1-1.1h-.9c-.2 0-.3.1-.3.3v4.3c0 .4 0 .4-.4.4-.5 0-.5 0-.5-.5.1-.6.1-1.3.1-2.1z"/>
        <path d="M17.1 53.2h-1.2c-.2 0-.3-.1-.2-.2v-.2c0-.2.1-.2.2-.2h1.5c.2 0 .3 0 .2-.3-.3-.5-.8-.8-1.3-.7-.5.1-1 .6-1 1.1 0 .6.3 1.1.8 1.3.2.1.5.1.8.1h1.7c.2 0 .2.1.2.2 0 .6 0 .6-.6.6h-1.8c-1.1 0-2-.9-2-1.9-.1-1.1.7-2 1.8-2.2 1.1-.2 2.1.5 2.3 1.6v.1c.1.7.1.8-.6.8-.2-.1-.5-.1-.8-.1z"/>
        <path d="M27.6 53.2v1.5c0 .2 0 .3-.2.3-.7 0-.7 0-.7-.7v-2.2c0-.2-.1-.3-.3-.3h-.8c-.6 0-1.1.5-1.1 1.1S25 54 25.6 54h.1c.7 0 .7.1.6.7 0 .1-.1.2-.2.2-.5 0-.9 0-1.4-.2-1.2-.6-1.4-1.9-.8-2.8.4-.6.9-.9 1.7-1h1.2c.5 0 .8.3.8.8v1.5z"/>
        <path d="M31.2 53.1v-1.8c0-.2 0-.3.2-.3.7 0 .7 0 .7.7v3.1c0 1.3-1.1 2.3-2.2 2.2h-1.3c-.2 0-.2 0-.2-.2 0-.7 0-.7.7-.7h.9c.7 0 1.2-.5 1.2-1.2v-1.8z"/>
        <path d="M29 52.1v.8c0 .6.5 1.1 1.1 1.1h.1c.2 0 .5-.1.5.1.1.2 0 .5 0 .7 0 .1 0 .1-.1.1-.9.2-2-.3-2.4-1.2-.1-.2-.2-.5-.2-.7v-1.8c0-.2.1-.2.2-.2.7 0 .7 0 .7.6.1.2.1.4.1.5z"/>
    </g>
    <g data-clear="not">
        
        <clipPath data-clear="not" id="b">
            <use data-clear="not" xlink:href="#a" overflow="visible"/>
        </clipPath>
        <path data-clear="not" clip-path="url(#b)" fill="#2C478A" d="M26.7 25.5l3.6 3.6-15.5 15.6-3.6-3.6V25.5z"/>
        <path data-clear="not" clip-path="url(#b)" fill="#E95125" d="M31.6 30.4l3.5 3.5v15.6H19.6L16 45.9z"/>
    </g>
    <g fill="#FEFEFE" data-clear="not">
        <path d="M23.6 44.4c-1.1 0-2.1-.2-3.1-.7-.5-.2-.5-.2-.1-.6l1.1-1.1c.2-.2.3-.2.5-.1.6.2 1.1.3 1.8.3 1.9 0 3.7-1.5 4.3-3.3 0-.1 0-.1.1-.2 0-.2.1-.2.2-.1l1.5 1.5c.1.1.1.2.1.3-.9 1.9-2.3 3.1-4.3 3.7-.8.2-1.5.2-2.1.3z"/>
        <path d="M18.9 42.6c-.2-.2-.2-.3 0-.5l9.3-9.3c.2-.2.3-.2.4 0s.3.3.4.5c.1.1.1.2 0 .3l-.5.5-8.8 8.8c-.2.2-.3.3-.5 0 0-.1-.1-.2-.3-.3.1 0 0 0 0 0z"/>
        <path d="M18.3 41.9c-.7-.8-1.3-1.8-1.5-2.8-.6-3 .4-5.9 3.1-7.6 2.1-1.3 4.3-1.4 6.6-.3.5.2.9.5 1.3.8.2.1.2.2 0 .4l-9.3 9.3c0 .1-.1.2-.2.2zm5.5-9.1c-.5 0-1 .1-1.5.2-2.4.8-3.8 3.6-2.9 6 .1.1.1.3.3.1l5.8-5.8c.1-.1.1-.2-.1-.2-.5-.2-1.1-.3-1.6-.3z"/>
    </g>
</symbol><symbol id="icon-error" viewBox="0 0 12.3 12.2">
    <path d="M1.8 0c.2 0 .3.1.4.2l2 2 1.5 1.5c.2.2.5.2.8 0L10 .2c.3-.3.5-.3.8 0L12 1.4c.3.3.3.5 0 .8-1.3 1.2-2.4 2.3-3.6 3.5-.3.3-.3.5 0 .8l3.5 3.5c.3.3.3.5 0 .8L10.7 12c-.2.2-.5.2-.8 0-1.1-1.2-2.3-2.4-3.4-3.5-.3-.3-.6-.3-.9 0L2.1 12c-.2.2-.5.2-.7 0L.2 10.8c-.3-.3-.3-.5 0-.8 1.1-1.2 2.3-2.4 3.5-3.5.3-.3.3-.5 0-.8L.2 2.2c-.3-.3-.3-.5 0-.8L1.4.2c.1-.1.2-.2.4-.2z"/>
</symbol><symbol id="icon-esn-change" viewBox="0 0 46.9 85.9">
    <style>
        .st0{enable-background:new}.st1{fill:#3598d4}
    </style>
    <g class="st0">
        <path class="st1" d="M13.1 38.5h.5V42h-.5v-3.5z"/>
        <path class="st1" d="M14.3 38.5h.7l1 3 1-3h.7V42h-.5v-2.1-.4-.5l-1 3h-.5l-1-3v3h-.5v-3.5z"/>
        <path class="st1" d="M18.6 38.5h2.6v.4H19V40h2v.4h-2v1.2h2.2v.4h-2.6v-3.5z"/>
        <path class="st1" d="M22 38.5h.5V42H22v-3.5z"/>
        <path class="st1" d="M24 38.5h.4L23.2 42h-.4l1.2-3.5z"/>
        <path class="st1" d="M24.7 38.5h2.6v.4h-2.1V40h2v.4h-2v1.2h2.2v.4h-2.6v-3.5z"/>
        <path class="st1" d="M28.3 40.9c0 .2.1.4.1.5.2.2.4.4.8.4.2 0 .3 0 .5-.1.3-.1.4-.3.4-.5s-.1-.3-.2-.4c-.1-.1-.3-.2-.6-.2l-.5-.1c-.3-.1-.5-.2-.7-.2-.2-.1-.3-.4-.3-.7 0-.3.1-.6.3-.8.2-.2.5-.3.9-.3s.7.1.9.3.4.5.4.9H30c0-.2-.1-.3-.2-.4-.1-.2-.4-.3-.7-.3-.3 0-.5.1-.6.2s-.2.3-.2.4c0 .2.1.3.2.4.1.1.3.1.6.2l.5.1c.2.1.4.1.5.2.2.2.3.4.3.7 0 .4-.1.7-.4.9-.3.2-.6.3-1 .3s-.8-.1-1-.3c-.2-.2-.4-.5-.4-.9h.7z"/>
        <path class="st1" d="M31.3 38.5h.6l1.8 2.9v-2.9h.5V42h-.5l-1.8-2.9V42h-.5v-3.5z"/>
    </g>
    <path class="st1" d="M40.4 0H6.5C2.9 0 0 3 0 6.7v72.5c0 3.7 2.9 6.7 6.5 6.7h33.9c3.6 0 6.5-3 6.5-6.7V6.8C46.9 3.1 44 0 40.4 0zM6.5 2h33.9c2.5 0 4.5 2.1 4.5 4.7V11h-43V6.8C1.9 4.2 4 2 6.5 2zm38.4 11.1v56.4h-43V13.1h43zM40.4 84H6.5C4 84 2 81.9 2 79.3v-7.8h43v7.8c-.1 2.6-2.1 4.7-4.6 4.7z"/>
    <path class="st1" d="M24.4 82c-2.5 0-4.6-2.1-4.6-4.6s2.1-4.6 4.6-4.6 4.6 2.1 4.6 4.6-2.1 4.6-4.6 4.6zm0-7.2c-1.4 0-2.6 1.2-2.6 2.6S23 80 24.4 80s2.6-1.2 2.6-2.6-1.2-2.6-2.6-2.6z"/>
    <path class="st1" d="M25.6 8.7h-4.3c-1.3 0-2.4-1-2.4-2.2s1.1-2.2 2.4-2.2h4.3c1.3 0 2.4 1 2.4 2.2s-1.1 2.2-2.4 2.2zm-4.3-2.4c-.3 0-.4.2-.4.2s.1.2.4.2h4.3c.3 0 .4-.2.4-.2s-.1-.2-.4-.2h-4.3z"/>
    <path class="st1" d="M12.7 8.7c-1.2 0-2.2-1-2.2-2.2s1-2.2 2.2-2.2 2.2 1 2.2 2.2-1 2.2-2.2 2.2zm0-2.4c-.1 0-.2.1-.2.2 0 .2.4.2.4 0 0-.1-.1-.2-.2-.2z"/>
    <g>
        <path class="st1" fill="currentColor" d="M29.4 22v1.6c0 .4.1.6.5.6 1.8.1 3.5.4 5.1 1.2 2.5 1.3 4 3.5 4.6 6.2.3 1.4.4 2.9.6 4.3 0 .3 0 .5-.4.5s-.5-.2-.5-.5c-.1-1.5-.4-2.8-1.1-4.1-1.3-2.2-3.4-3.3-5.9-3.8-.8-.2-1.6-.2-2.3-.3-.4-.1-.6.1-.6.5v1.6l-8.1-3.9c2.7-1.3 5.3-2.5 8.1-3.9z"/>
    </g>
    <g>
        <path class="st1" fill="currentColor" d="M25.6 55l-8.1 3.9v-2.1c-1.2-.2-2.3-.3-3.3-.5-3.8-.9-6.1-3.3-7-7.1-.3-1.4-.4-2.8-.6-4.3 0-.3-.1-.6.4-.6.4 0 .5.2.5.6 0 1.3.3 2.6.9 3.7 1.2 2.2 3.2 3.4 5.6 4 .9.2 1.9.3 2.9.4.4.1.5-.1.5-.5v-1.6c2.8 1.5 5.4 2.7 8.2 4.1z"/>
    </g>
    <g>
        <path class="st1" d="M36.7 31.7H10.4c-.2 0-.3.1-.3.3v17c0 .2.2.3.3.3h26.4c.2 0 .3-.1.3-.3V32c0-.2-.2-.3-.4-.3zm-1.5 15.8c0 .2-.2.3-.3.3H12.3c-.2 0-.3-.1-.3-.3v-14c0-.2.2-.3.3-.3h22.5c.2 0 .3.1.3.3l.1 14z"/>
    </g>
</symbol><symbol id="icon-existing-customer" viewBox="0 0 61 61">
    <title>
        existing-customer
    </title>
    <path d="M51.4 39.5c0-.1.1-.1.1-.2-1.2-.9-2.3-1.9-3.5-2.8-1.2-.9-2.6-1.6-3.9-2.5 8.3-8.2 7.2-20.8-.1-27.7-2.1-2-4.4-3.4-6.9-4.3-.5-.2-1-.3-1.5-.5-.1 0-.2-.1-.4-.1-.4-.1-.8-.2-1.3-.3-.2 0-.4-.1-.6-.1-.4-.1-.7-.1-1.1-.1H28.8c-.4 0-.7.1-1.1.1-.2 0-.4.1-.6.1-.4.1-.9.2-1.3.3-.1 0-.2.1-.4.1-.5.1-1 .3-1.5.5-2.5.9-4.9 2.3-6.9 4.3-7.3 7-8.3 19.6-.1 27.7-1.3.8-2.6 1.6-3.9 2.5-1.2.9-2.4 1.9-3.5 2.8 0 .1.1.1.1.2C3.1 45.9.4 54.4.6 61H60.5c.1-6.7-2.5-15.1-9.1-21.5zM15.6 20.1c0-8.2 6.8-14.9 14.9-15 8.2 0 14.9 6.7 14.9 15 0 8.2-6.7 15-14.9 15.1-8.3-.1-15-6.9-14.9-15.1zm23.5 36.5H5.2v-.2c1.8-8.9 6.8-15.2 15-19 .8-.1 1.6 0 2.5.4.3.1.6.2.9.4h.1c1.3.5 2.6.9 3.9 1.1h.3c.5.1 1 .1 1.5.1h1.8c.5 0 1-.1 1.5-.1h.3c1.3-.2 2.6-.6 3.9-1.1h.1c.3-.1.6-.2.9-.4.9-.4 1.7-.6 2.5-.4 8.2 3.8 13.2 10.1 15 19v.2H39.1z" fill-rule="nonzero"/>
</symbol><symbol id="icon-feature-change" viewBox="0 0 46.9 85.9">
    <g fill="currentColor">
        <path d="M6.1 40.1h1.7l2.5 7.3 2.5-7.3h1.7v8.6h-1.1v-5.1-.9-1.3l-2.5 7.3H9.6l-2.5-7.3V48.8h-1v-8.7z"/>
        <path d="M16.3 40.1h3.9c.6 0 1.2.1 1.6.3.8.4 1.2 1 1.2 2 0 .5-.1.9-.3 1.3s-.5.6-.9.8c.3.1.6.3.8.5s.3.6.3 1.1v1.2c0 .3 0 .6.1.7.1.3.2.4.4.5v.2H22c0-.1-.1-.2-.1-.3s0-.3-.1-.7l-.1-1.4c0-.6-.2-.9-.6-1.1-.3-.2-.6-.2-1.1-.2h-2.6v3.7h-1.2v-8.6zM20 44c.5 0 1-.1 1.3-.3s.5-.6.5-1.2-.2-1-.6-1.3c-.2-.1-.5-.2-.9-.2h-2.8v3H20z"/>
        <path d="M30.9 40.7c.6.6.9 1.2 1 2h-1.1c-.1-.6-.4-1-.8-1.3s-.9-.5-1.6-.5c-.8 0-1.5.3-2 .9-.5.6-.8 1.5-.8 2.7 0 1 .2 1.8.7 2.5.5.6 1.2.9 2.1.9.8 0 1.5-.3 1.9-1 .2-.3.4-.8.5-1.4h1.1c-.1.9-.4 1.7-1 2.3-.7.7-1.6 1.1-2.7 1.1-1 0-1.8-.3-2.5-.9-.9-.8-1.3-2-1.3-3.7 0-1.3.3-2.3 1-3.1.7-.9 1.7-1.3 3-1.3 1-.1 1.9.2 2.5.8z"/>
    </g>
    <path fill="currentColor" d="M28.5 36.2v-3.1h4.8v-4.8h3.1v4.8h4.8v3.1h-4.8V41h-3.1v-4.8h-4.8z"/>
    <path d="M40.5 0h-34C2.9 0 0 3 0 6.7v72.5c0 3.7 2.9 6.7 6.5 6.7h33.9c3.6 0 6.5-3 6.5-6.7V6.8C47 3.1 44.1 0 40.5 0zm-34 2h33.9c2.5 0 4.5 2.1 4.5 4.7V11H2V6.8C2 4.2 4 2 6.5 2zM45 13.1v56.4H2V13.1h43zM40.5 84h-34C4 84 2 81.9 2 79.3v-7.8h43v7.8c0 2.6-2 4.7-4.5 4.7z"/>
    <path d="M24.5 82c-2.5 0-4.6-2.1-4.6-4.6s2.1-4.6 4.6-4.6 4.6 2.1 4.6 4.6S27 82 24.5 82zm0-7.2c-1.4 0-2.6 1.2-2.6 2.6s1.2 2.6 2.6 2.6 2.5-1.2 2.5-2.6-1.1-2.6-2.5-2.6z"/>
    <path d="M25.7 8.7h-4.3c-1.3 0-2.4-1-2.4-2.2s1.1-2.2 2.4-2.2h4.3c1.3 0 2.4 1 2.4 2.2S27 8.7 25.7 8.7zm-4.4-2.4c-.3 0-.4.2-.4.2s.1.2.4.2h4.3c.3 0 .4-.2.4-.2s-.1-.2-.4-.2h-4.3z"/>
    <path d="M12.7 8.7c-1.2 0-2.2-1-2.2-2.2s1-2.2 2.2-2.2 2.2 1 2.2 2.2-1 2.2-2.2 2.2zm0-2.4c-.1 0-.2.1-.2.2 0 .2.4.2.4 0 0-.1-.1-.2-.2-.2z"/>
</symbol><symbol id="icon-have-number" viewBox="0 0 73.5 73.5">
    <path d="M39.3 58.3c-2.1 0-3.9 1.7-3.9 3.9 0 2.1 1.7 3.9 3.9 3.9 2.1 0 3.9-1.7 3.9-3.9-.1-2-1.8-3.9-3.9-3.9zm0 5.9c-1 0-1.9-.8-1.9-1.9 0-1 .8-1.9 1.9-1.9 1 0 1.9.8 1.9 1.9-.1.9-.9 1.9-1.9 1.9z"/>
    <path d="M36.8 7.7h3.4c1.2 0 2.1-.9 2.1-2s-1-2-2.1-2h-3.4c-1.2 0-2.1.9-2.1 2-.1 1.1.9 2 2.1 2z"/>
    <circle cx="29.9" cy="5.7" r="2"/>
    <path d="M52 .3H25c-3 0-5.4 2.5-5.4 5.6v37.5c.7.2 1.4.4 2 .7V10.7h33.9v44.5h-25c.1.7.2 1.3.2 2h24.7v6.4c0 2-1.5 3.6-3.4 3.6H27.5c-.6.7-1.2 1.4-1.9 2H52c3 0 5.4-2.5 5.4-5.6V5.9C57.4 2.8 55 .3 52 .3zm3.4 8.4H21.6V5.9c0-2 1.5-3.6 3.4-3.6h27c1.9 0 3.4 1.6 3.4 3.6v2.8z"/>
    <path fill="currentColor" d="M15.6 73.2C7.3 73.2.5 66.4.5 58.1S7.3 43 15.6 43s15.1 6.8 15.1 15.1-6.8 15.1-15.1 15.1zm0-29.2C7.8 44 1.5 50.2 1.5 58s6.3 14.1 14.1 14.1S29.7 65.8 29.7 58s-6.3-14-14.1-14z"/>
    <path d="M24.9 58.3c-.6 1.5-1.4 2.9-2.2 4.2l-1.2 1.8c-.4.5-.9.7-1.6.7h-5.5c-.6 0-1.2-.1-1.8-.3-1.3-.5-2-1.5-2.3-2.9-.5-2.4-1-4.8-1.4-7.2v-.1c-.2-.7-.5-1-1.3-1.1-.3 0-.6 0-.8-.1-.4-.1-.7-.4-.8-.8v-.1-.3c.1-.3.2-.6.5-.7.1-.1.3-.2.4-.2 1-.1 2 .1 2.9.8.6.5 1 1.1 1.2 1.9.3 1.3.5 2.7.8 4 .2 1.2.5 2.4.7 3.6.2.7.7 1.2 1.5 1.3h5.6c.2 0 .3 0 .3-.2.5-.8 1-1.5 1.4-2.3.5-.9.9-1.8 1.4-2.7.3-.5.8-.8 1.3-.6.4.1.6.4.7.7v.1c.2.4.2.4.2.5z"/>
    <path d="M13.4 69.4c-.3-.1-.7-.2-.9-.4-.5-.5-.7-1-.6-1.7.1-.7.5-1.2 1.2-1.4.8-.3 1.7.1 2.1.7.5.7.4 1.6-.2 2.3-.3.3-.6.4-.9.5h-.7z"/>
    <path d="M19.9 69.4c-.3-.1-.7-.2-.9-.5-.5-.5-.7-1-.6-1.7s.5-1.2 1.2-1.4c1.3-.4 2.5.5 2.4 1.9-.1.7-.6 1.4-1.4 1.6h-.1c-.2.1-.4.1-.6.1z"/>
    <path d="M15.5 55.7c0-.7.1-1.4.1-2.1 0-.3.1-.7.1-1 0-.2.1-.3.3-.4.6-.2 1.2-.2 1.8 0 .2.1.3.2.4.4 0 .5.1 1 .1 1.5s.1.9.1 1.4v.2h1.5c.2 0 .4 0 .4.2.1.2 0 .3-.1.5-.6.8-1.3 1.6-1.9 2.3-.3.4-.7.7-1.1 1.1-.2.2-.4.2-.6 0-1.1-1.1-2.1-2.2-3-3.4-.1-.2-.2-.3-.1-.5s.3-.2.5-.2h1.5z"/>
    <circle fill="currentColor" cx="26.8" cy="33.5" r="2.7"/>
    <circle fill="currentColor" cx="34.4" cy="33.5" r="2.7"/>
    <circle fill="currentColor" cx="41.9" cy="33.5" r="2.7"/>
    <circle fill="currentColor" cx="49.4" cy="33.5" r="2.7"/>
    <path fill="currentColor" d="M24.1 38.5h5.5v1h-5.5z"/>
    <path fill="currentColor" d="M31.6 38.5h5.5v1h-5.5z"/>
    <path fill="currentColor" d="M39.2 38.5h5.5v1h-5.5z"/>
    <path fill="currentColor" d="M46.7 38.5h5.5v1h-5.5z"/>
</symbol><symbol id="icon-info" viewBox="0 0 28 28">
    <path d="M14 0C6.3 0 0 6.3 0 14s6.3 14 14 14 14-6.3 14-14S21.7 0 14 0zm0 26.5C7 26.5 1.4 20.9 1.4 14 1.4 7 7 1.4 14 1.4 20.9 1.4 26.5 7 26.5 14c0 6.9-5.6 12.5-12.5 12.5z"/>
    <path d="M12 10.5h3.9v12.6H12z"/>
    <path d="M14 5.1c-1.3 0-2.1.9-2.1 2s.8 2 2 2c1.3 0 2.1-.9 2.1-2 0-1.2-.7-2-2-2z"/>
</symbol><symbol id="icon-new-customer" viewBox="0 0 61 61">
    <title>
        new-customer
    </title>
    <g fill-rule="nonzero">
        <path d="M.5 60.9C.2 52.2 5 40.2 17 34.1c-8.5-8.3-7.2-21.3.6-28.3 7.5-6.7 19-6.6 26.4.5 7.3 7 8.3 19.6.1 27.7 1.3.8 2.6 1.6 3.9 2.5 1.2.9 2.4 1.9 3.5 2.8 0 .1-.1.1-.1.2-1.2 0-2.3-.1-3.5 0-2.1.2-4-.1-5.7-1.4-1.3-1-2.5-.9-4-.2-5.6 2.4-11.2 2.1-16.6-.6-.4-.2-.7-.2-1.2 0C12.1 41.1 7 47.4 5.2 56.4v.2h33.9v4.3H.5zM30.6 5.1c-8.2 0-15 6.7-15.1 15 0 8.2 6.7 15 15 15.1 8.3.1 15.1-6.7 15.1-15s-6.8-15-15-15.1z"/>
        <path d="M49.8 54.5h-6.4v-4.3h6.4v-6.4h4.3v6.4h6.4v4.3h-6.4v6.4h-4.3v-6.4z" fill="currentColor"/>
    </g>
</symbol><symbol id="icon-plan-change" viewBox="0 0 46.9 85.9">
    <path d="M40.5 0h-34C2.9 0 0 3 0 6.7v72.5c0 3.7 2.9 6.7 6.5 6.7h33.9c3.6 0 6.5-3 6.5-6.7V6.8C47 3.1 44.1 0 40.5 0zm-34 2h33.9c2.5 0 4.5 2.1 4.5 4.7V11H2V6.8C2 4.2 4 2 6.5 2zM45 13.1v56.4H2V13.1h43zM40.5 84h-34C4 84 2 81.9 2 79.3v-7.8h43v7.8c0 2.6-2 4.7-4.5 4.7z"/>
    <path d="M24.5 82c-2.5 0-4.6-2.1-4.6-4.6s2.1-4.6 4.6-4.6 4.6 2.1 4.6 4.6S27 82 24.5 82zm0-7.2c-1.4 0-2.6 1.2-2.6 2.6s1.2 2.6 2.6 2.6 2.5-1.2 2.5-2.6-1.1-2.6-2.5-2.6z"/>
    <path d="M25.7 8.7h-4.3c-1.3 0-2.4-1-2.4-2.2s1.1-2.2 2.4-2.2h4.3c1.3 0 2.4 1 2.4 2.2S27 8.7 25.7 8.7zm-4.4-2.4c-.3 0-.4.2-.4.2s.1.2.4.2h4.3c.3 0 .4-.2.4-.2s-.1-.2-.4-.2h-4.3z"/>
    <path d="M12.7 8.7c-1.2 0-2.2-1-2.2-2.2s1-2.2 2.2-2.2 2.2 1 2.2 2.2-1 2.2-2.2 2.2zm0-2.4c-.1 0-.2.1-.2.2 0 .2.4.2.4 0 0-.1-.1-.2-.2-.2z"/>
    <path fill="currentColor" d="M22.4 26.4c2.5 0 4.9.7 7 1.8 0 .1-.2.3-.3.3h.9c.4.3.9.6 1.3.9v5.2h4c.8 1.7 1.2 3.6 1.2 5.7 0 7.8-6.3 14.1-14.1 14.1S8.3 48.3 8.3 40.5s6.3-14.1 14.1-14.1z" opacity=".3"/>
    <g data-clear="not" fill="#fff">
        <path d="M16.6 44.5h-.5v-1c-.6-.1-1.1-.2-1.4-.4-.6-.4-.8-1-.8-1.9h1.3c0 .4.1.7.2.8.1.2.4.4.7.4v-2.1l-.4-.1c-.6-.2-1.1-.4-1.3-.8s-.4-.6-.4-1.1c0-.3 0-.6.1-.8s.2-.5.4-.6c.2-.2.5-.4.8-.5.2-.1.4-.1.8-.1v-.6h.5v.7c.5 0 .9.2 1.2.4.5.3.8.9.9 1.7h-1.3c0-.3-.1-.5-.1-.6-.1-.2-.3-.4-.7-.4v1.9c.8.3 1.3.5 1.6.7.4.3.7.8.7 1.4 0 .8-.3 1.4-.9 1.8-.4.2-.8.4-1.3.4v.8zm-.5-7.1c-.3 0-.5.1-.6.2-.1.1-.2.3-.2.6s.1.5.3.6c.1.1.3.2.5.2v-1.6zm.5 5.1c.3 0 .4-.1.6-.2.2-.1.3-.4.3-.8 0-.3-.1-.5-.3-.7-.1-.1-.3-.2-.6-.3v2z"/>
        <path d="M20.8 41.5c.1.3.2.5.3.7.2.2.4.2.7.2.3 0 .6-.1.8-.4.2-.2.3-.5.3-.9s-.1-.7-.3-.9c-.2-.2-.4-.4-.8-.4-.2 0-.3 0-.4.1-.2.1-.4.2-.5.4l-1.2-.1.5-3.9H24v1.2h-2.9l-.3 1.5c.2-.1.4-.2.5-.3.2-.1.4-.1.7-.1.6 0 1.1.2 1.5.6.4.4.7 1 .7 1.7s-.2 1.2-.6 1.8c-.4.5-1 .8-1.9.8-.7 0-1.2-.2-1.7-.5-.4-.4-.7-.9-.7-1.5h1.5z"/>
        <path d="M29.4 37.2c.4.6.5 1.5.5 2.7s-.2 2.1-.5 2.7c-.4.6-1 .9-1.9.9-.9 0-1.5-.3-1.9-.9-.4-.6-.6-1.5-.6-2.7s.2-2.1.5-2.7c.4-.6 1-1 1.9-1 1 0 1.6.4 2 1zm-2.8 4.6c.1.4.4.6.8.6s.7-.2.8-.6c.1-.4.2-1.1.2-1.9 0-.9-.1-1.5-.2-1.9-.1-.4-.4-.6-.8-.6s-.7.2-.8.6c-.1.4-.2 1-.2 1.9 0 .8.1 1.4.2 1.9z"/>
    </g>
    <g>
        <path fill="currentColor" d="M36.9 35.8h-6.7v-6.2h-3.5l6.5-6.9 6.6 7h-2.9v6.1zm-5.6-1H36v-6.1h1.6l-4.3-4.6-4.2 4.5h2.2v6.2z"/>
    </g>
    <g>
        <path fill="currentColor" d="M10.6 45.7h5.6v6.2h2.9l-5.4 5.7-5.4-5.8h2.3z"/>
    </g>
</symbol><symbol id="icon-port-in-add-a-line" viewBox="0 0 74 85.9">
    <path fill="currentColor" d="M69.3 35.8c-1.3-1.3-3.1-2-5.1-2H50.3c-1.6 0-2.9-.5-3.7-1.3-.7-.7-1-1.7-1-2.8.1-2.4 1.8-3.9 4.7-3.9H63c.6 0 1.5.1 2.3-.7l.4-.4-.5-.4c-.7-.5-1.3-.6-1.9-.6H50.2c-4 0-6.7 2.4-6.7 6s2.7 6 6.7 6.1h14.2c2.7 0 4.4 1.5 4.3 4 0 2.4-1.7 4-4.4 4H50.9c-.5 0-1.2.1-1.8.6l-.4.3.3.4c.6.7 1.2.8 1.6.8H64.3c3.7 0 6.5-2.7 6.6-6 0-1.5-.6-3-1.6-4.1z"/>
    <path fill="currentColor" d="M72.8 22.1c-.7-.7-1.6-1.1-2.4-1.1-1.9 0-3.7 1.8-3.7 3.7-.1 1.8 1.7 3.7 3.6 3.8h.1c1.8 0 3.6-1.8 3.6-3.7 0-1-.4-2-1.2-2.7zM70.4 28zm0-1.3c-1.4.1-2.1-.8-2.1-2 0-1.1.8-1.9 2-1.9s1.8.8 2 1.8c0 1.3-.7 2-1.9 2.1z"/>
    <path fill="currentColor" d="M46 42.7c-.7-.7-1.6-1.1-2.4-1.1-1.9 0-3.7 1.8-3.7 3.7-.1 1.8 1.7 3.7 3.6 3.8h.1c1.8 0 3.6-1.8 3.6-3.7 0-.9-.5-1.9-1.2-2.7zm-2.4 6zm0-1.4c-1.4.1-2.1-.8-2.1-2 0-1.1.8-1.9 2-1.9s1.8.8 2 1.8c-.1 1.3-.7 2.1-1.9 2.1z"/>
    <path fill="currentColor" d="M28.1 36.4h-4.8v-3.2h4.8v-4.8h3.2v4.8h4.8v3.2h-4.8v4.8h-3.2v-4.8z"/>
    <path d="M38 81.9c-2.5 0-4.6-2.1-4.6-4.6s2.1-4.6 4.6-4.6 4.6 2.1 4.6 4.6-2.1 4.6-4.6 4.6zm0-7.2c-1.4 0-2.6 1.2-2.6 2.6s1.2 2.6 2.6 2.6 2.6-1.2 2.6-2.6-1.2-2.6-2.6-2.6z"/>
    <path d="M39.2 8.6h-4.3c-1.3 0-2.4-1-2.4-2.2s1.1-2.2 2.4-2.2h4.3c1.3 0 2.4 1 2.4 2.2s-1.1 2.2-2.4 2.2zm-4.4-2.3c-.3 0-.4.2-.4.2s.1.2.4.2h4.3c.3 0 .4-.2.4-.2s-.1-.2-.4-.2h-4.3z"/>
    <path d="M26.2 8.6c-1.2 0-2.2-1-2.2-2.2s1-2.2 2.2-2.2 2.2 1 2.2 2.2-1 2.2-2.2 2.2zm0-2.3c-.1 0-.2.1-.2.2 0 .2.4.2.4 0s-.1-.2-.2-.2z"/>
    <path d="M58.5 49.5v19.9h-43V13h43v7.2h2V6.7C60.5 3 57.6 0 54 0H20c-3.6 0-6.5 3-6.5 6.7v72.5c0 3.7 2.9 6.7 6.5 6.7h33.9c3.6 0 6.5-3 6.5-6.7V49.5h-1.9zm-43-42.8c0-2.6 2-4.7 4.5-4.7h33.9c2.5 0 4.5 2.1 4.5 4.7V11H15.5V6.7zm43 72.5c0 2.6-2 4.7-4.5 4.7H20c-2.5 0-4.5-2.1-4.5-4.7v-7.8h43v7.8z"/>
</symbol><symbol id="icon-port-in" viewBox="0 0 73.8 85.9">
    <path d="M37.9 81.9c-2.5 0-4.6-2.1-4.6-4.6s2.1-4.6 4.6-4.6 4.6 2.1 4.6 4.6-2.1 4.6-4.6 4.6zm0-7.2c-1.4 0-2.6 1.2-2.6 2.6s1.2 2.6 2.6 2.6 2.6-1.2 2.6-2.6-1.2-2.6-2.6-2.6z"/>
    <path d="M39.1 8.6h-4.3c-1.3 0-2.4-1-2.4-2.2s1.1-2.2 2.4-2.2h4.3c1.3 0 2.4 1 2.4 2.2s-1.1 2.2-2.4 2.2zm-4.3-2.3c-.3 0-.4.2-.4.2s.1.2.4.2h4.3c.3 0 .4-.2.4-.2s-.1-.2-.4-.2h-4.3z"/>
    <path d="M26.1 8.6c-1.2 0-2.2-1-2.2-2.2s1-2.2 2.2-2.2 2.2 1 2.2 2.2-1 2.2-2.2 2.2zm0-2.3c-.1 0-.2.1-.2.2 0 .2.4.2.4 0s-.1-.2-.2-.2z"/>
    <path d="M58.4 49.3v20.1h-43V13h43v7.2h2V6.7C60.4 3 57.5 0 53.9 0h-34c-3.6 0-6.5 3-6.5 6.7v72.5c0 3.7 2.9 6.7 6.5 6.7h33.9c3.6 0 6.5-3 6.5-6.7V49.3h-1.9zm-43-42.6c0-2.6 2-4.7 4.5-4.7h33.9c2.5 0 4.5 2.1 4.5 4.7V11H15.4V6.7zm43 72.5c0 2.6-2 4.7-4.5 4.7h-34c-2.5 0-4.5-2.1-4.5-4.7v-7.8h43v7.8z"/>
    <path fill="currentColor" d="M69 35.8c-1.3-1.3-3.1-2-5.1-2H50c-1.6 0-2.9-.5-3.7-1.3-.7-.7-1-1.7-1-2.8.1-2.4 1.8-3.9 4.7-3.9H62.7c.6 0 1.5.1 2.3-.7l.4-.4-.5-.4c-.7-.5-1.3-.6-1.9-.6H49.9c-4 0-6.7 2.4-6.7 6s2.7 6 6.7 6.1h14.2c2.7 0 4.4 1.5 4.3 4 0 2.4-1.7 4-4.4 4H50.6c-.5 0-1.2.1-1.8.6l-.4.3.3.4c.6.7 1.2.8 1.6.8H64c3.7 0 6.5-2.7 6.6-6 .1-1.5-.5-3-1.6-4.1z"/>
    <path fill="currentColor" d="M72.6 22.1c-.7-.7-1.6-1.1-2.4-1.1-1.9 0-3.7 1.8-3.7 3.7-.1 1.8 1.7 3.7 3.6 3.8h.1c1.8 0 3.6-1.8 3.6-3.7-.1-1-.5-2-1.2-2.7zM70.1 28zm.1-1.3c-1.4.1-2.1-.8-2.1-2 0-1.1.8-1.9 2-1.9s1.8.8 2 1.8c-.1 1.3-.7 2-1.9 2.1z"/>
    <path fill="currentColor" d="M45.7 42.7c-.7-.7-1.6-1.1-2.4-1.1-1.9 0-3.7 1.8-3.7 3.7-.1 1.8 1.7 3.7 3.6 3.8h.1c1.8 0 3.6-1.8 3.6-3.7 0-.9-.4-1.9-1.2-2.7zm-2.4 6zm0-1.4c-1.4.1-2.1-.8-2.1-2 0-1.1.8-1.9 2-1.9s1.8.8 2 1.8c0 1.3-.7 2.1-1.9 2.1z"/>
</symbol><symbol id="icon-primary-line" viewBox="0 0 170.1 180.9">
    <path d="M29.1 42.2h.9c9.5.2 9.5.3 13.5 9 3.2 6.9 6.1 14.2 9 21.3l2 4.9c.5 1.4.8 2.7.7 4-.1 1.4-.5 2.7-1.4 4.1-1.5 2.4-3 4.7-4.6 7-1.7 2.4-3.6 4.6-5.7 6.6l-.4.4.2.5c.9 2 2 3.9 3.2 5.6 1.3 1.9 2.7 3.7 4.2 5.5 5.3 6.6 11 12.6 17.4 17.7 6.3 5.1 13.3 9.3 21.2 12.4l.8.3c.7.2 1.4.5 2.1.8.4.2.6.3.6.2.1 0 .4-.3.7-.8 1.8-2.5 3.6-5 5.4-7.3 1.8-2.3 3.7-4.7 5.7-7.1 1.4-1.7 2.9-2.7 4.7-3.1 1.8-.4 3.6-.2 5.7.7 4.9 2.2 9.9 4.5 15 7 4.9 2.4 9.8 5 14.7 7.6 1.7 1 3 2.1 3.8 3.6.8 1.6 1 3.4.7 5.4-.2 1-.3 2-.4 3l-.2 3.1c-.1 2.6-.8 4.9-1.9 7-1 2-2.4 3.7-4 5.3-5.3 5.6-11.4 9.4-17.9 11.5-6.5 2.1-13.5 2.7-20.9 1.9-7.9-.9-15.4-3-22.4-6-7-3-13.6-6.8-20-11.1-11.5-7.8-21.8-16.7-30.9-26.8-9-10-16.8-21.1-23.3-33.4-1.8-3.4-3.4-7-4.5-10.6C1.6 88.8.8 85 .5 81c-.6-6 .1-11.6 2-16.8C4.3 59 7.2 54.3 11 49.8l.3-.3c4.2-5 8.8-10.4 17.8-7.3zm.5 6.9l-2-.1-.5-.2c-4.8-1.8-7.9 1.8-11 5.4l-.3.3c-3.2 3.8-5.7 7.8-7.2 12.2C7.1 71 6.5 75.6 7 80.6c.3 3.4 1 6.7 2.1 10 1 3.3 2.4 6.4 4 9.4 6.2 11.7 13.7 22.4 22.4 32 8.7 9.7 18.6 18.2 29.6 25.7 6 4.1 12.3 7.7 18.8 10.5 6.5 2.7 13.3 4.7 20.5 5.5 6.4.7 12.5.2 18-1.6s10.6-5 15.1-9.7c1.2-1.2 2.2-2.5 2.9-3.8.6-1.2 1.1-2.5 1.1-4l.2-3.6c.1-1.2.3-2.4.5-3.6.1-.5.1-.8 0-1-.1-.2-.5-.5-1-.8-4.7-2.6-9.5-5.1-14.4-7.5-4.7-2.3-9.6-4.6-14.7-6.8-.6-.3-1-.4-1.3-.3-.2.1-.6.4-1 .9-1.8 2.2-3.7 4.5-5.6 6.9-1.8 2.3-3.6 4.7-5.2 7.1-1.2 1.7-2.6 2.9-4.3 3.4-1.8.6-3.7.4-5.8-.6l-2.4-.9c-8.5-3.3-16.1-7.9-23-13.4-6.8-5.5-12.9-11.8-18.4-18.8-1.6-2-3.1-3.9-4.5-5.9-1.5-2.1-2.8-4.4-3.8-6.8-.7-1.6-.9-3.1-.6-4.6.3-1.5 1.1-2.8 2.4-4 1.8-1.7 3.4-3.6 4.8-5.7 1.5-2.2 2.9-4.4 4.3-6.6.2-.3.3-.6.3-.8 0-.3-.1-.6-.2-1l-2-4.9c-2.8-7-5.6-14.1-8.8-21-2.1-5-2.1-5-7.4-5.2.1 0 0 0 0 0z"/>
    <path fill="currentColor" d="M118.7 0h28.4c7 0 12.6 1.6 16.8 4.8 4.1 3.2 6.2 8.2 6.2 15.1 0 13.9-7.9 20.8-23.6 20.8h-18.7V69h-9.1V0zm9.1 7.9v25.2h17.5c4.9 0 8.7-.9 11.5-2.8 2.7-1.8 4.1-5.1 4.1-9.8 0-2.7-.4-4.8-1.3-6.6-.9-1.7-2.2-3-3.8-3.9-1.7-.8-3.4-1.4-5.2-1.7-1.8-.3-4-.4-6.5-.4h-16.3z"/>
</symbol><symbol id="icon-sale" viewBox="0 0 70 70">
    <path d="M69.5 40.2c.8-.8.9-1.8.3-2.8-1.3-2.1-2.6-4.2-3.9-6.2-.1-.2-.1-.3-.1-.5.8-2.3 1.6-4.7 2.4-7 .3-.9.1-1.9-.7-2.5-.4-.3-.9-.6-1.4-.9-1.8-1-3.6-2.1-5.5-3.1-.1 0-.1-.1-.2-.2l-.6-3.6c-.2-1.2-.4-2.4-.5-3.6-.2-1.5-1.3-2.2-2.5-2.2-1 0-2-.1-3-.1-1.4 0-2.8-.1-4.2-.1-.2 0-.3-.1-.4-.2-1.5-2-2.9-4-4.4-6C44.2.3 43 .1 42.1.5c-2.2 1.1-4.5 2.1-6.7 3.2-.2.1-.3.1-.5 0-2.2-1.1-4.4-2.1-6.7-3.2-.9-.4-2.1-.3-2.8.7-1.5 2-2.9 4-4.4 6-.1.2-.2.2-.4.2-2.4.1-4.9.2-7.3.2-1.2 0-2.1.8-2.3 1.9-.1.8-.2 1.6-.4 2.3-.3 1.7-.5 3.4-.8 5.1 0 .1-.1.2-.2.2-2.2 1.2-4.3 2.5-6.5 3.7-1 .6-1.4 1.6-1 2.7.8 2.3 1.6 4.7 2.4 7v.4c-.4.7-.9 1.4-1.3 2.1-.9 1.4-1.8 2.9-2.7 4.3-.2.4-.4.8-.3 1.3 0 .7.4 1.2.9 1.6 1.7 1.7 3.5 3.4 5.2 5.1.1 0 .1.1.1.2 0 .4 0 .7-.1 1.1-.1 1.1-.2 2.2-.3 3.2 0 1.2-.1 2.3-.2 3.3-.1 1.1.6 2.1 1.7 2.4l7.2 2.1c.1 0 .2.1.2.2l1.5 3.6c.5 1.1.9 2.3 1.4 3.4.5 1.1 1.5 1.5 2.6 1.3l7.2-1.5c.2 0 .3 0 .4.1 2 1.6 3.9 3.1 5.9 4.7.9.7 1.9.7 2.7 0 2-1.6 3.9-3.1 5.9-4.7.1-.1.2-.1.3-.1 2 .4 4.1.8 6.1 1.2.6.1 1.2.2 1.6.3 1.1 0 1.9-.5 2.2-1.4 1-2.3 1.9-4.6 2.9-6.9.1-.1.1-.2.3-.2 2.4-.7 4.8-1.4 7.1-2 1-.3 1.6-1.1 1.7-2.1 0-.6-.1-1.3-.1-1.9-.1-1.1-.2-2.1-.2-3.2-.1-.9-.1-1.7-.2-2.6 0-.2 0-.3.2-.5 1.6-1.7 3.3-3.4 5.1-5.1z"/>
    <g fill="currentColor">
        <path d="M24.3 18.9c1.4 0 2.7.2 3.9.8 1.8.8 3 2.2 3.7 4 .5 1.4.6 2.8.5 4.2-.1 1.1-.3 2.1-.8 3.1-.9 1.8-2.3 3-4.2 3.6-1.4.3-2.6.4-3.9.4-1-.1-2-.3-3-.7-1.8-.8-3-2.2-3.6-4-.5-1.3-.7-2.7-.6-4.1.2-1.9.8-3.6 2-5 .8-1 1.9-1.6 3.1-1.9.9-.3 1.9-.4 2.9-.4zm2.5 8.2c0-.5-.1-1.1-.1-1.6-.1-.7-.3-1.4-.7-2-.7-1-2.2-1.1-3-.1-.5.6-.7 1.3-.8 2.1-.2 1-.2 2.1 0 3.1.1.7.3 1.3.6 2 .5.9 1.3 1.2 2.3 1 .7-.2 1-.7 1.3-1.3.3-1.1.4-2.2.4-3.2z"/>
        <path d="M38.1 43.2c0-1.5.3-3 1.1-4.4.9-1.6 2.3-2.6 4.1-3.1 2-.6 4-.6 6 .1 2.2.7 3.6 2.2 4.4 4.3.8 2.3.7 4.6-.3 6.9-1 2.1-2.6 3.3-4.9 3.8-2 .4-4 .4-5.9-.4-2.3-.9-3.7-2.6-4.2-5-.2-.6-.3-1.4-.3-2.2zm10.3.1c0-.9-.1-1.9-.4-2.8-.3-.8-.7-1.4-1.6-1.5-.8-.1-1.4.1-1.9.8-.4.6-.6 1.2-.7 1.9-.2 1-.2 2.1 0 3.1.1.8.3 1.5.7 2.2.6.9 2 1 2.6.5.4-.3.7-.8.9-1.2.3-1 .4-2 .4-3z"/>
        <path d="M46.1 19.2l-.6 1.2c-1.1 2.1-2.3 4.2-3.4 6.3-1.8 3.3-3.6 6.6-5.3 9.8-2.3 4.2-4.5 8.4-6.8 12.6-.3.6-.7 1.3-1 1.9 0 .1-.1.1-.2.1h-4-.1c.2-.3.3-.6.4-.8.9-1.8 1.9-3.5 2.8-5.3 1.4-2.6 2.8-5.3 4.3-7.9 1.9-3.6 3.9-7.2 5.8-10.7 1.2-2.3 2.5-4.6 3.7-6.9.1-.2.2-.3.5-.3H46.1z"/>
    </g>
</symbol><symbol id="icon-sales-quote" viewBox="0 0 73.8 73.8">
    <path d="M0 26.1c.2-1.2.3-2.3.6-3.5 2.1-11 10.8-19.8 21.8-22 1.2-.2 2.4-.4 3.7-.6h4c.2 0 .4.1.6.1 1.4.2 2.8.4 4.1.7 11.7 2.9 20 12.6 21.2 24.7.7 6.7-.9 12.8-4.7 18.4-6.6 9.6-17.8 14-29.2 11.7C11.4 53.4 2.5 44.4.6 33.7c-.2-1.1-.4-2.3-.6-3.4v-4.2zm51.3 1.7C51.2 15.2 40.7 4.9 27.9 5S4.8 15.6 4.8 28.4c.1 12.7 10.6 23.1 23.3 23 13.1 0 23.3-10.5 23.2-23.6z"/>
    <path d="M73.7 68c-2-1.9-3.9-3.9-5.9-5.8-4.8-4.7-9.5-9.5-14.2-14.2-.1-.1-.3-.3-.4-.3-1.9 1.9-3.7 3.8-5.7 5.7 1.1 1 2.2 2.2 3.4 3.3l16.7 16.7.4.4h.1c.3-.3.6-.7 1-1 1.5-1.5 3.1-3 4.7-4.6-.1-.1-.1-.1-.1-.2z"/>
    <path fill="currentColor" d="M33.1 14.8H16.2v1.5h15.7v5.9h5.8v18.9h-20V15.7h-1.5v26.8h23V21l-6.1-6.2zm.3 2.4l3.5 3.5h-3.5v-3.5z"/>
    <path fill="currentColor" d="M21.3 26.3h13v1.5h-13z"/>
    <path fill="currentColor" d="M21.3 30.8h13v1.5h-13z"/>
    <path fill="currentColor" d="M21.3 35.3h13v1.5h-13z"/>
</symbol><symbol id="icon-start-family" viewBox="0 0 70.6 61.7">
    <path d="M0 45.8C-.2 39.2 3.4 30 12.6 25.3 6.1 19 7.1 9.1 13 3.7c5.7-5.1 14.5-5 20.1.4 5.6 5.3 6.4 14.9.1 21.2 1 .6 2 1.2 3 1.9.9.7 1.8 1.4 2.7 2.2 0 0 0 .1-.1.1-.9 0-1.8-.1-2.6 0-1.6.1-3.1-.1-4.4-1.1-1-.7-1.9-.7-3.1-.2-4.2 1.9-8.5 1.7-12.6-.4-.3-.2-.6-.2-.9 0-6.4 2.9-10.3 7.7-11.7 14.6v.2h25.8v3.3c-9.7-.1-19.5-.1-29.3-.1zM22.9 3.2c-6.3 0-11.5 5.1-11.5 11.4s5.1 11.5 11.4 11.5S34.3 21 34.3 14.7c.1-6.3-5.1-11.5-11.4-11.5z"/>
    <path fill="currentColor" d="M37.6 40.9h-4.9v-3.3h4.9v-4.9h3.3v4.9h4.9v3.3h-4.9v4.9h-3.3v-4.9z"/>
    <path d="M66.6 51.9c-.5-.5-1-1-1.6-1.4s-1.2-.7-1.8-1.1c3.8-3.7 3.3-9.4 0-12.6-.9-.9-2-1.5-3.1-1.9-.2-.1-.5-.2-.7-.2h-.2c-.2 0-.4-.1-.6-.1h-.3c-.2 0-.3 0-.5-.1h-1.6c-.2 0-.3 0-.5.1h-.3c-.2 0-.4.1-.6.1h-.2c-.2.1-.5.1-.7.2-1.1.4-2.2 1.1-3.1 1.9-3.3 3.2-3.8 8.9 0 12.6-.6.4-1.2.7-1.8 1.1-.6.4-1.1.9-1.6 1.3v.1c-3 2.9-4.2 6.8-4.1 9.8h27.2c.3-3-.9-6.9-3.9-9.8zm-16.3-8.8c0-3.7 3.1-6.8 6.8-6.8 3.7 0 6.8 3.1 6.8 6.8 0 3.7-3 6.8-6.8 6.9-3.8 0-6.8-3.1-6.8-6.9zM61 59.7H45.6v-.1c.8-4 3.1-6.9 6.8-8.6.4-.1.7 0 1.1.2.1.1.3.1.4.2.6.2 1.2.4 1.8.5h.1c.2 0 .5.1.7.1h.8c.2 0 .5 0 .7-.1h.1c.6-.1 1.2-.3 1.8-.5.1-.1.3-.1.4-.2.4-.2.8-.3 1.1-.2 3.7 1.7 6 4.6 6.8 8.6v.1H61z"/>
</symbol><symbol id="icon-upgrade-add-a-line" viewBox="0 0 677.6 768">
    <path d="M347.8 731c-22.6 0-40.9-18.3-40.9-40.9s18.3-40.9 40.9-40.9c22.5 0 40.9 18.3 40.9 40.9S370.3 731 347.8 731zm0-64c-12.7 0-23.1 10.4-23.1 23.1s10.4 23.1 23.1 23.1 23.1-10.4 23.1-23.1-10.4-23.1-23.1-23.1z"/>
    <path d="M358.4 78.5H320c-12 0-21.7-8.8-21.7-19.6S308 39.3 320 39.3h38.4c12 0 21.7 8.8 21.7 19.6s-9.7 19.6-21.7 19.6zM320 57.2c-2.6 0-3.9 1.4-3.9 1.8s1.3 1.8 3.9 1.8h38.4c2.6 0 3.9-1.4 3.9-1.8s-1.3-1.8-3.9-1.8H320z"/>
    <path d="M243.3 78.5c-10.8 0-19.6-8.8-19.6-19.6s8.8-19.6 19.6-19.6 19.6 8.8 19.6 19.6-8.8 19.6-19.6 19.6zm0-21.3c-1 0-1.8.8-1.8 1.8 0 1.9 3.5 1.9 3.5 0 0-1-.8-1.8-1.7-1.8z"/>
    <path d="M531.7 471.4v148.8h-384V116.6h383.9V160c5.9-.9 11.8-1.5 17.9-1.7V60.2C549.5 27 523.3 0 491.1 0H188.3c-32.2 0-58.4 27-58.4 60.2v647.6c0 33.2 26.2 60.2 58.4 60.2h302.9c32.2 0 58.4-27 58.4-60.2V473.1c-6.1-.2-12.1-.8-17.9-1.7zm-384-411.2c0-23.4 18.2-42.4 40.5-42.4h302.9c22.3 0 40.5 19 40.5 42.4v38.5H147.7V60.2zm384 647.6c0 23.4-18.2 42.4-40.5 42.4H188.3c-22.3 0-40.5-19-40.5-42.4v-69.7h383.9v69.7z"/>
    <g fill="currentColor">
        <path d="M541.7 451.5c26.2 0 51.8-7.4 73.9-21.4 11.9-7.6 22.6-16.9 31.7-27.7l2.4-2.9 27.9 15.6-1.4-99.4-85.4 50.9 36.2 20.2-4.1 4.3c-21.3 22.3-50.1 34.6-81.3 34.6-41.7 0-80.6-23.9-99.8-61h-28.3c7 17.5 17.2 33 30.5 46.3 26 26.2 60.7 40.5 97.7 40.5z"/>
        <path d="M539.4 211.3c43 0 82.4 24.9 101.2 63.6h28.1c-6.9-18.4-17.5-34.8-31.5-48.8-26.1-26.1-60.8-40.5-97.7-40.5-26.2 0-51.8 7.4-73.9 21.4-11.9 7.6-22.6 16.9-31.7 27.7l-2.4 2.9-27.9-15.6 1.4 99.4 85.4-50.9-36.2-20.2 4-4.3c21.3-22.4 50.1-34.7 81.2-34.7z"/>
    </g>
    <path fill="currentColor" d="M283.4 248.4h27.1v118.7h-27.1z"/>
    <path fill="currentColor" d="M239.9 294.1h114v27.1h-114z"/>
</symbol><symbol id="icon-upgrade" viewBox="0 0 75.7 85.9">
    <path fill="currentColor" d="M60.7 49.9c2.9 0 5.7-.8 8.1-2.3 1.3-.8 2.5-1.9 3.5-3l.3-.3 3.1 1.7-.2-10.9-9.4 5.6 4 2.2-.4.5c-2.3 2.5-5.5 3.8-8.9 3.8-4.6 0-8.8-2.6-11-6.7h-3.1c.8 1.9 1.9 3.6 3.3 5.1 2.8 2.7 6.7 4.3 10.7 4.3z"/>
    <path fill="currentColor" d="M60.5 23.5c4.7 0 9 2.7 11.1 7h3.1c-.8-2-1.9-3.8-3.5-5.4-2.9-2.9-6.7-4.4-10.7-4.4-2.9 0-5.7.8-8.1 2.3-1.3.8-2.5 1.9-3.5 3l-.3.3-3.1-1.7.2 10.9 9.4-5.6-4-2.2.4-.5c2.4-2.3 5.5-3.7 9-3.7z"/>
    <path d="M38.8 82c-2.5 0-4.6-2.1-4.6-4.6s2.1-4.6 4.6-4.6 4.6 2.1 4.6 4.6-2 4.6-4.6 4.6zm0-7.2c-1.4 0-2.6 1.2-2.6 2.6s1.2 2.6 2.6 2.6 2.6-1.2 2.6-2.6-1.1-2.6-2.6-2.6z"/>
    <path d="M40 8.7h-4.3c-1.3 0-2.4-1-2.4-2.2s1.1-2.2 2.4-2.2H40c1.3 0 2.4 1 2.4 2.2s-1 2.2-2.4 2.2zm-4.3-2.3c-.3 0-.4.2-.4.2s.1.2.4.2H40c.3 0 .4-.2.4-.2s-.1-.2-.4-.2h-4.3z"/>
    <path d="M27.1 8.7c-1.2 0-2.2-1-2.2-2.2s1-2.2 2.2-2.2 2.2 1 2.2 2.2-1 2.2-2.2 2.2zm0-2.3c-.1 0-.2.1-.2.2 0 .2.4.2.4 0s-.1-.2-.2-.2z"/>
    <path d="M60.5 53.1c-.4 0-.8 0-1.2-.1v16.5h-43V13.1h43v4.7c.4 0 .8-.1 1.2-.1h.8v-11C61.3 3 58.4 0 54.8 0H20.9c-3.6 0-6.5 3-6.5 6.7v72.5c0 3.7 2.9 6.7 6.5 6.7h33.9c3.6 0 6.5-3 6.5-6.7V53c-.2.1-.5.1-.8.1zM16.4 6.8c0-2.6 2-4.7 4.5-4.7h33.9c2.5 0 4.5 2.1 4.5 4.7v4.3h-43l.1-4.3zm43 72.5c0 2.6-2 4.7-4.5 4.7h-34c-2.5 0-4.5-2.1-4.5-4.7v-7.8h43v7.8z"/>
</symbol></svg>